G04 MADE WITH FRITZING*
G04 WWW.FRITZING.ORG*
G04 DOUBLE SIDED*
G04 HOLES PLATED*
G04 CONTOUR ON CENTER OF CONTOUR VECTOR*
%ASAXBY*%
%FSLAX23Y23*%
%MOIN*%
%OFA0B0*%
%SFA1.0B1.0*%
%ADD10C,0.010000*%
%ADD11C,0.005000*%
%ADD12R,0.001000X0.001000*%
%LNSILK1*%
G90*
G70*
G54D10*
X1286Y591D02*
X1286Y291D01*
D02*
X1286Y291D02*
X1386Y291D01*
D02*
X1386Y291D02*
X1386Y591D01*
D02*
X1386Y591D02*
X1286Y591D01*
D02*
X1386Y591D02*
X1386Y291D01*
D02*
X1386Y291D02*
X1486Y291D01*
D02*
X1486Y291D02*
X1486Y591D01*
D02*
X1486Y591D02*
X1386Y591D01*
D02*
X1486Y591D02*
X1486Y291D01*
D02*
X1486Y291D02*
X1586Y291D01*
D02*
X1586Y291D02*
X1586Y591D01*
D02*
X1586Y591D02*
X1486Y591D01*
D02*
X1586Y591D02*
X1586Y291D01*
D02*
X1586Y291D02*
X1686Y291D01*
D02*
X1686Y291D02*
X1686Y591D01*
D02*
X1686Y591D02*
X1586Y591D01*
D02*
X1686Y591D02*
X1686Y291D01*
D02*
X1686Y291D02*
X1786Y291D01*
D02*
X1786Y291D02*
X1786Y591D01*
D02*
X1786Y591D02*
X1686Y591D01*
D02*
X1786Y591D02*
X1786Y291D01*
D02*
X1786Y291D02*
X1886Y291D01*
D02*
X1886Y291D02*
X1886Y591D01*
D02*
X1886Y591D02*
X1786Y591D01*
D02*
X856Y541D02*
X856Y141D01*
D02*
X856Y141D02*
X676Y141D01*
D02*
X676Y541D02*
X856Y541D01*
D02*
X856Y541D02*
X856Y141D01*
D02*
X856Y141D02*
X796Y141D01*
D02*
X796Y141D02*
X796Y541D01*
D02*
X796Y541D02*
X856Y541D01*
G54D11*
D02*
X856Y411D02*
X796Y411D01*
D02*
X856Y271D02*
X796Y271D01*
G54D10*
D02*
X481Y501D02*
X481Y451D01*
D02*
X441Y161D02*
X481Y161D01*
D02*
X481Y161D02*
X481Y211D01*
D02*
X51Y161D02*
X51Y501D01*
D02*
X46Y161D02*
X46Y501D01*
D02*
X41Y161D02*
X41Y501D01*
D02*
X36Y161D02*
X36Y501D01*
D02*
X31Y161D02*
X31Y501D01*
D02*
X26Y161D02*
X26Y501D01*
D02*
X21Y161D02*
X21Y501D01*
D02*
X16Y161D02*
X16Y501D01*
D02*
X1886Y191D02*
X1286Y191D01*
D02*
X1286Y191D02*
X1286Y91D01*
D02*
X1286Y91D02*
X1886Y91D01*
D02*
X1886Y91D02*
X1886Y191D01*
D02*
X2103Y250D02*
X2103Y450D01*
D02*
X2103Y450D02*
X2169Y450D01*
D02*
X2169Y450D02*
X2169Y250D01*
D02*
X2169Y250D02*
X2103Y250D01*
G54D12*
X1Y688D02*
X2362Y688D01*
X1Y687D02*
X2362Y687D01*
X1Y686D02*
X2362Y686D01*
X1Y685D02*
X2362Y685D01*
X1Y684D02*
X2362Y684D01*
X1Y683D02*
X2362Y683D01*
X1Y682D02*
X2362Y682D01*
X1Y681D02*
X2362Y681D01*
X1Y680D02*
X8Y680D01*
X2355Y680D02*
X2362Y680D01*
X1Y679D02*
X8Y679D01*
X2355Y679D02*
X2362Y679D01*
X1Y678D02*
X8Y678D01*
X2355Y678D02*
X2362Y678D01*
X1Y677D02*
X8Y677D01*
X2355Y677D02*
X2362Y677D01*
X1Y676D02*
X8Y676D01*
X2355Y676D02*
X2362Y676D01*
X1Y675D02*
X8Y675D01*
X2355Y675D02*
X2362Y675D01*
X1Y674D02*
X8Y674D01*
X2355Y674D02*
X2362Y674D01*
X1Y673D02*
X8Y673D01*
X2355Y673D02*
X2362Y673D01*
X1Y672D02*
X8Y672D01*
X2355Y672D02*
X2362Y672D01*
X1Y671D02*
X8Y671D01*
X2355Y671D02*
X2362Y671D01*
X1Y670D02*
X8Y670D01*
X2355Y670D02*
X2362Y670D01*
X1Y669D02*
X8Y669D01*
X2355Y669D02*
X2362Y669D01*
X1Y668D02*
X8Y668D01*
X2355Y668D02*
X2362Y668D01*
X1Y667D02*
X8Y667D01*
X2355Y667D02*
X2362Y667D01*
X1Y666D02*
X8Y666D01*
X2355Y666D02*
X2362Y666D01*
X1Y665D02*
X8Y665D01*
X2355Y665D02*
X2362Y665D01*
X1Y664D02*
X8Y664D01*
X2355Y664D02*
X2362Y664D01*
X1Y663D02*
X8Y663D01*
X2355Y663D02*
X2362Y663D01*
X1Y662D02*
X8Y662D01*
X2355Y662D02*
X2362Y662D01*
X1Y661D02*
X8Y661D01*
X2355Y661D02*
X2362Y661D01*
X1Y660D02*
X8Y660D01*
X2355Y660D02*
X2362Y660D01*
X1Y659D02*
X8Y659D01*
X2355Y659D02*
X2362Y659D01*
X1Y658D02*
X8Y658D01*
X2355Y658D02*
X2362Y658D01*
X1Y657D02*
X8Y657D01*
X2355Y657D02*
X2362Y657D01*
X1Y656D02*
X8Y656D01*
X2355Y656D02*
X2362Y656D01*
X1Y655D02*
X8Y655D01*
X2355Y655D02*
X2362Y655D01*
X1Y654D02*
X8Y654D01*
X2355Y654D02*
X2362Y654D01*
X1Y653D02*
X8Y653D01*
X2355Y653D02*
X2362Y653D01*
X1Y652D02*
X8Y652D01*
X2355Y652D02*
X2362Y652D01*
X1Y651D02*
X8Y651D01*
X2355Y651D02*
X2362Y651D01*
X1Y650D02*
X8Y650D01*
X2355Y650D02*
X2362Y650D01*
X1Y649D02*
X8Y649D01*
X2355Y649D02*
X2362Y649D01*
X1Y648D02*
X8Y648D01*
X2355Y648D02*
X2362Y648D01*
X1Y647D02*
X8Y647D01*
X2355Y647D02*
X2362Y647D01*
X1Y646D02*
X8Y646D01*
X2355Y646D02*
X2362Y646D01*
X1Y645D02*
X8Y645D01*
X2355Y645D02*
X2362Y645D01*
X1Y644D02*
X8Y644D01*
X2355Y644D02*
X2362Y644D01*
X1Y643D02*
X8Y643D01*
X2355Y643D02*
X2362Y643D01*
X1Y642D02*
X8Y642D01*
X2355Y642D02*
X2362Y642D01*
X1Y641D02*
X8Y641D01*
X2355Y641D02*
X2362Y641D01*
X1Y640D02*
X8Y640D01*
X2355Y640D02*
X2362Y640D01*
X1Y639D02*
X8Y639D01*
X2355Y639D02*
X2362Y639D01*
X1Y638D02*
X8Y638D01*
X2355Y638D02*
X2362Y638D01*
X1Y637D02*
X8Y637D01*
X2355Y637D02*
X2362Y637D01*
X1Y636D02*
X8Y636D01*
X2355Y636D02*
X2362Y636D01*
X1Y635D02*
X8Y635D01*
X2355Y635D02*
X2362Y635D01*
X1Y634D02*
X8Y634D01*
X2355Y634D02*
X2362Y634D01*
X1Y633D02*
X8Y633D01*
X2355Y633D02*
X2362Y633D01*
X1Y632D02*
X8Y632D01*
X2355Y632D02*
X2362Y632D01*
X1Y631D02*
X8Y631D01*
X2355Y631D02*
X2362Y631D01*
X1Y630D02*
X8Y630D01*
X2355Y630D02*
X2362Y630D01*
X1Y629D02*
X8Y629D01*
X2355Y629D02*
X2362Y629D01*
X1Y628D02*
X8Y628D01*
X2355Y628D02*
X2362Y628D01*
X1Y627D02*
X8Y627D01*
X2355Y627D02*
X2362Y627D01*
X1Y626D02*
X8Y626D01*
X2355Y626D02*
X2362Y626D01*
X1Y625D02*
X8Y625D01*
X2355Y625D02*
X2362Y625D01*
X1Y624D02*
X8Y624D01*
X2355Y624D02*
X2362Y624D01*
X1Y623D02*
X8Y623D01*
X2355Y623D02*
X2362Y623D01*
X1Y622D02*
X8Y622D01*
X2355Y622D02*
X2362Y622D01*
X1Y621D02*
X8Y621D01*
X2355Y621D02*
X2362Y621D01*
X1Y620D02*
X8Y620D01*
X2355Y620D02*
X2362Y620D01*
X1Y619D02*
X8Y619D01*
X2355Y619D02*
X2362Y619D01*
X1Y618D02*
X8Y618D01*
X2355Y618D02*
X2362Y618D01*
X1Y617D02*
X8Y617D01*
X2355Y617D02*
X2362Y617D01*
X1Y616D02*
X8Y616D01*
X2355Y616D02*
X2362Y616D01*
X1Y615D02*
X8Y615D01*
X2355Y615D02*
X2362Y615D01*
X1Y614D02*
X8Y614D01*
X2355Y614D02*
X2362Y614D01*
X1Y613D02*
X8Y613D01*
X2355Y613D02*
X2362Y613D01*
X1Y612D02*
X8Y612D01*
X2355Y612D02*
X2362Y612D01*
X1Y611D02*
X8Y611D01*
X2355Y611D02*
X2362Y611D01*
X1Y610D02*
X8Y610D01*
X2355Y610D02*
X2362Y610D01*
X1Y609D02*
X8Y609D01*
X2355Y609D02*
X2362Y609D01*
X1Y608D02*
X8Y608D01*
X2355Y608D02*
X2362Y608D01*
X1Y607D02*
X8Y607D01*
X2355Y607D02*
X2362Y607D01*
X1Y606D02*
X8Y606D01*
X2355Y606D02*
X2362Y606D01*
X1Y605D02*
X8Y605D01*
X2355Y605D02*
X2362Y605D01*
X1Y604D02*
X8Y604D01*
X2355Y604D02*
X2362Y604D01*
X1Y603D02*
X8Y603D01*
X2355Y603D02*
X2362Y603D01*
X1Y602D02*
X8Y602D01*
X2355Y602D02*
X2362Y602D01*
X1Y601D02*
X8Y601D01*
X2355Y601D02*
X2362Y601D01*
X1Y600D02*
X8Y600D01*
X2355Y600D02*
X2362Y600D01*
X1Y599D02*
X8Y599D01*
X2355Y599D02*
X2362Y599D01*
X1Y598D02*
X8Y598D01*
X2355Y598D02*
X2362Y598D01*
X1Y597D02*
X8Y597D01*
X2355Y597D02*
X2362Y597D01*
X1Y596D02*
X8Y596D01*
X2355Y596D02*
X2362Y596D01*
X1Y595D02*
X8Y595D01*
X2355Y595D02*
X2362Y595D01*
X1Y594D02*
X8Y594D01*
X2355Y594D02*
X2362Y594D01*
X1Y593D02*
X8Y593D01*
X2355Y593D02*
X2362Y593D01*
X1Y592D02*
X8Y592D01*
X2355Y592D02*
X2362Y592D01*
X1Y591D02*
X8Y591D01*
X1319Y591D02*
X1320Y591D01*
X1419Y591D02*
X1420Y591D01*
X1519Y591D02*
X1520Y591D01*
X1619Y591D02*
X1620Y591D01*
X1719Y591D02*
X1720Y591D01*
X1819Y591D02*
X1820Y591D01*
X2355Y591D02*
X2362Y591D01*
X1Y590D02*
X8Y590D01*
X1318Y590D02*
X1321Y590D01*
X1418Y590D02*
X1421Y590D01*
X1518Y590D02*
X1521Y590D01*
X1618Y590D02*
X1621Y590D01*
X1718Y590D02*
X1721Y590D01*
X1818Y590D02*
X1821Y590D01*
X2355Y590D02*
X2362Y590D01*
X1Y589D02*
X8Y589D01*
X1317Y589D02*
X1322Y589D01*
X1417Y589D02*
X1422Y589D01*
X1517Y589D02*
X1522Y589D01*
X1617Y589D02*
X1622Y589D01*
X1717Y589D02*
X1722Y589D01*
X1817Y589D02*
X1822Y589D01*
X2355Y589D02*
X2362Y589D01*
X1Y588D02*
X8Y588D01*
X1316Y588D02*
X1322Y588D01*
X1416Y588D02*
X1422Y588D01*
X1516Y588D02*
X1522Y588D01*
X1616Y588D02*
X1622Y588D01*
X1716Y588D02*
X1722Y588D01*
X1816Y588D02*
X1822Y588D01*
X2355Y588D02*
X2362Y588D01*
X1Y587D02*
X8Y587D01*
X1315Y587D02*
X1321Y587D01*
X1415Y587D02*
X1421Y587D01*
X1515Y587D02*
X1521Y587D01*
X1615Y587D02*
X1621Y587D01*
X1715Y587D02*
X1721Y587D01*
X1815Y587D02*
X1821Y587D01*
X2355Y587D02*
X2362Y587D01*
X1Y586D02*
X8Y586D01*
X34Y586D02*
X60Y586D01*
X389Y586D02*
X402Y586D01*
X1314Y586D02*
X1320Y586D01*
X1414Y586D02*
X1420Y586D01*
X1514Y586D02*
X1520Y586D01*
X1614Y586D02*
X1620Y586D01*
X1714Y586D02*
X1720Y586D01*
X1814Y586D02*
X1820Y586D01*
X2355Y586D02*
X2362Y586D01*
X1Y585D02*
X8Y585D01*
X34Y585D02*
X62Y585D01*
X388Y585D02*
X403Y585D01*
X1313Y585D02*
X1319Y585D01*
X1413Y585D02*
X1419Y585D01*
X1513Y585D02*
X1519Y585D01*
X1613Y585D02*
X1619Y585D01*
X1713Y585D02*
X1719Y585D01*
X1813Y585D02*
X1819Y585D01*
X2355Y585D02*
X2362Y585D01*
X1Y584D02*
X8Y584D01*
X34Y584D02*
X63Y584D01*
X387Y584D02*
X403Y584D01*
X1312Y584D02*
X1318Y584D01*
X1412Y584D02*
X1418Y584D01*
X1512Y584D02*
X1518Y584D01*
X1612Y584D02*
X1618Y584D01*
X1712Y584D02*
X1718Y584D01*
X1812Y584D02*
X1818Y584D01*
X2355Y584D02*
X2362Y584D01*
X1Y583D02*
X8Y583D01*
X34Y583D02*
X65Y583D01*
X387Y583D02*
X403Y583D01*
X1311Y583D02*
X1317Y583D01*
X1411Y583D02*
X1417Y583D01*
X1511Y583D02*
X1517Y583D01*
X1611Y583D02*
X1617Y583D01*
X1711Y583D02*
X1717Y583D01*
X1811Y583D02*
X1817Y583D01*
X2355Y583D02*
X2362Y583D01*
X1Y582D02*
X8Y582D01*
X34Y582D02*
X65Y582D01*
X387Y582D02*
X403Y582D01*
X1310Y582D02*
X1316Y582D01*
X1410Y582D02*
X1416Y582D01*
X1510Y582D02*
X1516Y582D01*
X1610Y582D02*
X1616Y582D01*
X1710Y582D02*
X1716Y582D01*
X1810Y582D02*
X1816Y582D01*
X2355Y582D02*
X2362Y582D01*
X1Y581D02*
X8Y581D01*
X34Y581D02*
X66Y581D01*
X388Y581D02*
X403Y581D01*
X1309Y581D02*
X1315Y581D01*
X1409Y581D02*
X1415Y581D01*
X1509Y581D02*
X1515Y581D01*
X1609Y581D02*
X1615Y581D01*
X1709Y581D02*
X1715Y581D01*
X1809Y581D02*
X1815Y581D01*
X2355Y581D02*
X2362Y581D01*
X1Y580D02*
X8Y580D01*
X34Y580D02*
X66Y580D01*
X389Y580D02*
X403Y580D01*
X1308Y580D02*
X1314Y580D01*
X1408Y580D02*
X1414Y580D01*
X1508Y580D02*
X1514Y580D01*
X1608Y580D02*
X1614Y580D01*
X1708Y580D02*
X1714Y580D01*
X1808Y580D02*
X1814Y580D01*
X2355Y580D02*
X2362Y580D01*
X1Y579D02*
X8Y579D01*
X34Y579D02*
X40Y579D01*
X59Y579D02*
X67Y579D01*
X397Y579D02*
X403Y579D01*
X1307Y579D02*
X1313Y579D01*
X1407Y579D02*
X1413Y579D01*
X1507Y579D02*
X1513Y579D01*
X1607Y579D02*
X1613Y579D01*
X1707Y579D02*
X1713Y579D01*
X1807Y579D02*
X1813Y579D01*
X2355Y579D02*
X2362Y579D01*
X1Y578D02*
X8Y578D01*
X34Y578D02*
X40Y578D01*
X61Y578D02*
X67Y578D01*
X397Y578D02*
X403Y578D01*
X1306Y578D02*
X1312Y578D01*
X1406Y578D02*
X1412Y578D01*
X1506Y578D02*
X1512Y578D01*
X1606Y578D02*
X1612Y578D01*
X1706Y578D02*
X1712Y578D01*
X1806Y578D02*
X1812Y578D01*
X2355Y578D02*
X2362Y578D01*
X1Y577D02*
X8Y577D01*
X34Y577D02*
X40Y577D01*
X61Y577D02*
X67Y577D01*
X397Y577D02*
X403Y577D01*
X1305Y577D02*
X1311Y577D01*
X1405Y577D02*
X1411Y577D01*
X1505Y577D02*
X1511Y577D01*
X1605Y577D02*
X1611Y577D01*
X1705Y577D02*
X1711Y577D01*
X1805Y577D02*
X1811Y577D01*
X2355Y577D02*
X2362Y577D01*
X1Y576D02*
X8Y576D01*
X34Y576D02*
X40Y576D01*
X61Y576D02*
X67Y576D01*
X397Y576D02*
X403Y576D01*
X1304Y576D02*
X1310Y576D01*
X1404Y576D02*
X1410Y576D01*
X1504Y576D02*
X1510Y576D01*
X1604Y576D02*
X1610Y576D01*
X1704Y576D02*
X1710Y576D01*
X1804Y576D02*
X1810Y576D01*
X2355Y576D02*
X2362Y576D01*
X1Y575D02*
X8Y575D01*
X34Y575D02*
X40Y575D01*
X61Y575D02*
X67Y575D01*
X397Y575D02*
X403Y575D01*
X1303Y575D02*
X1309Y575D01*
X1403Y575D02*
X1409Y575D01*
X1503Y575D02*
X1509Y575D01*
X1603Y575D02*
X1609Y575D01*
X1703Y575D02*
X1709Y575D01*
X1803Y575D02*
X1809Y575D01*
X2355Y575D02*
X2362Y575D01*
X1Y574D02*
X8Y574D01*
X34Y574D02*
X40Y574D01*
X61Y574D02*
X67Y574D01*
X397Y574D02*
X403Y574D01*
X1302Y574D02*
X1307Y574D01*
X1402Y574D02*
X1407Y574D01*
X1502Y574D02*
X1507Y574D01*
X1602Y574D02*
X1607Y574D01*
X1702Y574D02*
X1707Y574D01*
X1802Y574D02*
X1807Y574D01*
X2355Y574D02*
X2362Y574D01*
X1Y573D02*
X8Y573D01*
X34Y573D02*
X40Y573D01*
X61Y573D02*
X67Y573D01*
X336Y573D02*
X337Y573D01*
X348Y573D02*
X353Y573D01*
X397Y573D02*
X403Y573D01*
X1301Y573D02*
X1306Y573D01*
X1401Y573D02*
X1406Y573D01*
X1501Y573D02*
X1506Y573D01*
X1601Y573D02*
X1606Y573D01*
X1701Y573D02*
X1706Y573D01*
X1801Y573D02*
X1806Y573D01*
X2355Y573D02*
X2362Y573D01*
X1Y572D02*
X8Y572D01*
X34Y572D02*
X40Y572D01*
X61Y572D02*
X67Y572D01*
X335Y572D02*
X339Y572D01*
X345Y572D02*
X356Y572D01*
X397Y572D02*
X403Y572D01*
X1300Y572D02*
X1305Y572D01*
X1400Y572D02*
X1405Y572D01*
X1500Y572D02*
X1505Y572D01*
X1600Y572D02*
X1605Y572D01*
X1700Y572D02*
X1705Y572D01*
X1800Y572D02*
X1805Y572D01*
X2355Y572D02*
X2362Y572D01*
X1Y571D02*
X8Y571D01*
X34Y571D02*
X40Y571D01*
X61Y571D02*
X67Y571D01*
X93Y571D02*
X108Y571D01*
X134Y571D02*
X138Y571D01*
X163Y571D02*
X167Y571D01*
X193Y571D02*
X208Y571D01*
X235Y571D02*
X238Y571D01*
X249Y571D02*
X261Y571D01*
X334Y571D02*
X339Y571D01*
X344Y571D02*
X357Y571D01*
X397Y571D02*
X403Y571D01*
X435Y571D02*
X438Y571D01*
X463Y571D02*
X466Y571D01*
X493Y571D02*
X505Y571D01*
X513Y571D02*
X516Y571D01*
X1299Y571D02*
X1304Y571D01*
X1399Y571D02*
X1404Y571D01*
X1499Y571D02*
X1504Y571D01*
X1599Y571D02*
X1604Y571D01*
X1699Y571D02*
X1704Y571D01*
X1799Y571D02*
X1804Y571D01*
X2355Y571D02*
X2362Y571D01*
X1Y570D02*
X8Y570D01*
X34Y570D02*
X40Y570D01*
X61Y570D02*
X67Y570D01*
X91Y570D02*
X110Y570D01*
X133Y570D02*
X138Y570D01*
X162Y570D02*
X167Y570D01*
X191Y570D02*
X210Y570D01*
X234Y570D02*
X239Y570D01*
X247Y570D02*
X263Y570D01*
X334Y570D02*
X340Y570D01*
X343Y570D02*
X359Y570D01*
X397Y570D02*
X403Y570D01*
X434Y570D02*
X439Y570D01*
X462Y570D02*
X467Y570D01*
X491Y570D02*
X507Y570D01*
X512Y570D02*
X517Y570D01*
X1298Y570D02*
X1303Y570D01*
X1398Y570D02*
X1403Y570D01*
X1498Y570D02*
X1503Y570D01*
X1598Y570D02*
X1603Y570D01*
X1698Y570D02*
X1703Y570D01*
X1798Y570D02*
X1803Y570D01*
X2355Y570D02*
X2362Y570D01*
X1Y569D02*
X8Y569D01*
X34Y569D02*
X40Y569D01*
X61Y569D02*
X67Y569D01*
X89Y569D02*
X111Y569D01*
X133Y569D02*
X139Y569D01*
X162Y569D02*
X168Y569D01*
X189Y569D02*
X211Y569D01*
X234Y569D02*
X240Y569D01*
X246Y569D02*
X264Y569D01*
X334Y569D02*
X340Y569D01*
X342Y569D02*
X360Y569D01*
X397Y569D02*
X403Y569D01*
X434Y569D02*
X439Y569D01*
X461Y569D02*
X467Y569D01*
X489Y569D02*
X508Y569D01*
X511Y569D02*
X517Y569D01*
X1297Y569D02*
X1302Y569D01*
X1397Y569D02*
X1402Y569D01*
X1497Y569D02*
X1502Y569D01*
X1597Y569D02*
X1602Y569D01*
X1697Y569D02*
X1702Y569D01*
X1797Y569D02*
X1802Y569D01*
X2355Y569D02*
X2362Y569D01*
X1Y568D02*
X8Y568D01*
X34Y568D02*
X40Y568D01*
X61Y568D02*
X67Y568D01*
X88Y568D02*
X113Y568D01*
X133Y568D02*
X139Y568D01*
X162Y568D02*
X168Y568D01*
X188Y568D02*
X213Y568D01*
X234Y568D02*
X240Y568D01*
X245Y568D02*
X265Y568D01*
X334Y568D02*
X361Y568D01*
X397Y568D02*
X403Y568D01*
X434Y568D02*
X440Y568D01*
X461Y568D02*
X467Y568D01*
X488Y568D02*
X509Y568D01*
X511Y568D02*
X517Y568D01*
X1296Y568D02*
X1302Y568D01*
X1396Y568D02*
X1402Y568D01*
X1496Y568D02*
X1502Y568D01*
X1596Y568D02*
X1602Y568D01*
X1696Y568D02*
X1701Y568D01*
X1796Y568D02*
X1801Y568D01*
X2355Y568D02*
X2362Y568D01*
X1Y567D02*
X8Y567D01*
X34Y567D02*
X40Y567D01*
X61Y567D02*
X67Y567D01*
X87Y567D02*
X114Y567D01*
X133Y567D02*
X139Y567D01*
X162Y567D02*
X168Y567D01*
X187Y567D02*
X214Y567D01*
X234Y567D02*
X240Y567D01*
X244Y567D02*
X266Y567D01*
X334Y567D02*
X362Y567D01*
X397Y567D02*
X403Y567D01*
X434Y567D02*
X440Y567D01*
X461Y567D02*
X467Y567D01*
X487Y567D02*
X517Y567D01*
X1295Y567D02*
X1301Y567D01*
X1395Y567D02*
X1401Y567D01*
X1495Y567D02*
X1501Y567D01*
X1595Y567D02*
X1601Y567D01*
X1695Y567D02*
X1701Y567D01*
X1795Y567D02*
X1801Y567D01*
X2355Y567D02*
X2362Y567D01*
X1Y566D02*
X8Y566D01*
X34Y566D02*
X40Y566D01*
X61Y566D02*
X67Y566D01*
X86Y566D02*
X115Y566D01*
X133Y566D02*
X139Y566D01*
X162Y566D02*
X168Y566D01*
X186Y566D02*
X215Y566D01*
X234Y566D02*
X240Y566D01*
X243Y566D02*
X266Y566D01*
X334Y566D02*
X348Y566D01*
X353Y566D02*
X363Y566D01*
X397Y566D02*
X403Y566D01*
X434Y566D02*
X440Y566D01*
X461Y566D02*
X467Y566D01*
X486Y566D02*
X517Y566D01*
X1294Y566D02*
X1300Y566D01*
X1394Y566D02*
X1400Y566D01*
X1494Y566D02*
X1500Y566D01*
X1594Y566D02*
X1600Y566D01*
X1694Y566D02*
X1700Y566D01*
X1794Y566D02*
X1800Y566D01*
X2355Y566D02*
X2362Y566D01*
X1Y565D02*
X8Y565D01*
X34Y565D02*
X40Y565D01*
X61Y565D02*
X67Y565D01*
X86Y565D02*
X116Y565D01*
X133Y565D02*
X139Y565D01*
X162Y565D02*
X168Y565D01*
X186Y565D02*
X216Y565D01*
X234Y565D02*
X240Y565D01*
X242Y565D02*
X267Y565D01*
X334Y565D02*
X347Y565D01*
X355Y565D02*
X364Y565D01*
X397Y565D02*
X403Y565D01*
X434Y565D02*
X440Y565D01*
X461Y565D02*
X467Y565D01*
X485Y565D02*
X517Y565D01*
X1293Y565D02*
X1299Y565D01*
X1393Y565D02*
X1399Y565D01*
X1493Y565D02*
X1499Y565D01*
X1593Y565D02*
X1599Y565D01*
X1693Y565D02*
X1699Y565D01*
X1793Y565D02*
X1799Y565D01*
X2355Y565D02*
X2362Y565D01*
X1Y564D02*
X8Y564D01*
X34Y564D02*
X40Y564D01*
X61Y564D02*
X67Y564D01*
X85Y564D02*
X93Y564D01*
X108Y564D02*
X116Y564D01*
X133Y564D02*
X139Y564D01*
X162Y564D02*
X168Y564D01*
X185Y564D02*
X193Y564D01*
X208Y564D02*
X216Y564D01*
X234Y564D02*
X250Y564D01*
X260Y564D02*
X267Y564D01*
X334Y564D02*
X346Y564D01*
X356Y564D02*
X365Y564D01*
X397Y564D02*
X403Y564D01*
X434Y564D02*
X440Y564D01*
X461Y564D02*
X467Y564D01*
X485Y564D02*
X493Y564D01*
X504Y564D02*
X517Y564D01*
X1292Y564D02*
X1298Y564D01*
X1392Y564D02*
X1398Y564D01*
X1492Y564D02*
X1498Y564D01*
X1592Y564D02*
X1598Y564D01*
X1692Y564D02*
X1698Y564D01*
X1792Y564D02*
X1798Y564D01*
X2355Y564D02*
X2362Y564D01*
X1Y563D02*
X8Y563D01*
X34Y563D02*
X40Y563D01*
X61Y563D02*
X67Y563D01*
X85Y563D02*
X92Y563D01*
X109Y563D02*
X117Y563D01*
X133Y563D02*
X139Y563D01*
X162Y563D02*
X168Y563D01*
X184Y563D02*
X192Y563D01*
X209Y563D02*
X217Y563D01*
X234Y563D02*
X249Y563D01*
X261Y563D02*
X267Y563D01*
X334Y563D02*
X345Y563D01*
X357Y563D02*
X366Y563D01*
X397Y563D02*
X403Y563D01*
X434Y563D02*
X440Y563D01*
X461Y563D02*
X467Y563D01*
X484Y563D02*
X492Y563D01*
X505Y563D02*
X517Y563D01*
X1291Y563D02*
X1297Y563D01*
X1391Y563D02*
X1397Y563D01*
X1491Y563D02*
X1497Y563D01*
X1591Y563D02*
X1597Y563D01*
X1691Y563D02*
X1697Y563D01*
X1791Y563D02*
X1797Y563D01*
X2355Y563D02*
X2362Y563D01*
X1Y562D02*
X8Y562D01*
X34Y562D02*
X40Y562D01*
X61Y562D02*
X67Y562D01*
X84Y562D02*
X91Y562D01*
X110Y562D02*
X117Y562D01*
X133Y562D02*
X139Y562D01*
X162Y562D02*
X168Y562D01*
X184Y562D02*
X191Y562D01*
X210Y562D02*
X217Y562D01*
X234Y562D02*
X248Y562D01*
X261Y562D02*
X267Y562D01*
X334Y562D02*
X344Y562D01*
X358Y562D02*
X366Y562D01*
X397Y562D02*
X403Y562D01*
X434Y562D02*
X440Y562D01*
X461Y562D02*
X467Y562D01*
X484Y562D02*
X491Y562D01*
X506Y562D02*
X517Y562D01*
X1290Y562D02*
X1296Y562D01*
X1390Y562D02*
X1396Y562D01*
X1490Y562D02*
X1496Y562D01*
X1590Y562D02*
X1596Y562D01*
X1690Y562D02*
X1696Y562D01*
X1790Y562D02*
X1796Y562D01*
X2355Y562D02*
X2362Y562D01*
X1Y561D02*
X8Y561D01*
X34Y561D02*
X40Y561D01*
X60Y561D02*
X67Y561D01*
X84Y561D02*
X90Y561D01*
X111Y561D02*
X117Y561D01*
X133Y561D02*
X139Y561D01*
X162Y561D02*
X168Y561D01*
X184Y561D02*
X190Y561D01*
X211Y561D02*
X217Y561D01*
X234Y561D02*
X247Y561D01*
X261Y561D02*
X267Y561D01*
X334Y561D02*
X343Y561D01*
X359Y561D02*
X367Y561D01*
X397Y561D02*
X403Y561D01*
X434Y561D02*
X440Y561D01*
X461Y561D02*
X467Y561D01*
X484Y561D02*
X490Y561D01*
X507Y561D02*
X517Y561D01*
X1289Y561D02*
X1295Y561D01*
X1389Y561D02*
X1395Y561D01*
X1489Y561D02*
X1495Y561D01*
X1589Y561D02*
X1595Y561D01*
X1689Y561D02*
X1695Y561D01*
X1789Y561D02*
X1795Y561D01*
X2355Y561D02*
X2362Y561D01*
X1Y560D02*
X8Y560D01*
X34Y560D02*
X67Y560D01*
X84Y560D02*
X90Y560D01*
X111Y560D02*
X117Y560D01*
X133Y560D02*
X139Y560D01*
X162Y560D02*
X168Y560D01*
X184Y560D02*
X190Y560D01*
X211Y560D02*
X217Y560D01*
X234Y560D02*
X246Y560D01*
X261Y560D02*
X267Y560D01*
X334Y560D02*
X342Y560D01*
X360Y560D02*
X367Y560D01*
X397Y560D02*
X403Y560D01*
X434Y560D02*
X440Y560D01*
X461Y560D02*
X467Y560D01*
X484Y560D02*
X490Y560D01*
X509Y560D02*
X517Y560D01*
X1288Y560D02*
X1294Y560D01*
X1388Y560D02*
X1394Y560D01*
X1488Y560D02*
X1494Y560D01*
X1588Y560D02*
X1594Y560D01*
X1688Y560D02*
X1694Y560D01*
X1788Y560D02*
X1794Y560D01*
X2355Y560D02*
X2362Y560D01*
X1Y559D02*
X8Y559D01*
X34Y559D02*
X66Y559D01*
X84Y559D02*
X90Y559D01*
X111Y559D02*
X117Y559D01*
X133Y559D02*
X139Y559D01*
X149Y559D02*
X152Y559D01*
X162Y559D02*
X168Y559D01*
X184Y559D02*
X190Y559D01*
X211Y559D02*
X217Y559D01*
X234Y559D02*
X244Y559D01*
X261Y559D02*
X267Y559D01*
X334Y559D02*
X341Y559D01*
X361Y559D02*
X367Y559D01*
X397Y559D02*
X403Y559D01*
X434Y559D02*
X440Y559D01*
X461Y559D02*
X467Y559D01*
X484Y559D02*
X490Y559D01*
X510Y559D02*
X517Y559D01*
X1287Y559D02*
X1293Y559D01*
X1387Y559D02*
X1393Y559D01*
X1487Y559D02*
X1493Y559D01*
X1587Y559D02*
X1593Y559D01*
X1687Y559D02*
X1693Y559D01*
X1787Y559D02*
X1793Y559D01*
X2355Y559D02*
X2362Y559D01*
X1Y558D02*
X8Y558D01*
X34Y558D02*
X66Y558D01*
X84Y558D02*
X90Y558D01*
X111Y558D02*
X117Y558D01*
X133Y558D02*
X139Y558D01*
X148Y558D02*
X153Y558D01*
X162Y558D02*
X168Y558D01*
X184Y558D02*
X190Y558D01*
X211Y558D02*
X217Y558D01*
X234Y558D02*
X243Y558D01*
X262Y558D02*
X267Y558D01*
X334Y558D02*
X340Y558D01*
X361Y558D02*
X367Y558D01*
X397Y558D02*
X403Y558D01*
X434Y558D02*
X440Y558D01*
X461Y558D02*
X467Y558D01*
X484Y558D02*
X490Y558D01*
X511Y558D02*
X517Y558D01*
X1286Y558D02*
X1292Y558D01*
X1386Y558D02*
X1392Y558D01*
X1486Y558D02*
X1492Y558D01*
X1586Y558D02*
X1592Y558D01*
X1686Y558D02*
X1692Y558D01*
X1786Y558D02*
X1792Y558D01*
X2355Y558D02*
X2362Y558D01*
X1Y557D02*
X8Y557D01*
X34Y557D02*
X65Y557D01*
X84Y557D02*
X90Y557D01*
X111Y557D02*
X117Y557D01*
X133Y557D02*
X139Y557D01*
X148Y557D02*
X153Y557D01*
X162Y557D02*
X168Y557D01*
X184Y557D02*
X190Y557D01*
X211Y557D02*
X217Y557D01*
X234Y557D02*
X242Y557D01*
X262Y557D02*
X266Y557D01*
X334Y557D02*
X340Y557D01*
X361Y557D02*
X367Y557D01*
X397Y557D02*
X403Y557D01*
X434Y557D02*
X440Y557D01*
X461Y557D02*
X467Y557D01*
X484Y557D02*
X490Y557D01*
X511Y557D02*
X517Y557D01*
X1285Y557D02*
X1291Y557D01*
X1385Y557D02*
X1391Y557D01*
X1485Y557D02*
X1491Y557D01*
X1585Y557D02*
X1591Y557D01*
X1685Y557D02*
X1691Y557D01*
X1785Y557D02*
X1791Y557D01*
X2355Y557D02*
X2362Y557D01*
X1Y556D02*
X8Y556D01*
X34Y556D02*
X64Y556D01*
X84Y556D02*
X90Y556D01*
X111Y556D02*
X117Y556D01*
X133Y556D02*
X139Y556D01*
X147Y556D02*
X153Y556D01*
X162Y556D02*
X168Y556D01*
X184Y556D02*
X190Y556D01*
X211Y556D02*
X217Y556D01*
X234Y556D02*
X241Y556D01*
X334Y556D02*
X340Y556D01*
X361Y556D02*
X367Y556D01*
X397Y556D02*
X403Y556D01*
X434Y556D02*
X440Y556D01*
X461Y556D02*
X467Y556D01*
X484Y556D02*
X490Y556D01*
X511Y556D02*
X517Y556D01*
X1286Y556D02*
X1290Y556D01*
X1386Y556D02*
X1390Y556D01*
X1486Y556D02*
X1490Y556D01*
X1586Y556D02*
X1590Y556D01*
X1686Y556D02*
X1690Y556D01*
X1786Y556D02*
X1790Y556D01*
X2355Y556D02*
X2362Y556D01*
X1Y555D02*
X8Y555D01*
X34Y555D02*
X63Y555D01*
X84Y555D02*
X90Y555D01*
X111Y555D02*
X117Y555D01*
X133Y555D02*
X139Y555D01*
X147Y555D02*
X153Y555D01*
X161Y555D02*
X167Y555D01*
X184Y555D02*
X190Y555D01*
X211Y555D02*
X217Y555D01*
X234Y555D02*
X240Y555D01*
X334Y555D02*
X340Y555D01*
X361Y555D02*
X367Y555D01*
X397Y555D02*
X403Y555D01*
X434Y555D02*
X440Y555D01*
X461Y555D02*
X467Y555D01*
X484Y555D02*
X490Y555D01*
X511Y555D02*
X517Y555D01*
X1287Y555D02*
X1289Y555D01*
X1387Y555D02*
X1389Y555D01*
X1487Y555D02*
X1489Y555D01*
X1587Y555D02*
X1589Y555D01*
X1687Y555D02*
X1689Y555D01*
X1787Y555D02*
X1789Y555D01*
X2355Y555D02*
X2362Y555D01*
X1Y554D02*
X8Y554D01*
X34Y554D02*
X61Y554D01*
X84Y554D02*
X90Y554D01*
X111Y554D02*
X117Y554D01*
X133Y554D02*
X139Y554D01*
X147Y554D02*
X153Y554D01*
X161Y554D02*
X167Y554D01*
X184Y554D02*
X217Y554D01*
X234Y554D02*
X240Y554D01*
X334Y554D02*
X340Y554D01*
X361Y554D02*
X367Y554D01*
X397Y554D02*
X403Y554D01*
X434Y554D02*
X440Y554D01*
X461Y554D02*
X467Y554D01*
X484Y554D02*
X490Y554D01*
X511Y554D02*
X517Y554D01*
X2355Y554D02*
X2362Y554D01*
X1Y553D02*
X8Y553D01*
X34Y553D02*
X40Y553D01*
X84Y553D02*
X90Y553D01*
X111Y553D02*
X117Y553D01*
X133Y553D02*
X139Y553D01*
X147Y553D02*
X153Y553D01*
X161Y553D02*
X167Y553D01*
X184Y553D02*
X217Y553D01*
X234Y553D02*
X240Y553D01*
X334Y553D02*
X340Y553D01*
X361Y553D02*
X367Y553D01*
X397Y553D02*
X403Y553D01*
X434Y553D02*
X440Y553D01*
X461Y553D02*
X467Y553D01*
X484Y553D02*
X490Y553D01*
X511Y553D02*
X517Y553D01*
X2355Y553D02*
X2362Y553D01*
X1Y552D02*
X8Y552D01*
X34Y552D02*
X40Y552D01*
X84Y552D02*
X90Y552D01*
X111Y552D02*
X117Y552D01*
X133Y552D02*
X140Y552D01*
X147Y552D02*
X153Y552D01*
X161Y552D02*
X167Y552D01*
X184Y552D02*
X217Y552D01*
X234Y552D02*
X240Y552D01*
X334Y552D02*
X340Y552D01*
X361Y552D02*
X367Y552D01*
X397Y552D02*
X403Y552D01*
X434Y552D02*
X440Y552D01*
X461Y552D02*
X467Y552D01*
X484Y552D02*
X490Y552D01*
X511Y552D02*
X517Y552D01*
X2355Y552D02*
X2362Y552D01*
X1Y551D02*
X8Y551D01*
X34Y551D02*
X40Y551D01*
X84Y551D02*
X90Y551D01*
X111Y551D02*
X117Y551D01*
X134Y551D02*
X140Y551D01*
X147Y551D02*
X153Y551D01*
X161Y551D02*
X167Y551D01*
X184Y551D02*
X217Y551D01*
X234Y551D02*
X240Y551D01*
X334Y551D02*
X340Y551D01*
X361Y551D02*
X367Y551D01*
X397Y551D02*
X403Y551D01*
X434Y551D02*
X440Y551D01*
X461Y551D02*
X467Y551D01*
X484Y551D02*
X490Y551D01*
X511Y551D02*
X517Y551D01*
X2355Y551D02*
X2362Y551D01*
X1Y550D02*
X8Y550D01*
X34Y550D02*
X40Y550D01*
X84Y550D02*
X90Y550D01*
X111Y550D02*
X117Y550D01*
X134Y550D02*
X140Y550D01*
X147Y550D02*
X153Y550D01*
X161Y550D02*
X167Y550D01*
X184Y550D02*
X217Y550D01*
X234Y550D02*
X240Y550D01*
X334Y550D02*
X340Y550D01*
X361Y550D02*
X367Y550D01*
X397Y550D02*
X403Y550D01*
X434Y550D02*
X440Y550D01*
X461Y550D02*
X467Y550D01*
X484Y550D02*
X490Y550D01*
X511Y550D02*
X517Y550D01*
X2355Y550D02*
X2362Y550D01*
X1Y549D02*
X8Y549D01*
X34Y549D02*
X40Y549D01*
X84Y549D02*
X90Y549D01*
X111Y549D02*
X117Y549D01*
X134Y549D02*
X140Y549D01*
X147Y549D02*
X153Y549D01*
X161Y549D02*
X167Y549D01*
X184Y549D02*
X217Y549D01*
X234Y549D02*
X240Y549D01*
X334Y549D02*
X340Y549D01*
X361Y549D02*
X367Y549D01*
X397Y549D02*
X403Y549D01*
X434Y549D02*
X440Y549D01*
X461Y549D02*
X467Y549D01*
X484Y549D02*
X490Y549D01*
X511Y549D02*
X517Y549D01*
X2355Y549D02*
X2362Y549D01*
X1Y548D02*
X8Y548D01*
X34Y548D02*
X40Y548D01*
X84Y548D02*
X90Y548D01*
X111Y548D02*
X117Y548D01*
X134Y548D02*
X140Y548D01*
X147Y548D02*
X154Y548D01*
X161Y548D02*
X167Y548D01*
X184Y548D02*
X216Y548D01*
X234Y548D02*
X240Y548D01*
X334Y548D02*
X340Y548D01*
X361Y548D02*
X367Y548D01*
X397Y548D02*
X403Y548D01*
X434Y548D02*
X440Y548D01*
X461Y548D02*
X467Y548D01*
X484Y548D02*
X490Y548D01*
X510Y548D02*
X517Y548D01*
X2355Y548D02*
X2362Y548D01*
X1Y547D02*
X8Y547D01*
X34Y547D02*
X40Y547D01*
X84Y547D02*
X90Y547D01*
X111Y547D02*
X117Y547D01*
X134Y547D02*
X140Y547D01*
X146Y547D02*
X154Y547D01*
X161Y547D02*
X167Y547D01*
X184Y547D02*
X190Y547D01*
X234Y547D02*
X240Y547D01*
X334Y547D02*
X340Y547D01*
X361Y547D02*
X367Y547D01*
X397Y547D02*
X403Y547D01*
X434Y547D02*
X440Y547D01*
X461Y547D02*
X467Y547D01*
X484Y547D02*
X490Y547D01*
X508Y547D02*
X517Y547D01*
X2355Y547D02*
X2362Y547D01*
X1Y546D02*
X8Y546D01*
X34Y546D02*
X40Y546D01*
X84Y546D02*
X90Y546D01*
X111Y546D02*
X117Y546D01*
X134Y546D02*
X140Y546D01*
X146Y546D02*
X155Y546D01*
X161Y546D02*
X167Y546D01*
X184Y546D02*
X190Y546D01*
X234Y546D02*
X240Y546D01*
X334Y546D02*
X340Y546D01*
X361Y546D02*
X367Y546D01*
X397Y546D02*
X403Y546D01*
X434Y546D02*
X440Y546D01*
X460Y546D02*
X467Y546D01*
X484Y546D02*
X490Y546D01*
X507Y546D02*
X517Y546D01*
X2355Y546D02*
X2362Y546D01*
X1Y545D02*
X8Y545D01*
X34Y545D02*
X40Y545D01*
X84Y545D02*
X90Y545D01*
X111Y545D02*
X117Y545D01*
X134Y545D02*
X141Y545D01*
X145Y545D02*
X156Y545D01*
X160Y545D02*
X167Y545D01*
X184Y545D02*
X190Y545D01*
X234Y545D02*
X240Y545D01*
X334Y545D02*
X341Y545D01*
X361Y545D02*
X367Y545D01*
X397Y545D02*
X403Y545D01*
X434Y545D02*
X440Y545D01*
X459Y545D02*
X467Y545D01*
X484Y545D02*
X491Y545D01*
X506Y545D02*
X517Y545D01*
X2355Y545D02*
X2362Y545D01*
X1Y544D02*
X8Y544D01*
X34Y544D02*
X40Y544D01*
X84Y544D02*
X90Y544D01*
X111Y544D02*
X117Y544D01*
X135Y544D02*
X141Y544D01*
X145Y544D02*
X156Y544D01*
X160Y544D02*
X166Y544D01*
X184Y544D02*
X190Y544D01*
X234Y544D02*
X240Y544D01*
X334Y544D02*
X342Y544D01*
X360Y544D02*
X367Y544D01*
X397Y544D02*
X403Y544D01*
X434Y544D02*
X440Y544D01*
X457Y544D02*
X467Y544D01*
X484Y544D02*
X492Y544D01*
X505Y544D02*
X517Y544D01*
X2355Y544D02*
X2362Y544D01*
X1Y543D02*
X8Y543D01*
X34Y543D02*
X40Y543D01*
X84Y543D02*
X90Y543D01*
X110Y543D02*
X117Y543D01*
X135Y543D02*
X141Y543D01*
X144Y543D02*
X157Y543D01*
X160Y543D02*
X166Y543D01*
X184Y543D02*
X190Y543D01*
X234Y543D02*
X240Y543D01*
X334Y543D02*
X343Y543D01*
X359Y543D02*
X367Y543D01*
X397Y543D02*
X403Y543D01*
X434Y543D02*
X441Y543D01*
X455Y543D02*
X467Y543D01*
X485Y543D02*
X493Y543D01*
X504Y543D02*
X517Y543D01*
X2355Y543D02*
X2362Y543D01*
X1Y542D02*
X8Y542D01*
X34Y542D02*
X40Y542D01*
X84Y542D02*
X91Y542D01*
X110Y542D02*
X117Y542D01*
X135Y542D02*
X141Y542D01*
X144Y542D02*
X157Y542D01*
X159Y542D02*
X166Y542D01*
X184Y542D02*
X191Y542D01*
X234Y542D02*
X240Y542D01*
X334Y542D02*
X344Y542D01*
X358Y542D02*
X366Y542D01*
X397Y542D02*
X403Y542D01*
X435Y542D02*
X441Y542D01*
X454Y542D02*
X467Y542D01*
X486Y542D02*
X517Y542D01*
X2355Y542D02*
X2362Y542D01*
X1Y541D02*
X8Y541D01*
X34Y541D02*
X40Y541D01*
X84Y541D02*
X92Y541D01*
X108Y541D02*
X116Y541D01*
X135Y541D02*
X165Y541D01*
X184Y541D02*
X192Y541D01*
X234Y541D02*
X240Y541D01*
X334Y541D02*
X345Y541D01*
X357Y541D02*
X366Y541D01*
X397Y541D02*
X403Y541D01*
X435Y541D02*
X441Y541D01*
X452Y541D02*
X467Y541D01*
X486Y541D02*
X517Y541D01*
X2355Y541D02*
X2362Y541D01*
X1Y540D02*
X8Y540D01*
X34Y540D02*
X40Y540D01*
X85Y540D02*
X94Y540D01*
X107Y540D02*
X116Y540D01*
X136Y540D02*
X165Y540D01*
X185Y540D02*
X194Y540D01*
X234Y540D02*
X240Y540D01*
X334Y540D02*
X346Y540D01*
X355Y540D02*
X365Y540D01*
X397Y540D02*
X403Y540D01*
X435Y540D02*
X442Y540D01*
X451Y540D02*
X467Y540D01*
X487Y540D02*
X517Y540D01*
X672Y540D02*
X681Y540D01*
X2355Y540D02*
X2362Y540D01*
X1Y539D02*
X8Y539D01*
X34Y539D02*
X40Y539D01*
X86Y539D02*
X115Y539D01*
X136Y539D02*
X149Y539D01*
X152Y539D02*
X165Y539D01*
X186Y539D02*
X215Y539D01*
X234Y539D02*
X240Y539D01*
X334Y539D02*
X347Y539D01*
X354Y539D02*
X364Y539D01*
X389Y539D02*
X412Y539D01*
X435Y539D02*
X467Y539D01*
X489Y539D02*
X509Y539D01*
X511Y539D02*
X517Y539D01*
X672Y539D02*
X681Y539D01*
X2355Y539D02*
X2362Y539D01*
X1Y538D02*
X8Y538D01*
X34Y538D02*
X40Y538D01*
X86Y538D02*
X114Y538D01*
X136Y538D02*
X148Y538D01*
X153Y538D02*
X165Y538D01*
X186Y538D02*
X217Y538D01*
X234Y538D02*
X240Y538D01*
X334Y538D02*
X349Y538D01*
X352Y538D02*
X363Y538D01*
X388Y538D02*
X413Y538D01*
X436Y538D02*
X467Y538D01*
X490Y538D02*
X508Y538D01*
X511Y538D02*
X517Y538D01*
X672Y538D02*
X681Y538D01*
X2355Y538D02*
X2362Y538D01*
X1Y537D02*
X8Y537D01*
X34Y537D02*
X40Y537D01*
X87Y537D02*
X113Y537D01*
X137Y537D02*
X148Y537D01*
X153Y537D02*
X164Y537D01*
X187Y537D02*
X217Y537D01*
X234Y537D02*
X240Y537D01*
X334Y537D02*
X362Y537D01*
X387Y537D02*
X414Y537D01*
X436Y537D02*
X458Y537D01*
X461Y537D02*
X467Y537D01*
X491Y537D02*
X506Y537D01*
X511Y537D02*
X517Y537D01*
X672Y537D02*
X681Y537D01*
X2355Y537D02*
X2362Y537D01*
X1Y536D02*
X8Y536D01*
X34Y536D02*
X40Y536D01*
X89Y536D02*
X112Y536D01*
X137Y536D02*
X147Y536D01*
X154Y536D02*
X164Y536D01*
X189Y536D02*
X217Y536D01*
X234Y536D02*
X240Y536D01*
X334Y536D02*
X361Y536D01*
X387Y536D02*
X414Y536D01*
X437Y536D02*
X456Y536D01*
X461Y536D02*
X467Y536D01*
X493Y536D02*
X504Y536D01*
X511Y536D02*
X517Y536D01*
X672Y536D02*
X681Y536D01*
X2355Y536D02*
X2362Y536D01*
X1Y535D02*
X8Y535D01*
X34Y535D02*
X40Y535D01*
X90Y535D02*
X111Y535D01*
X137Y535D02*
X147Y535D01*
X154Y535D02*
X164Y535D01*
X190Y535D02*
X217Y535D01*
X234Y535D02*
X240Y535D01*
X334Y535D02*
X340Y535D01*
X342Y535D02*
X359Y535D01*
X387Y535D02*
X414Y535D01*
X438Y535D02*
X455Y535D01*
X461Y535D02*
X467Y535D01*
X511Y535D02*
X517Y535D01*
X672Y535D02*
X681Y535D01*
X2355Y535D02*
X2362Y535D01*
X1Y534D02*
X8Y534D01*
X34Y534D02*
X39Y534D01*
X91Y534D02*
X110Y534D01*
X138Y534D02*
X146Y534D01*
X155Y534D02*
X163Y534D01*
X191Y534D02*
X217Y534D01*
X234Y534D02*
X239Y534D01*
X334Y534D02*
X340Y534D01*
X343Y534D02*
X358Y534D01*
X388Y534D02*
X413Y534D01*
X439Y534D02*
X453Y534D01*
X462Y534D02*
X467Y534D01*
X511Y534D02*
X517Y534D01*
X672Y534D02*
X681Y534D01*
X2355Y534D02*
X2362Y534D01*
X1Y533D02*
X8Y533D01*
X35Y533D02*
X38Y533D01*
X93Y533D02*
X108Y533D01*
X139Y533D02*
X145Y533D01*
X156Y533D02*
X162Y533D01*
X193Y533D02*
X216Y533D01*
X235Y533D02*
X238Y533D01*
X334Y533D02*
X340Y533D01*
X344Y533D02*
X357Y533D01*
X389Y533D02*
X412Y533D01*
X442Y533D02*
X451Y533D01*
X463Y533D02*
X465Y533D01*
X511Y533D02*
X517Y533D01*
X672Y533D02*
X681Y533D01*
X2355Y533D02*
X2362Y533D01*
X1Y532D02*
X8Y532D01*
X334Y532D02*
X340Y532D01*
X346Y532D02*
X355Y532D01*
X511Y532D02*
X517Y532D01*
X672Y532D02*
X681Y532D01*
X2355Y532D02*
X2362Y532D01*
X1Y531D02*
X8Y531D01*
X334Y531D02*
X340Y531D01*
X350Y531D02*
X351Y531D01*
X511Y531D02*
X517Y531D01*
X672Y531D02*
X681Y531D01*
X2355Y531D02*
X2362Y531D01*
X1Y530D02*
X8Y530D01*
X334Y530D02*
X340Y530D01*
X511Y530D02*
X517Y530D01*
X672Y530D02*
X681Y530D01*
X2355Y530D02*
X2362Y530D01*
X1Y529D02*
X8Y529D01*
X334Y529D02*
X340Y529D01*
X511Y529D02*
X517Y529D01*
X672Y529D02*
X681Y529D01*
X2355Y529D02*
X2362Y529D01*
X1Y528D02*
X8Y528D01*
X334Y528D02*
X340Y528D01*
X510Y528D02*
X517Y528D01*
X672Y528D02*
X681Y528D01*
X2355Y528D02*
X2362Y528D01*
X1Y527D02*
X8Y527D01*
X334Y527D02*
X340Y527D01*
X509Y527D02*
X517Y527D01*
X672Y527D02*
X681Y527D01*
X2355Y527D02*
X2362Y527D01*
X1Y526D02*
X8Y526D01*
X334Y526D02*
X340Y526D01*
X508Y526D02*
X516Y526D01*
X672Y526D02*
X681Y526D01*
X2355Y526D02*
X2362Y526D01*
X1Y525D02*
X8Y525D01*
X334Y525D02*
X340Y525D01*
X506Y525D02*
X516Y525D01*
X672Y525D02*
X681Y525D01*
X1918Y525D02*
X1920Y525D01*
X1966Y525D02*
X1998Y525D01*
X2018Y525D02*
X2034Y525D01*
X2068Y525D02*
X2086Y525D01*
X2355Y525D02*
X2362Y525D01*
X1Y524D02*
X8Y524D01*
X334Y524D02*
X340Y524D01*
X489Y524D02*
X515Y524D01*
X672Y524D02*
X681Y524D01*
X1917Y524D02*
X1921Y524D01*
X1966Y524D02*
X1999Y524D01*
X2017Y524D02*
X2037Y524D01*
X2067Y524D02*
X2086Y524D01*
X2355Y524D02*
X2362Y524D01*
X1Y523D02*
X8Y523D01*
X334Y523D02*
X340Y523D01*
X488Y523D02*
X514Y523D01*
X672Y523D02*
X681Y523D01*
X1916Y523D02*
X1922Y523D01*
X1966Y523D02*
X2000Y523D01*
X2016Y523D02*
X2038Y523D01*
X2066Y523D02*
X2086Y523D01*
X2355Y523D02*
X2362Y523D01*
X1Y522D02*
X8Y522D01*
X334Y522D02*
X340Y522D01*
X487Y522D02*
X513Y522D01*
X672Y522D02*
X681Y522D01*
X1916Y522D02*
X1922Y522D01*
X1966Y522D02*
X2000Y522D01*
X2016Y522D02*
X2039Y522D01*
X2066Y522D02*
X2086Y522D01*
X2355Y522D02*
X2362Y522D01*
X1Y521D02*
X8Y521D01*
X334Y521D02*
X340Y521D01*
X487Y521D02*
X512Y521D01*
X672Y521D02*
X681Y521D01*
X1916Y521D02*
X1922Y521D01*
X1966Y521D02*
X2000Y521D01*
X2016Y521D02*
X2040Y521D01*
X2066Y521D02*
X2086Y521D01*
X2355Y521D02*
X2362Y521D01*
X1Y520D02*
X8Y520D01*
X334Y520D02*
X339Y520D01*
X487Y520D02*
X511Y520D01*
X672Y520D02*
X681Y520D01*
X1916Y520D02*
X1922Y520D01*
X1966Y520D02*
X1999Y520D01*
X2017Y520D02*
X2041Y520D01*
X2067Y520D02*
X2086Y520D01*
X2355Y520D02*
X2362Y520D01*
X1Y519D02*
X8Y519D01*
X335Y519D02*
X339Y519D01*
X488Y519D02*
X509Y519D01*
X672Y519D02*
X681Y519D01*
X1916Y519D02*
X1922Y519D01*
X1966Y519D02*
X1998Y519D01*
X2018Y519D02*
X2041Y519D01*
X2068Y519D02*
X2086Y519D01*
X2355Y519D02*
X2362Y519D01*
X1Y518D02*
X8Y518D01*
X336Y518D02*
X337Y518D01*
X489Y518D02*
X507Y518D01*
X672Y518D02*
X681Y518D01*
X1916Y518D02*
X1922Y518D01*
X1966Y518D02*
X1972Y518D01*
X2023Y518D02*
X2029Y518D01*
X2034Y518D02*
X2042Y518D01*
X2080Y518D02*
X2086Y518D01*
X2355Y518D02*
X2362Y518D01*
X1Y517D02*
X8Y517D01*
X672Y517D02*
X681Y517D01*
X1916Y517D02*
X1922Y517D01*
X1966Y517D02*
X1972Y517D01*
X2023Y517D02*
X2029Y517D01*
X2035Y517D02*
X2042Y517D01*
X2080Y517D02*
X2086Y517D01*
X2355Y517D02*
X2362Y517D01*
X1Y516D02*
X8Y516D01*
X672Y516D02*
X681Y516D01*
X1916Y516D02*
X1922Y516D01*
X1966Y516D02*
X1972Y516D01*
X2023Y516D02*
X2029Y516D01*
X2036Y516D02*
X2043Y516D01*
X2080Y516D02*
X2086Y516D01*
X2355Y516D02*
X2362Y516D01*
X1Y515D02*
X8Y515D01*
X672Y515D02*
X681Y515D01*
X1916Y515D02*
X1922Y515D01*
X1966Y515D02*
X1972Y515D01*
X2023Y515D02*
X2029Y515D01*
X2036Y515D02*
X2043Y515D01*
X2080Y515D02*
X2086Y515D01*
X2355Y515D02*
X2362Y515D01*
X1Y514D02*
X8Y514D01*
X672Y514D02*
X681Y514D01*
X1916Y514D02*
X1922Y514D01*
X1966Y514D02*
X1972Y514D01*
X2023Y514D02*
X2029Y514D01*
X2037Y514D02*
X2044Y514D01*
X2080Y514D02*
X2086Y514D01*
X2355Y514D02*
X2362Y514D01*
X1Y513D02*
X8Y513D01*
X672Y513D02*
X681Y513D01*
X1916Y513D02*
X1922Y513D01*
X1966Y513D02*
X1972Y513D01*
X2023Y513D02*
X2029Y513D01*
X2037Y513D02*
X2044Y513D01*
X2080Y513D02*
X2086Y513D01*
X2355Y513D02*
X2362Y513D01*
X1Y512D02*
X8Y512D01*
X672Y512D02*
X681Y512D01*
X1916Y512D02*
X1922Y512D01*
X1966Y512D02*
X1972Y512D01*
X2023Y512D02*
X2029Y512D01*
X2038Y512D02*
X2045Y512D01*
X2080Y512D02*
X2086Y512D01*
X2355Y512D02*
X2362Y512D01*
X1Y511D02*
X8Y511D01*
X672Y511D02*
X681Y511D01*
X1916Y511D02*
X1922Y511D01*
X1966Y511D02*
X1972Y511D01*
X2023Y511D02*
X2029Y511D01*
X2038Y511D02*
X2045Y511D01*
X2080Y511D02*
X2086Y511D01*
X2355Y511D02*
X2362Y511D01*
X1Y510D02*
X8Y510D01*
X672Y510D02*
X681Y510D01*
X1916Y510D02*
X1922Y510D01*
X1966Y510D02*
X1972Y510D01*
X2023Y510D02*
X2029Y510D01*
X2039Y510D02*
X2046Y510D01*
X2080Y510D02*
X2086Y510D01*
X2355Y510D02*
X2362Y510D01*
X1Y509D02*
X8Y509D01*
X672Y509D02*
X681Y509D01*
X1916Y509D02*
X1922Y509D01*
X1966Y509D02*
X1972Y509D01*
X2023Y509D02*
X2029Y509D01*
X2039Y509D02*
X2046Y509D01*
X2080Y509D02*
X2086Y509D01*
X2355Y509D02*
X2362Y509D01*
X1Y508D02*
X8Y508D01*
X672Y508D02*
X681Y508D01*
X1916Y508D02*
X1922Y508D01*
X1966Y508D02*
X1972Y508D01*
X2023Y508D02*
X2029Y508D01*
X2040Y508D02*
X2047Y508D01*
X2080Y508D02*
X2086Y508D01*
X2355Y508D02*
X2362Y508D01*
X1Y507D02*
X8Y507D01*
X672Y507D02*
X681Y507D01*
X1916Y507D02*
X1922Y507D01*
X1966Y507D02*
X1972Y507D01*
X2023Y507D02*
X2029Y507D01*
X2040Y507D02*
X2047Y507D01*
X2080Y507D02*
X2086Y507D01*
X2355Y507D02*
X2362Y507D01*
X1Y506D02*
X8Y506D01*
X672Y506D02*
X681Y506D01*
X1916Y506D02*
X1922Y506D01*
X1966Y506D02*
X1972Y506D01*
X2023Y506D02*
X2029Y506D01*
X2041Y506D02*
X2048Y506D01*
X2080Y506D02*
X2086Y506D01*
X2355Y506D02*
X2362Y506D01*
X1Y505D02*
X481Y505D01*
X672Y505D02*
X681Y505D01*
X1916Y505D02*
X1922Y505D01*
X1966Y505D02*
X1972Y505D01*
X2023Y505D02*
X2029Y505D01*
X2041Y505D02*
X2048Y505D01*
X2080Y505D02*
X2086Y505D01*
X2355Y505D02*
X2362Y505D01*
X1Y504D02*
X481Y504D01*
X672Y504D02*
X681Y504D01*
X1916Y504D02*
X1922Y504D01*
X1966Y504D02*
X1972Y504D01*
X2023Y504D02*
X2029Y504D01*
X2042Y504D02*
X2049Y504D01*
X2080Y504D02*
X2086Y504D01*
X2355Y504D02*
X2362Y504D01*
X1Y503D02*
X481Y503D01*
X672Y503D02*
X681Y503D01*
X1916Y503D02*
X1922Y503D01*
X1966Y503D02*
X1972Y503D01*
X2023Y503D02*
X2029Y503D01*
X2042Y503D02*
X2049Y503D01*
X2080Y503D02*
X2086Y503D01*
X2355Y503D02*
X2362Y503D01*
X1Y502D02*
X481Y502D01*
X672Y502D02*
X681Y502D01*
X1916Y502D02*
X1922Y502D01*
X1966Y502D02*
X1973Y502D01*
X2023Y502D02*
X2029Y502D01*
X2043Y502D02*
X2049Y502D01*
X2080Y502D02*
X2086Y502D01*
X2355Y502D02*
X2362Y502D01*
X1Y501D02*
X481Y501D01*
X672Y501D02*
X681Y501D01*
X1916Y501D02*
X1922Y501D01*
X1966Y501D02*
X1985Y501D01*
X2023Y501D02*
X2029Y501D01*
X2043Y501D02*
X2050Y501D01*
X2080Y501D02*
X2086Y501D01*
X2355Y501D02*
X2362Y501D01*
X1Y500D02*
X481Y500D01*
X672Y500D02*
X681Y500D01*
X1916Y500D02*
X1922Y500D01*
X1966Y500D02*
X1985Y500D01*
X2023Y500D02*
X2029Y500D01*
X2044Y500D02*
X2050Y500D01*
X2080Y500D02*
X2086Y500D01*
X2355Y500D02*
X2362Y500D01*
X1Y499D02*
X481Y499D01*
X672Y499D02*
X681Y499D01*
X1916Y499D02*
X1922Y499D01*
X1966Y499D02*
X1986Y499D01*
X2023Y499D02*
X2029Y499D01*
X2044Y499D02*
X2050Y499D01*
X2080Y499D02*
X2086Y499D01*
X2355Y499D02*
X2362Y499D01*
X1Y498D02*
X481Y498D01*
X672Y498D02*
X681Y498D01*
X1916Y498D02*
X1922Y498D01*
X1966Y498D02*
X1986Y498D01*
X2023Y498D02*
X2029Y498D01*
X2044Y498D02*
X2050Y498D01*
X2080Y498D02*
X2086Y498D01*
X2132Y498D02*
X2141Y498D01*
X2355Y498D02*
X2362Y498D01*
X1Y497D02*
X481Y497D01*
X672Y497D02*
X681Y497D01*
X1916Y497D02*
X1922Y497D01*
X1966Y497D02*
X1986Y497D01*
X2023Y497D02*
X2029Y497D01*
X2044Y497D02*
X2050Y497D01*
X2080Y497D02*
X2086Y497D01*
X2132Y497D02*
X2141Y497D01*
X2355Y497D02*
X2362Y497D01*
X1Y496D02*
X481Y496D01*
X672Y496D02*
X681Y496D01*
X1916Y496D02*
X1922Y496D01*
X1966Y496D02*
X1985Y496D01*
X2023Y496D02*
X2029Y496D01*
X2043Y496D02*
X2050Y496D01*
X2080Y496D02*
X2086Y496D01*
X2132Y496D02*
X2141Y496D01*
X2355Y496D02*
X2362Y496D01*
X1Y495D02*
X8Y495D01*
X672Y495D02*
X681Y495D01*
X1916Y495D02*
X1922Y495D01*
X1966Y495D02*
X1983Y495D01*
X2023Y495D02*
X2029Y495D01*
X2043Y495D02*
X2049Y495D01*
X2080Y495D02*
X2086Y495D01*
X2095Y495D02*
X2099Y495D01*
X2132Y495D02*
X2141Y495D01*
X2355Y495D02*
X2362Y495D01*
X1Y494D02*
X8Y494D01*
X672Y494D02*
X681Y494D01*
X1916Y494D02*
X1922Y494D01*
X1966Y494D02*
X1972Y494D01*
X2023Y494D02*
X2029Y494D01*
X2043Y494D02*
X2049Y494D01*
X2080Y494D02*
X2086Y494D01*
X2094Y494D02*
X2099Y494D01*
X2132Y494D02*
X2141Y494D01*
X2355Y494D02*
X2362Y494D01*
X1Y493D02*
X8Y493D01*
X672Y493D02*
X681Y493D01*
X1916Y493D02*
X1922Y493D01*
X1966Y493D02*
X1972Y493D01*
X2023Y493D02*
X2029Y493D01*
X2042Y493D02*
X2049Y493D01*
X2080Y493D02*
X2086Y493D01*
X2094Y493D02*
X2100Y493D01*
X2132Y493D02*
X2141Y493D01*
X2355Y493D02*
X2362Y493D01*
X1Y492D02*
X8Y492D01*
X672Y492D02*
X681Y492D01*
X1916Y492D02*
X1922Y492D01*
X1966Y492D02*
X1972Y492D01*
X2023Y492D02*
X2029Y492D01*
X2042Y492D02*
X2048Y492D01*
X2080Y492D02*
X2086Y492D01*
X2094Y492D02*
X2100Y492D01*
X2132Y492D02*
X2141Y492D01*
X2355Y492D02*
X2362Y492D01*
X1Y491D02*
X8Y491D01*
X672Y491D02*
X681Y491D01*
X1916Y491D02*
X1922Y491D01*
X1966Y491D02*
X1972Y491D01*
X2023Y491D02*
X2029Y491D01*
X2041Y491D02*
X2048Y491D01*
X2080Y491D02*
X2086Y491D01*
X2094Y491D02*
X2100Y491D01*
X2132Y491D02*
X2141Y491D01*
X2355Y491D02*
X2362Y491D01*
X1Y490D02*
X8Y490D01*
X672Y490D02*
X681Y490D01*
X1916Y490D02*
X1922Y490D01*
X1966Y490D02*
X1972Y490D01*
X2023Y490D02*
X2029Y490D01*
X2041Y490D02*
X2047Y490D01*
X2080Y490D02*
X2086Y490D01*
X2094Y490D02*
X2100Y490D01*
X2132Y490D02*
X2141Y490D01*
X2355Y490D02*
X2362Y490D01*
X1Y489D02*
X8Y489D01*
X672Y489D02*
X681Y489D01*
X1916Y489D02*
X1922Y489D01*
X1966Y489D02*
X1972Y489D01*
X2023Y489D02*
X2029Y489D01*
X2040Y489D02*
X2047Y489D01*
X2080Y489D02*
X2086Y489D01*
X2094Y489D02*
X2100Y489D01*
X2132Y489D02*
X2141Y489D01*
X2355Y489D02*
X2362Y489D01*
X1Y488D02*
X8Y488D01*
X672Y488D02*
X681Y488D01*
X1916Y488D02*
X1922Y488D01*
X1966Y488D02*
X1972Y488D01*
X2023Y488D02*
X2029Y488D01*
X2040Y488D02*
X2046Y488D01*
X2080Y488D02*
X2086Y488D01*
X2094Y488D02*
X2100Y488D01*
X2132Y488D02*
X2141Y488D01*
X2355Y488D02*
X2362Y488D01*
X1Y487D02*
X8Y487D01*
X672Y487D02*
X681Y487D01*
X1916Y487D02*
X1922Y487D01*
X1966Y487D02*
X1972Y487D01*
X2023Y487D02*
X2029Y487D01*
X2039Y487D02*
X2046Y487D01*
X2080Y487D02*
X2086Y487D01*
X2094Y487D02*
X2100Y487D01*
X2132Y487D02*
X2141Y487D01*
X2355Y487D02*
X2362Y487D01*
X1Y486D02*
X8Y486D01*
X672Y486D02*
X681Y486D01*
X1916Y486D02*
X1922Y486D01*
X1966Y486D02*
X1972Y486D01*
X2023Y486D02*
X2029Y486D01*
X2039Y486D02*
X2045Y486D01*
X2080Y486D02*
X2086Y486D01*
X2094Y486D02*
X2100Y486D01*
X2132Y486D02*
X2141Y486D01*
X2355Y486D02*
X2362Y486D01*
X1Y485D02*
X8Y485D01*
X672Y485D02*
X681Y485D01*
X1916Y485D02*
X1922Y485D01*
X1966Y485D02*
X1972Y485D01*
X2023Y485D02*
X2029Y485D01*
X2038Y485D02*
X2045Y485D01*
X2080Y485D02*
X2086Y485D01*
X2094Y485D02*
X2100Y485D01*
X2132Y485D02*
X2141Y485D01*
X2355Y485D02*
X2362Y485D01*
X1Y484D02*
X8Y484D01*
X672Y484D02*
X681Y484D01*
X1916Y484D02*
X1922Y484D01*
X1966Y484D02*
X1972Y484D01*
X2023Y484D02*
X2029Y484D01*
X2038Y484D02*
X2044Y484D01*
X2080Y484D02*
X2086Y484D01*
X2094Y484D02*
X2100Y484D01*
X2132Y484D02*
X2141Y484D01*
X2355Y484D02*
X2362Y484D01*
X1Y483D02*
X8Y483D01*
X672Y483D02*
X681Y483D01*
X1916Y483D02*
X1922Y483D01*
X1966Y483D02*
X1972Y483D01*
X2023Y483D02*
X2029Y483D01*
X2037Y483D02*
X2044Y483D01*
X2080Y483D02*
X2086Y483D01*
X2094Y483D02*
X2100Y483D01*
X2132Y483D02*
X2141Y483D01*
X2355Y483D02*
X2362Y483D01*
X1Y482D02*
X8Y482D01*
X672Y482D02*
X681Y482D01*
X1916Y482D02*
X1922Y482D01*
X1966Y482D02*
X1972Y482D01*
X2023Y482D02*
X2029Y482D01*
X2037Y482D02*
X2043Y482D01*
X2080Y482D02*
X2086Y482D01*
X2094Y482D02*
X2100Y482D01*
X2132Y482D02*
X2141Y482D01*
X2355Y482D02*
X2362Y482D01*
X1Y481D02*
X8Y481D01*
X672Y481D02*
X681Y481D01*
X1916Y481D02*
X1922Y481D01*
X1966Y481D02*
X1972Y481D01*
X2023Y481D02*
X2029Y481D01*
X2036Y481D02*
X2043Y481D01*
X2080Y481D02*
X2086Y481D01*
X2094Y481D02*
X2100Y481D01*
X2132Y481D02*
X2141Y481D01*
X2355Y481D02*
X2362Y481D01*
X1Y480D02*
X8Y480D01*
X672Y480D02*
X681Y480D01*
X1916Y480D02*
X1922Y480D01*
X1966Y480D02*
X1972Y480D01*
X2023Y480D02*
X2029Y480D01*
X2035Y480D02*
X2042Y480D01*
X2080Y480D02*
X2086Y480D01*
X2094Y480D02*
X2100Y480D01*
X2132Y480D02*
X2141Y480D01*
X2355Y480D02*
X2362Y480D01*
X1Y479D02*
X8Y479D01*
X672Y479D02*
X681Y479D01*
X1916Y479D02*
X1922Y479D01*
X1966Y479D02*
X1972Y479D01*
X2023Y479D02*
X2029Y479D01*
X2035Y479D02*
X2042Y479D01*
X2080Y479D02*
X2086Y479D01*
X2094Y479D02*
X2100Y479D01*
X2132Y479D02*
X2141Y479D01*
X2355Y479D02*
X2362Y479D01*
X1Y478D02*
X8Y478D01*
X672Y478D02*
X681Y478D01*
X1916Y478D02*
X1948Y478D01*
X1966Y478D02*
X1998Y478D01*
X2018Y478D02*
X2042Y478D01*
X2068Y478D02*
X2100Y478D01*
X2132Y478D02*
X2141Y478D01*
X2355Y478D02*
X2362Y478D01*
X1Y477D02*
X8Y477D01*
X672Y477D02*
X681Y477D01*
X1916Y477D02*
X1949Y477D01*
X1966Y477D02*
X1999Y477D01*
X2017Y477D02*
X2041Y477D01*
X2067Y477D02*
X2100Y477D01*
X2132Y477D02*
X2141Y477D01*
X2355Y477D02*
X2362Y477D01*
X1Y476D02*
X8Y476D01*
X672Y476D02*
X681Y476D01*
X1916Y476D02*
X1950Y476D01*
X1966Y476D02*
X2000Y476D01*
X2016Y476D02*
X2040Y476D01*
X2066Y476D02*
X2100Y476D01*
X2132Y476D02*
X2141Y476D01*
X2355Y476D02*
X2362Y476D01*
X1Y475D02*
X8Y475D01*
X672Y475D02*
X681Y475D01*
X1916Y475D02*
X1950Y475D01*
X1966Y475D02*
X2000Y475D01*
X2016Y475D02*
X2030Y475D01*
X2066Y475D02*
X2100Y475D01*
X2132Y475D02*
X2141Y475D01*
X2355Y475D02*
X2362Y475D01*
X1Y474D02*
X8Y474D01*
X672Y474D02*
X681Y474D01*
X1916Y474D02*
X1950Y474D01*
X1966Y474D02*
X2000Y474D01*
X2016Y474D02*
X2026Y474D01*
X2066Y474D02*
X2100Y474D01*
X2132Y474D02*
X2141Y474D01*
X2355Y474D02*
X2362Y474D01*
X1Y473D02*
X8Y473D01*
X672Y473D02*
X681Y473D01*
X1916Y473D02*
X1949Y473D01*
X1966Y473D02*
X1999Y473D01*
X2017Y473D02*
X2023Y473D01*
X2067Y473D02*
X2099Y473D01*
X2132Y473D02*
X2141Y473D01*
X2355Y473D02*
X2362Y473D01*
X1Y472D02*
X8Y472D01*
X672Y472D02*
X681Y472D01*
X1916Y472D02*
X1948Y472D01*
X1966Y472D02*
X1998Y472D01*
X2018Y472D02*
X2021Y472D01*
X2068Y472D02*
X2098Y472D01*
X2132Y472D02*
X2141Y472D01*
X2355Y472D02*
X2362Y472D01*
X1Y471D02*
X8Y471D01*
X672Y471D02*
X681Y471D01*
X2132Y471D02*
X2141Y471D01*
X2355Y471D02*
X2362Y471D01*
X1Y470D02*
X8Y470D01*
X672Y470D02*
X681Y470D01*
X2132Y470D02*
X2141Y470D01*
X2355Y470D02*
X2362Y470D01*
X1Y469D02*
X8Y469D01*
X672Y469D02*
X681Y469D01*
X2132Y469D02*
X2141Y469D01*
X2355Y469D02*
X2362Y469D01*
X1Y468D02*
X8Y468D01*
X672Y468D02*
X681Y468D01*
X2132Y468D02*
X2141Y468D01*
X2355Y468D02*
X2362Y468D01*
X1Y467D02*
X8Y467D01*
X672Y467D02*
X681Y467D01*
X2132Y467D02*
X2141Y467D01*
X2355Y467D02*
X2362Y467D01*
X1Y466D02*
X8Y466D01*
X672Y466D02*
X681Y466D01*
X2132Y466D02*
X2141Y466D01*
X2355Y466D02*
X2362Y466D01*
X1Y465D02*
X8Y465D01*
X672Y465D02*
X681Y465D01*
X2132Y465D02*
X2141Y465D01*
X2355Y465D02*
X2362Y465D01*
X1Y464D02*
X8Y464D01*
X672Y464D02*
X681Y464D01*
X2132Y464D02*
X2141Y464D01*
X2355Y464D02*
X2362Y464D01*
X1Y463D02*
X8Y463D01*
X672Y463D02*
X681Y463D01*
X2132Y463D02*
X2141Y463D01*
X2355Y463D02*
X2362Y463D01*
X1Y462D02*
X8Y462D01*
X672Y462D02*
X681Y462D01*
X2132Y462D02*
X2141Y462D01*
X2355Y462D02*
X2362Y462D01*
X1Y461D02*
X8Y461D01*
X672Y461D02*
X681Y461D01*
X2132Y461D02*
X2141Y461D01*
X2355Y461D02*
X2362Y461D01*
X1Y460D02*
X8Y460D01*
X672Y460D02*
X681Y460D01*
X2132Y460D02*
X2141Y460D01*
X2355Y460D02*
X2362Y460D01*
X1Y459D02*
X8Y459D01*
X672Y459D02*
X681Y459D01*
X2132Y459D02*
X2141Y459D01*
X2355Y459D02*
X2362Y459D01*
X1Y458D02*
X8Y458D01*
X673Y458D02*
X681Y458D01*
X2132Y458D02*
X2141Y458D01*
X2355Y458D02*
X2362Y458D01*
X1Y457D02*
X8Y457D01*
X673Y457D02*
X681Y457D01*
X1989Y457D02*
X2004Y457D01*
X2068Y457D02*
X2084Y457D01*
X2132Y457D02*
X2141Y457D01*
X2355Y457D02*
X2362Y457D01*
X1Y456D02*
X8Y456D01*
X674Y456D02*
X681Y456D01*
X1988Y456D02*
X2004Y456D01*
X2069Y456D02*
X2085Y456D01*
X2132Y456D02*
X2141Y456D01*
X2355Y456D02*
X2362Y456D01*
X1Y455D02*
X8Y455D01*
X674Y455D02*
X681Y455D01*
X1986Y455D02*
X2003Y455D01*
X2069Y455D02*
X2086Y455D01*
X2132Y455D02*
X2141Y455D01*
X2355Y455D02*
X2362Y455D01*
X1Y454D02*
X8Y454D01*
X675Y454D02*
X681Y454D01*
X1985Y454D02*
X2003Y454D01*
X2070Y454D02*
X2087Y454D01*
X2132Y454D02*
X2141Y454D01*
X2355Y454D02*
X2362Y454D01*
X1Y453D02*
X8Y453D01*
X675Y453D02*
X681Y453D01*
X1984Y453D02*
X2002Y453D01*
X2070Y453D02*
X2089Y453D01*
X2132Y453D02*
X2141Y453D01*
X2355Y453D02*
X2362Y453D01*
X1Y452D02*
X8Y452D01*
X675Y452D02*
X681Y452D01*
X1983Y452D02*
X1990Y452D01*
X2083Y452D02*
X2090Y452D01*
X2132Y452D02*
X2141Y452D01*
X2355Y452D02*
X2362Y452D01*
X1Y451D02*
X8Y451D01*
X675Y451D02*
X681Y451D01*
X1982Y451D02*
X1988Y451D01*
X2084Y451D02*
X2091Y451D01*
X2132Y451D02*
X2141Y451D01*
X2355Y451D02*
X2362Y451D01*
X1Y450D02*
X8Y450D01*
X676Y450D02*
X681Y450D01*
X1981Y450D02*
X1987Y450D01*
X2085Y450D02*
X2092Y450D01*
X2355Y450D02*
X2362Y450D01*
X1Y449D02*
X8Y449D01*
X676Y449D02*
X681Y449D01*
X1980Y449D02*
X1986Y449D01*
X2086Y449D02*
X2093Y449D01*
X2355Y449D02*
X2362Y449D01*
X1Y448D02*
X8Y448D01*
X676Y448D02*
X681Y448D01*
X1979Y448D02*
X1985Y448D01*
X2088Y448D02*
X2094Y448D01*
X2355Y448D02*
X2362Y448D01*
X1Y447D02*
X8Y447D01*
X676Y447D02*
X681Y447D01*
X1978Y447D02*
X1984Y447D01*
X2089Y447D02*
X2095Y447D01*
X2355Y447D02*
X2362Y447D01*
X1Y446D02*
X8Y446D01*
X676Y446D02*
X681Y446D01*
X1977Y446D02*
X1983Y446D01*
X2089Y446D02*
X2096Y446D01*
X2355Y446D02*
X2362Y446D01*
X1Y445D02*
X8Y445D01*
X677Y445D02*
X681Y445D01*
X1976Y445D02*
X1982Y445D01*
X2090Y445D02*
X2096Y445D01*
X2355Y445D02*
X2362Y445D01*
X1Y444D02*
X8Y444D01*
X677Y444D02*
X681Y444D01*
X1975Y444D02*
X1981Y444D01*
X2091Y444D02*
X2097Y444D01*
X2355Y444D02*
X2362Y444D01*
X1Y443D02*
X8Y443D01*
X677Y443D02*
X681Y443D01*
X1975Y443D02*
X1980Y443D01*
X2092Y443D02*
X2098Y443D01*
X2355Y443D02*
X2362Y443D01*
X1Y442D02*
X8Y442D01*
X677Y442D02*
X681Y442D01*
X1974Y442D02*
X1979Y442D01*
X2093Y442D02*
X2099Y442D01*
X2355Y442D02*
X2362Y442D01*
X1Y441D02*
X8Y441D01*
X677Y441D02*
X681Y441D01*
X1973Y441D02*
X1978Y441D01*
X2094Y441D02*
X2099Y441D01*
X2355Y441D02*
X2362Y441D01*
X1Y440D02*
X8Y440D01*
X677Y440D02*
X681Y440D01*
X1972Y440D02*
X1978Y440D01*
X2095Y440D02*
X2100Y440D01*
X2355Y440D02*
X2362Y440D01*
X1Y439D02*
X8Y439D01*
X677Y439D02*
X681Y439D01*
X1972Y439D02*
X1977Y439D01*
X2096Y439D02*
X2101Y439D01*
X2355Y439D02*
X2362Y439D01*
X1Y438D02*
X8Y438D01*
X677Y438D02*
X681Y438D01*
X1971Y438D02*
X1976Y438D01*
X2096Y438D02*
X2102Y438D01*
X2355Y438D02*
X2362Y438D01*
X1Y437D02*
X8Y437D01*
X677Y437D02*
X681Y437D01*
X1970Y437D02*
X1975Y437D01*
X2097Y437D02*
X2102Y437D01*
X2355Y437D02*
X2362Y437D01*
X1Y436D02*
X8Y436D01*
X676Y436D02*
X681Y436D01*
X1970Y436D02*
X1975Y436D01*
X2098Y436D02*
X2103Y436D01*
X2355Y436D02*
X2362Y436D01*
X1Y435D02*
X8Y435D01*
X676Y435D02*
X681Y435D01*
X1969Y435D02*
X1974Y435D01*
X2099Y435D02*
X2103Y435D01*
X2355Y435D02*
X2362Y435D01*
X1Y434D02*
X8Y434D01*
X676Y434D02*
X681Y434D01*
X1968Y434D02*
X1973Y434D01*
X2099Y434D02*
X2104Y434D01*
X2355Y434D02*
X2362Y434D01*
X1Y433D02*
X8Y433D01*
X676Y433D02*
X681Y433D01*
X1968Y433D02*
X1973Y433D01*
X2100Y433D02*
X2105Y433D01*
X2355Y433D02*
X2362Y433D01*
X1Y432D02*
X8Y432D01*
X676Y432D02*
X681Y432D01*
X1967Y432D02*
X1972Y432D01*
X2101Y432D02*
X2105Y432D01*
X2355Y432D02*
X2362Y432D01*
X1Y431D02*
X8Y431D01*
X676Y431D02*
X681Y431D01*
X1967Y431D02*
X1972Y431D01*
X2101Y431D02*
X2106Y431D01*
X2355Y431D02*
X2362Y431D01*
X1Y430D02*
X8Y430D01*
X675Y430D02*
X681Y430D01*
X1966Y430D02*
X1971Y430D01*
X2102Y430D02*
X2106Y430D01*
X2355Y430D02*
X2362Y430D01*
X1Y429D02*
X8Y429D01*
X675Y429D02*
X681Y429D01*
X1966Y429D02*
X1970Y429D01*
X2102Y429D02*
X2107Y429D01*
X2355Y429D02*
X2362Y429D01*
X1Y428D02*
X8Y428D01*
X675Y428D02*
X681Y428D01*
X1965Y428D02*
X1970Y428D01*
X2103Y428D02*
X2107Y428D01*
X2355Y428D02*
X2362Y428D01*
X1Y427D02*
X8Y427D01*
X674Y427D02*
X681Y427D01*
X1965Y427D02*
X1969Y427D01*
X2103Y427D02*
X2108Y427D01*
X2355Y427D02*
X2362Y427D01*
X1Y426D02*
X8Y426D01*
X674Y426D02*
X681Y426D01*
X1964Y426D02*
X1969Y426D01*
X2104Y426D02*
X2108Y426D01*
X2355Y426D02*
X2362Y426D01*
X1Y425D02*
X8Y425D01*
X674Y425D02*
X681Y425D01*
X1964Y425D02*
X1968Y425D01*
X2104Y425D02*
X2109Y425D01*
X2355Y425D02*
X2362Y425D01*
X1Y424D02*
X8Y424D01*
X673Y424D02*
X681Y424D01*
X1963Y424D02*
X1968Y424D01*
X2105Y424D02*
X2109Y424D01*
X2355Y424D02*
X2362Y424D01*
X1Y423D02*
X8Y423D01*
X673Y423D02*
X681Y423D01*
X1963Y423D02*
X1968Y423D01*
X2105Y423D02*
X2109Y423D01*
X2355Y423D02*
X2362Y423D01*
X1Y422D02*
X8Y422D01*
X672Y422D02*
X681Y422D01*
X1963Y422D02*
X1967Y422D01*
X2106Y422D02*
X2110Y422D01*
X2355Y422D02*
X2362Y422D01*
X1Y421D02*
X8Y421D01*
X523Y421D02*
X541Y421D01*
X560Y421D02*
X589Y421D01*
X672Y421D02*
X681Y421D01*
X1962Y421D02*
X1967Y421D01*
X2106Y421D02*
X2110Y421D01*
X2355Y421D02*
X2362Y421D01*
X1Y420D02*
X8Y420D01*
X521Y420D02*
X542Y420D01*
X559Y420D02*
X590Y420D01*
X672Y420D02*
X681Y420D01*
X1962Y420D02*
X1966Y420D01*
X2106Y420D02*
X2111Y420D01*
X2355Y420D02*
X2362Y420D01*
X1Y419D02*
X8Y419D01*
X520Y419D02*
X542Y419D01*
X559Y419D02*
X591Y419D01*
X672Y419D02*
X681Y419D01*
X1962Y419D02*
X1966Y419D01*
X2107Y419D02*
X2111Y419D01*
X2355Y419D02*
X2362Y419D01*
X1Y418D02*
X8Y418D01*
X519Y418D02*
X542Y418D01*
X559Y418D02*
X592Y418D01*
X672Y418D02*
X681Y418D01*
X1961Y418D02*
X1966Y418D01*
X2107Y418D02*
X2111Y418D01*
X2355Y418D02*
X2362Y418D01*
X1Y417D02*
X8Y417D01*
X518Y417D02*
X542Y417D01*
X559Y417D02*
X592Y417D01*
X672Y417D02*
X681Y417D01*
X1961Y417D02*
X1965Y417D01*
X2107Y417D02*
X2111Y417D01*
X2355Y417D02*
X2362Y417D01*
X1Y416D02*
X8Y416D01*
X517Y416D02*
X541Y416D01*
X560Y416D02*
X592Y416D01*
X672Y416D02*
X681Y416D01*
X1961Y416D02*
X1965Y416D01*
X2108Y416D02*
X2112Y416D01*
X2355Y416D02*
X2362Y416D01*
X1Y415D02*
X8Y415D01*
X517Y415D02*
X539Y415D01*
X562Y415D02*
X592Y415D01*
X672Y415D02*
X681Y415D01*
X1960Y415D02*
X1965Y415D01*
X2108Y415D02*
X2112Y415D01*
X2355Y415D02*
X2362Y415D01*
X1Y414D02*
X8Y414D01*
X516Y414D02*
X524Y414D01*
X586Y414D02*
X592Y414D01*
X672Y414D02*
X681Y414D01*
X1960Y414D02*
X1964Y414D01*
X2108Y414D02*
X2112Y414D01*
X2355Y414D02*
X2362Y414D01*
X1Y413D02*
X8Y413D01*
X516Y413D02*
X523Y413D01*
X586Y413D02*
X592Y413D01*
X672Y413D02*
X681Y413D01*
X1960Y413D02*
X1964Y413D01*
X2109Y413D02*
X2113Y413D01*
X2355Y413D02*
X2362Y413D01*
X1Y412D02*
X8Y412D01*
X515Y412D02*
X522Y412D01*
X586Y412D02*
X592Y412D01*
X672Y412D02*
X681Y412D01*
X1960Y412D02*
X1964Y412D01*
X2109Y412D02*
X2113Y412D01*
X2355Y412D02*
X2362Y412D01*
X1Y411D02*
X8Y411D01*
X515Y411D02*
X522Y411D01*
X586Y411D02*
X592Y411D01*
X663Y411D02*
X663Y411D01*
X672Y411D02*
X681Y411D01*
X1959Y411D02*
X1963Y411D01*
X2109Y411D02*
X2113Y411D01*
X2355Y411D02*
X2362Y411D01*
X1Y410D02*
X8Y410D01*
X514Y410D02*
X521Y410D01*
X586Y410D02*
X592Y410D01*
X609Y410D02*
X611Y410D01*
X662Y410D02*
X664Y410D01*
X672Y410D02*
X681Y410D01*
X1959Y410D02*
X1963Y410D01*
X2109Y410D02*
X2113Y410D01*
X2355Y410D02*
X2362Y410D01*
X1Y409D02*
X8Y409D01*
X514Y409D02*
X521Y409D01*
X586Y409D02*
X592Y409D01*
X608Y409D02*
X612Y409D01*
X661Y409D02*
X664Y409D01*
X672Y409D02*
X681Y409D01*
X1959Y409D02*
X1963Y409D01*
X2110Y409D02*
X2113Y409D01*
X2355Y409D02*
X2362Y409D01*
X1Y408D02*
X8Y408D01*
X513Y408D02*
X520Y408D01*
X586Y408D02*
X592Y408D01*
X608Y408D02*
X613Y408D01*
X659Y408D02*
X665Y408D01*
X672Y408D02*
X681Y408D01*
X1959Y408D02*
X1963Y408D01*
X2110Y408D02*
X2114Y408D01*
X2355Y408D02*
X2362Y408D01*
X1Y407D02*
X8Y407D01*
X513Y407D02*
X520Y407D01*
X586Y407D02*
X592Y407D01*
X607Y407D02*
X615Y407D01*
X658Y407D02*
X666Y407D01*
X672Y407D02*
X681Y407D01*
X1959Y407D02*
X1963Y407D01*
X2110Y407D02*
X2114Y407D01*
X2355Y407D02*
X2362Y407D01*
X1Y406D02*
X8Y406D01*
X512Y406D02*
X519Y406D01*
X586Y406D02*
X592Y406D01*
X607Y406D02*
X615Y406D01*
X658Y406D02*
X666Y406D01*
X672Y406D02*
X681Y406D01*
X1958Y406D02*
X1962Y406D01*
X2110Y406D02*
X2114Y406D01*
X2355Y406D02*
X2362Y406D01*
X1Y405D02*
X8Y405D01*
X512Y405D02*
X519Y405D01*
X586Y405D02*
X592Y405D01*
X606Y405D02*
X614Y405D01*
X659Y405D02*
X667Y405D01*
X672Y405D02*
X681Y405D01*
X1958Y405D02*
X1962Y405D01*
X2110Y405D02*
X2114Y405D01*
X2355Y405D02*
X2362Y405D01*
X1Y404D02*
X8Y404D01*
X511Y404D02*
X518Y404D01*
X586Y404D02*
X592Y404D01*
X606Y404D02*
X614Y404D01*
X659Y404D02*
X667Y404D01*
X672Y404D02*
X681Y404D01*
X1958Y404D02*
X1962Y404D01*
X2110Y404D02*
X2114Y404D01*
X2355Y404D02*
X2362Y404D01*
X1Y403D02*
X8Y403D01*
X511Y403D02*
X518Y403D01*
X586Y403D02*
X592Y403D01*
X605Y403D02*
X613Y403D01*
X660Y403D02*
X667Y403D01*
X672Y403D02*
X681Y403D01*
X1958Y403D02*
X1962Y403D01*
X2111Y403D02*
X2114Y403D01*
X2355Y403D02*
X2362Y403D01*
X1Y402D02*
X8Y402D01*
X510Y402D02*
X517Y402D01*
X586Y402D02*
X592Y402D01*
X605Y402D02*
X612Y402D01*
X660Y402D02*
X668Y402D01*
X672Y402D02*
X681Y402D01*
X1958Y402D02*
X1962Y402D01*
X2111Y402D02*
X2114Y402D01*
X2355Y402D02*
X2362Y402D01*
X1Y401D02*
X8Y401D01*
X510Y401D02*
X517Y401D01*
X586Y401D02*
X592Y401D01*
X605Y401D02*
X612Y401D01*
X661Y401D02*
X668Y401D01*
X672Y401D02*
X681Y401D01*
X1958Y401D02*
X1962Y401D01*
X2111Y401D02*
X2115Y401D01*
X2355Y401D02*
X2362Y401D01*
X1Y400D02*
X8Y400D01*
X510Y400D02*
X516Y400D01*
X586Y400D02*
X592Y400D01*
X604Y400D02*
X612Y400D01*
X661Y400D02*
X668Y400D01*
X672Y400D02*
X681Y400D01*
X1958Y400D02*
X1962Y400D01*
X2111Y400D02*
X2115Y400D01*
X2355Y400D02*
X2362Y400D01*
X1Y399D02*
X8Y399D01*
X509Y399D02*
X516Y399D01*
X586Y399D02*
X592Y399D01*
X604Y399D02*
X611Y399D01*
X662Y399D02*
X669Y399D01*
X672Y399D02*
X681Y399D01*
X1958Y399D02*
X1962Y399D01*
X2111Y399D02*
X2115Y399D01*
X2355Y399D02*
X2362Y399D01*
X1Y398D02*
X8Y398D01*
X509Y398D02*
X515Y398D01*
X564Y398D02*
X592Y398D01*
X604Y398D02*
X611Y398D01*
X662Y398D02*
X669Y398D01*
X672Y398D02*
X681Y398D01*
X1958Y398D02*
X1961Y398D01*
X2111Y398D02*
X2115Y398D01*
X2355Y398D02*
X2362Y398D01*
X1Y397D02*
X8Y397D01*
X509Y397D02*
X515Y397D01*
X562Y397D02*
X592Y397D01*
X604Y397D02*
X611Y397D01*
X662Y397D02*
X669Y397D01*
X672Y397D02*
X681Y397D01*
X1958Y397D02*
X1961Y397D01*
X2111Y397D02*
X2115Y397D01*
X2355Y397D02*
X2362Y397D01*
X1Y396D02*
X8Y396D01*
X509Y396D02*
X515Y396D01*
X561Y396D02*
X592Y396D01*
X603Y396D02*
X610Y396D01*
X663Y396D02*
X669Y396D01*
X672Y396D02*
X681Y396D01*
X1958Y396D02*
X1961Y396D01*
X2111Y396D02*
X2115Y396D01*
X2355Y396D02*
X2362Y396D01*
X1Y395D02*
X8Y395D01*
X509Y395D02*
X515Y395D01*
X560Y395D02*
X591Y395D01*
X603Y395D02*
X610Y395D01*
X663Y395D02*
X669Y395D01*
X672Y395D02*
X681Y395D01*
X1124Y395D02*
X1149Y395D01*
X1958Y395D02*
X1961Y395D01*
X2111Y395D02*
X2115Y395D01*
X2355Y395D02*
X2362Y395D01*
X1Y394D02*
X8Y394D01*
X509Y394D02*
X515Y394D01*
X559Y394D02*
X591Y394D01*
X603Y394D02*
X610Y394D01*
X663Y394D02*
X670Y394D01*
X672Y394D02*
X681Y394D01*
X1118Y394D02*
X1155Y394D01*
X1958Y394D02*
X1961Y394D01*
X2111Y394D02*
X2115Y394D01*
X2355Y394D02*
X2362Y394D01*
X1Y393D02*
X8Y393D01*
X509Y393D02*
X515Y393D01*
X559Y393D02*
X590Y393D01*
X603Y393D02*
X610Y393D01*
X663Y393D02*
X670Y393D01*
X672Y393D02*
X681Y393D01*
X1113Y393D02*
X1160Y393D01*
X1958Y393D02*
X1961Y393D01*
X2111Y393D02*
X2115Y393D01*
X2355Y393D02*
X2362Y393D01*
X1Y392D02*
X8Y392D01*
X509Y392D02*
X515Y392D01*
X559Y392D02*
X588Y392D01*
X603Y392D02*
X610Y392D01*
X663Y392D02*
X670Y392D01*
X672Y392D02*
X681Y392D01*
X1109Y392D02*
X1164Y392D01*
X1958Y392D02*
X1961Y392D01*
X2111Y392D02*
X2115Y392D01*
X2355Y392D02*
X2362Y392D01*
X1Y391D02*
X8Y391D01*
X509Y391D02*
X516Y391D01*
X559Y391D02*
X565Y391D01*
X603Y391D02*
X610Y391D01*
X663Y391D02*
X670Y391D01*
X672Y391D02*
X681Y391D01*
X1106Y391D02*
X1167Y391D01*
X1958Y391D02*
X1961Y391D01*
X2111Y391D02*
X2115Y391D01*
X2355Y391D02*
X2362Y391D01*
X1Y390D02*
X8Y390D01*
X510Y390D02*
X516Y390D01*
X559Y390D02*
X565Y390D01*
X603Y390D02*
X610Y390D01*
X663Y390D02*
X670Y390D01*
X672Y390D02*
X681Y390D01*
X1103Y390D02*
X1170Y390D01*
X1958Y390D02*
X1961Y390D01*
X2111Y390D02*
X2115Y390D01*
X2355Y390D02*
X2362Y390D01*
X1Y389D02*
X8Y389D01*
X510Y389D02*
X517Y389D01*
X559Y389D02*
X565Y389D01*
X603Y389D02*
X610Y389D01*
X663Y389D02*
X670Y389D01*
X672Y389D02*
X681Y389D01*
X1100Y389D02*
X1173Y389D01*
X1958Y389D02*
X1962Y389D01*
X2111Y389D02*
X2115Y389D01*
X2355Y389D02*
X2362Y389D01*
X1Y388D02*
X8Y388D01*
X510Y388D02*
X517Y388D01*
X559Y388D02*
X565Y388D01*
X603Y388D02*
X610Y388D01*
X663Y388D02*
X670Y388D01*
X672Y388D02*
X681Y388D01*
X1097Y388D02*
X1175Y388D01*
X1958Y388D02*
X1962Y388D01*
X2111Y388D02*
X2115Y388D01*
X2355Y388D02*
X2362Y388D01*
X1Y387D02*
X8Y387D01*
X511Y387D02*
X518Y387D01*
X559Y387D02*
X565Y387D01*
X603Y387D02*
X610Y387D01*
X663Y387D02*
X669Y387D01*
X672Y387D02*
X681Y387D01*
X1095Y387D02*
X1178Y387D01*
X1958Y387D02*
X1962Y387D01*
X2111Y387D02*
X2115Y387D01*
X2355Y387D02*
X2362Y387D01*
X1Y386D02*
X8Y386D01*
X511Y386D02*
X518Y386D01*
X559Y386D02*
X565Y386D01*
X603Y386D02*
X610Y386D01*
X663Y386D02*
X669Y386D01*
X672Y386D02*
X681Y386D01*
X1093Y386D02*
X1180Y386D01*
X1958Y386D02*
X1962Y386D01*
X2111Y386D02*
X2114Y386D01*
X2355Y386D02*
X2362Y386D01*
X1Y385D02*
X8Y385D01*
X512Y385D02*
X519Y385D01*
X559Y385D02*
X565Y385D01*
X604Y385D02*
X611Y385D01*
X662Y385D02*
X669Y385D01*
X672Y385D02*
X681Y385D01*
X1091Y385D02*
X1123Y385D01*
X1149Y385D02*
X1182Y385D01*
X1958Y385D02*
X1962Y385D01*
X2111Y385D02*
X2114Y385D01*
X2355Y385D02*
X2362Y385D01*
X1Y384D02*
X8Y384D01*
X512Y384D02*
X519Y384D01*
X559Y384D02*
X565Y384D01*
X604Y384D02*
X611Y384D01*
X662Y384D02*
X669Y384D01*
X672Y384D02*
X681Y384D01*
X1089Y384D02*
X1117Y384D01*
X1156Y384D02*
X1184Y384D01*
X1958Y384D02*
X1962Y384D01*
X2110Y384D02*
X2114Y384D01*
X2355Y384D02*
X2362Y384D01*
X1Y383D02*
X8Y383D01*
X513Y383D02*
X520Y383D01*
X559Y383D02*
X565Y383D01*
X604Y383D02*
X611Y383D01*
X662Y383D02*
X669Y383D01*
X672Y383D02*
X681Y383D01*
X1087Y383D02*
X1093Y383D01*
X1179Y383D02*
X1186Y383D01*
X1958Y383D02*
X1962Y383D01*
X2110Y383D02*
X2114Y383D01*
X2355Y383D02*
X2362Y383D01*
X1Y382D02*
X8Y382D01*
X513Y382D02*
X520Y382D01*
X559Y382D02*
X565Y382D01*
X604Y382D02*
X611Y382D01*
X661Y382D02*
X668Y382D01*
X672Y382D02*
X681Y382D01*
X1085Y382D02*
X1093Y382D01*
X1179Y382D02*
X1188Y382D01*
X1959Y382D02*
X1962Y382D01*
X2110Y382D02*
X2114Y382D01*
X2355Y382D02*
X2362Y382D01*
X1Y381D02*
X8Y381D01*
X514Y381D02*
X521Y381D01*
X559Y381D02*
X565Y381D01*
X605Y381D02*
X612Y381D01*
X661Y381D02*
X668Y381D01*
X672Y381D02*
X681Y381D01*
X1083Y381D02*
X1093Y381D01*
X1179Y381D02*
X1189Y381D01*
X1959Y381D02*
X1963Y381D01*
X2110Y381D02*
X2114Y381D01*
X2355Y381D02*
X2362Y381D01*
X1Y380D02*
X8Y380D01*
X514Y380D02*
X521Y380D01*
X559Y380D02*
X565Y380D01*
X605Y380D02*
X612Y380D01*
X660Y380D02*
X668Y380D01*
X672Y380D02*
X681Y380D01*
X1082Y380D02*
X1093Y380D01*
X1179Y380D02*
X1191Y380D01*
X1959Y380D02*
X1963Y380D01*
X2110Y380D02*
X2114Y380D01*
X2355Y380D02*
X2362Y380D01*
X1Y379D02*
X8Y379D01*
X515Y379D02*
X522Y379D01*
X559Y379D02*
X565Y379D01*
X605Y379D02*
X613Y379D01*
X660Y379D02*
X667Y379D01*
X672Y379D02*
X681Y379D01*
X1080Y379D02*
X1093Y379D01*
X1179Y379D02*
X1193Y379D01*
X1959Y379D02*
X1963Y379D01*
X2110Y379D02*
X2114Y379D01*
X2355Y379D02*
X2362Y379D01*
X1Y378D02*
X8Y378D01*
X515Y378D02*
X522Y378D01*
X559Y378D02*
X565Y378D01*
X606Y378D02*
X614Y378D01*
X659Y378D02*
X667Y378D01*
X672Y378D02*
X681Y378D01*
X1078Y378D02*
X1093Y378D01*
X1179Y378D02*
X1194Y378D01*
X1959Y378D02*
X1963Y378D01*
X2109Y378D02*
X2113Y378D01*
X2355Y378D02*
X2362Y378D01*
X1Y377D02*
X8Y377D01*
X516Y377D02*
X523Y377D01*
X559Y377D02*
X565Y377D01*
X606Y377D02*
X614Y377D01*
X659Y377D02*
X667Y377D01*
X672Y377D02*
X681Y377D01*
X1077Y377D02*
X1093Y377D01*
X1179Y377D02*
X1196Y377D01*
X1959Y377D02*
X1963Y377D01*
X2109Y377D02*
X2113Y377D01*
X2355Y377D02*
X2362Y377D01*
X1Y376D02*
X8Y376D01*
X517Y376D02*
X523Y376D01*
X559Y376D02*
X565Y376D01*
X607Y376D02*
X615Y376D01*
X658Y376D02*
X666Y376D01*
X672Y376D02*
X681Y376D01*
X1076Y376D02*
X1093Y376D01*
X1179Y376D02*
X1197Y376D01*
X1960Y376D02*
X1964Y376D01*
X2109Y376D02*
X2113Y376D01*
X2355Y376D02*
X2362Y376D01*
X1Y375D02*
X8Y375D01*
X517Y375D02*
X525Y375D01*
X559Y375D02*
X565Y375D01*
X607Y375D02*
X615Y375D01*
X658Y375D02*
X666Y375D01*
X672Y375D02*
X681Y375D01*
X1074Y375D02*
X1092Y375D01*
X1181Y375D02*
X1198Y375D01*
X1960Y375D02*
X1964Y375D01*
X2109Y375D02*
X2113Y375D01*
X2355Y375D02*
X2362Y375D01*
X1Y374D02*
X8Y374D01*
X518Y374D02*
X541Y374D01*
X559Y374D02*
X591Y374D01*
X608Y374D02*
X614Y374D01*
X659Y374D02*
X665Y374D01*
X672Y374D02*
X681Y374D01*
X1073Y374D02*
X1090Y374D01*
X1183Y374D02*
X1200Y374D01*
X1960Y374D02*
X1964Y374D01*
X2108Y374D02*
X2112Y374D01*
X2355Y374D02*
X2362Y374D01*
X1Y373D02*
X8Y373D01*
X519Y373D02*
X542Y373D01*
X559Y373D02*
X592Y373D01*
X608Y373D02*
X612Y373D01*
X661Y373D02*
X664Y373D01*
X672Y373D02*
X681Y373D01*
X1072Y373D02*
X1088Y373D01*
X1185Y373D02*
X1201Y373D01*
X1960Y373D02*
X1964Y373D01*
X2108Y373D02*
X2112Y373D01*
X2190Y373D02*
X2216Y373D01*
X2242Y373D02*
X2260Y373D01*
X2355Y373D02*
X2362Y373D01*
X1Y372D02*
X8Y372D01*
X519Y372D02*
X542Y372D01*
X559Y372D02*
X592Y372D01*
X609Y372D02*
X611Y372D01*
X662Y372D02*
X664Y372D01*
X672Y372D02*
X681Y372D01*
X1070Y372D02*
X1087Y372D01*
X1186Y372D02*
X1202Y372D01*
X1961Y372D02*
X1965Y372D01*
X2108Y372D02*
X2112Y372D01*
X2190Y372D02*
X2218Y372D01*
X2241Y372D02*
X2260Y372D01*
X2355Y372D02*
X2362Y372D01*
X1Y371D02*
X8Y371D01*
X520Y371D02*
X542Y371D01*
X559Y371D02*
X592Y371D01*
X610Y371D02*
X610Y371D01*
X663Y371D02*
X663Y371D01*
X672Y371D02*
X681Y371D01*
X1069Y371D02*
X1085Y371D01*
X1188Y371D02*
X1204Y371D01*
X1961Y371D02*
X1965Y371D01*
X2107Y371D02*
X2112Y371D01*
X2190Y371D02*
X2220Y371D01*
X2241Y371D02*
X2260Y371D01*
X2355Y371D02*
X2362Y371D01*
X1Y370D02*
X8Y370D01*
X521Y370D02*
X542Y370D01*
X559Y370D02*
X592Y370D01*
X672Y370D02*
X681Y370D01*
X1068Y370D02*
X1083Y370D01*
X1189Y370D02*
X1205Y370D01*
X1961Y370D02*
X1965Y370D01*
X2107Y370D02*
X2111Y370D01*
X2190Y370D02*
X2221Y370D01*
X2240Y370D02*
X2260Y370D01*
X2355Y370D02*
X2362Y370D01*
X1Y369D02*
X8Y369D01*
X522Y369D02*
X541Y369D01*
X559Y369D02*
X591Y369D01*
X672Y369D02*
X681Y369D01*
X1067Y369D02*
X1082Y369D01*
X1191Y369D02*
X1206Y369D01*
X1962Y369D02*
X1966Y369D01*
X2107Y369D02*
X2111Y369D01*
X2190Y369D02*
X2222Y369D01*
X2240Y369D02*
X2260Y369D01*
X2355Y369D02*
X2362Y369D01*
X1Y368D02*
X8Y368D01*
X525Y368D02*
X540Y368D01*
X559Y368D02*
X590Y368D01*
X672Y368D02*
X681Y368D01*
X1066Y368D02*
X1080Y368D01*
X1192Y368D02*
X1207Y368D01*
X1962Y368D02*
X1966Y368D01*
X2106Y368D02*
X2111Y368D01*
X2190Y368D02*
X2222Y368D01*
X2241Y368D02*
X2260Y368D01*
X2355Y368D02*
X2362Y368D01*
X1Y367D02*
X8Y367D01*
X672Y367D02*
X681Y367D01*
X1065Y367D02*
X1079Y367D01*
X1194Y367D02*
X1208Y367D01*
X1962Y367D02*
X1967Y367D01*
X2106Y367D02*
X2110Y367D01*
X2190Y367D02*
X2223Y367D01*
X2242Y367D02*
X2260Y367D01*
X2355Y367D02*
X2362Y367D01*
X1Y366D02*
X8Y366D01*
X672Y366D02*
X681Y366D01*
X1064Y366D02*
X1078Y366D01*
X1195Y366D02*
X1209Y366D01*
X1963Y366D02*
X1967Y366D01*
X2106Y366D02*
X2110Y366D01*
X2190Y366D02*
X2196Y366D01*
X2216Y366D02*
X2223Y366D01*
X2254Y366D02*
X2260Y366D01*
X2355Y366D02*
X2362Y366D01*
X1Y365D02*
X8Y365D01*
X672Y365D02*
X681Y365D01*
X1063Y365D02*
X1077Y365D01*
X1196Y365D02*
X1210Y365D01*
X1963Y365D02*
X1967Y365D01*
X2105Y365D02*
X2110Y365D01*
X2190Y365D02*
X2196Y365D01*
X2217Y365D02*
X2224Y365D01*
X2254Y365D02*
X2260Y365D01*
X2355Y365D02*
X2362Y365D01*
X1Y364D02*
X8Y364D01*
X672Y364D02*
X681Y364D01*
X1062Y364D02*
X1075Y364D01*
X1197Y364D02*
X1211Y364D01*
X1964Y364D02*
X1968Y364D01*
X2105Y364D02*
X2109Y364D01*
X2190Y364D02*
X2196Y364D01*
X2218Y364D02*
X2224Y364D01*
X2254Y364D02*
X2260Y364D01*
X2355Y364D02*
X2362Y364D01*
X1Y363D02*
X8Y363D01*
X672Y363D02*
X681Y363D01*
X1061Y363D02*
X1074Y363D01*
X1199Y363D02*
X1212Y363D01*
X1964Y363D02*
X1968Y363D01*
X2104Y363D02*
X2109Y363D01*
X2190Y363D02*
X2196Y363D01*
X2218Y363D02*
X2224Y363D01*
X2254Y363D02*
X2260Y363D01*
X2355Y363D02*
X2362Y363D01*
X1Y362D02*
X8Y362D01*
X672Y362D02*
X681Y362D01*
X1060Y362D02*
X1073Y362D01*
X1200Y362D02*
X1213Y362D01*
X1964Y362D02*
X1969Y362D01*
X2104Y362D02*
X2108Y362D01*
X2190Y362D02*
X2196Y362D01*
X2218Y362D02*
X2224Y362D01*
X2254Y362D02*
X2260Y362D01*
X2355Y362D02*
X2362Y362D01*
X1Y361D02*
X8Y361D01*
X672Y361D02*
X681Y361D01*
X1059Y361D02*
X1072Y361D01*
X1080Y361D02*
X1083Y361D01*
X1190Y361D02*
X1193Y361D01*
X1201Y361D02*
X1214Y361D01*
X1965Y361D02*
X1969Y361D01*
X2103Y361D02*
X2108Y361D01*
X2190Y361D02*
X2196Y361D01*
X2218Y361D02*
X2224Y361D01*
X2254Y361D02*
X2260Y361D01*
X2355Y361D02*
X2362Y361D01*
X1Y360D02*
X8Y360D01*
X672Y360D02*
X681Y360D01*
X1058Y360D02*
X1071Y360D01*
X1078Y360D02*
X1084Y360D01*
X1188Y360D02*
X1194Y360D01*
X1202Y360D02*
X1215Y360D01*
X1965Y360D02*
X1970Y360D01*
X2103Y360D02*
X2107Y360D01*
X2190Y360D02*
X2196Y360D01*
X2218Y360D02*
X2224Y360D01*
X2254Y360D02*
X2260Y360D01*
X2355Y360D02*
X2362Y360D01*
X1Y359D02*
X8Y359D01*
X672Y359D02*
X681Y359D01*
X1057Y359D02*
X1070Y359D01*
X1077Y359D02*
X1085Y359D01*
X1187Y359D02*
X1195Y359D01*
X1203Y359D02*
X1216Y359D01*
X1966Y359D02*
X1970Y359D01*
X2102Y359D02*
X2107Y359D01*
X2190Y359D02*
X2196Y359D01*
X2218Y359D02*
X2224Y359D01*
X2254Y359D02*
X2260Y359D01*
X2355Y359D02*
X2362Y359D01*
X1Y358D02*
X8Y358D01*
X673Y358D02*
X681Y358D01*
X1056Y358D02*
X1069Y358D01*
X1077Y358D02*
X1086Y358D01*
X1187Y358D02*
X1196Y358D01*
X1204Y358D02*
X1217Y358D01*
X1966Y358D02*
X1971Y358D01*
X2102Y358D02*
X2106Y358D01*
X2190Y358D02*
X2196Y358D01*
X2218Y358D02*
X2224Y358D01*
X2254Y358D02*
X2260Y358D01*
X2355Y358D02*
X2362Y358D01*
X1Y357D02*
X8Y357D01*
X673Y357D02*
X681Y357D01*
X1055Y357D02*
X1068Y357D01*
X1077Y357D02*
X1086Y357D01*
X1187Y357D02*
X1196Y357D01*
X1205Y357D02*
X1217Y357D01*
X1967Y357D02*
X1971Y357D01*
X2101Y357D02*
X2106Y357D01*
X2190Y357D02*
X2196Y357D01*
X2217Y357D02*
X2224Y357D01*
X2254Y357D02*
X2260Y357D01*
X2355Y357D02*
X2362Y357D01*
X1Y356D02*
X8Y356D01*
X674Y356D02*
X681Y356D01*
X1055Y356D02*
X1067Y356D01*
X1076Y356D02*
X1086Y356D01*
X1186Y356D02*
X1196Y356D01*
X1206Y356D02*
X1218Y356D01*
X1967Y356D02*
X1972Y356D01*
X2101Y356D02*
X2105Y356D01*
X2190Y356D02*
X2196Y356D01*
X2216Y356D02*
X2223Y356D01*
X2254Y356D02*
X2260Y356D01*
X2355Y356D02*
X2362Y356D01*
X1Y355D02*
X8Y355D01*
X674Y355D02*
X681Y355D01*
X1054Y355D02*
X1066Y355D01*
X1076Y355D02*
X1086Y355D01*
X1186Y355D02*
X1196Y355D01*
X1207Y355D02*
X1219Y355D01*
X1968Y355D02*
X1973Y355D01*
X2100Y355D02*
X2105Y355D01*
X2190Y355D02*
X2223Y355D01*
X2254Y355D02*
X2260Y355D01*
X2355Y355D02*
X2362Y355D01*
X1Y354D02*
X8Y354D01*
X675Y354D02*
X681Y354D01*
X1053Y354D02*
X1065Y354D01*
X1076Y354D02*
X1086Y354D01*
X1186Y354D02*
X1196Y354D01*
X1208Y354D02*
X1220Y354D01*
X1968Y354D02*
X1973Y354D01*
X2099Y354D02*
X2104Y354D01*
X2190Y354D02*
X2222Y354D01*
X2254Y354D02*
X2260Y354D01*
X2355Y354D02*
X2362Y354D01*
X1Y353D02*
X8Y353D01*
X675Y353D02*
X681Y353D01*
X1052Y353D02*
X1064Y353D01*
X1076Y353D02*
X1086Y353D01*
X1186Y353D02*
X1196Y353D01*
X1209Y353D02*
X1220Y353D01*
X1969Y353D02*
X1974Y353D01*
X2099Y353D02*
X2104Y353D01*
X2190Y353D02*
X2222Y353D01*
X2254Y353D02*
X2260Y353D01*
X2355Y353D02*
X2362Y353D01*
X1Y352D02*
X8Y352D01*
X675Y352D02*
X681Y352D01*
X1052Y352D02*
X1063Y352D01*
X1076Y352D02*
X1086Y352D01*
X1186Y352D02*
X1196Y352D01*
X1210Y352D02*
X1221Y352D01*
X1970Y352D02*
X1974Y352D01*
X2098Y352D02*
X2103Y352D01*
X2190Y352D02*
X2221Y352D01*
X2254Y352D02*
X2260Y352D01*
X2355Y352D02*
X2362Y352D01*
X1Y351D02*
X8Y351D01*
X675Y351D02*
X681Y351D01*
X1051Y351D02*
X1062Y351D01*
X1076Y351D02*
X1086Y351D01*
X1186Y351D02*
X1196Y351D01*
X1210Y351D02*
X1222Y351D01*
X1970Y351D02*
X1975Y351D01*
X2097Y351D02*
X2102Y351D01*
X2190Y351D02*
X2220Y351D01*
X2254Y351D02*
X2260Y351D01*
X2355Y351D02*
X2362Y351D01*
X1Y350D02*
X8Y350D01*
X676Y350D02*
X681Y350D01*
X1050Y350D02*
X1062Y350D01*
X1076Y350D02*
X1086Y350D01*
X1186Y350D02*
X1196Y350D01*
X1211Y350D02*
X1223Y350D01*
X1971Y350D02*
X1976Y350D01*
X2097Y350D02*
X2102Y350D01*
X2190Y350D02*
X2218Y350D01*
X2254Y350D02*
X2260Y350D01*
X2355Y350D02*
X2362Y350D01*
X1Y349D02*
X8Y349D01*
X676Y349D02*
X681Y349D01*
X1049Y349D02*
X1061Y349D01*
X1076Y349D02*
X1086Y349D01*
X1186Y349D02*
X1196Y349D01*
X1212Y349D02*
X1223Y349D01*
X1972Y349D02*
X1977Y349D01*
X2096Y349D02*
X2101Y349D01*
X2190Y349D02*
X2216Y349D01*
X2254Y349D02*
X2260Y349D01*
X2355Y349D02*
X2362Y349D01*
X1Y348D02*
X8Y348D01*
X676Y348D02*
X681Y348D01*
X1049Y348D02*
X1060Y348D01*
X1076Y348D02*
X1086Y348D01*
X1186Y348D02*
X1196Y348D01*
X1213Y348D02*
X1224Y348D01*
X1972Y348D02*
X1978Y348D01*
X2095Y348D02*
X2100Y348D01*
X2190Y348D02*
X2196Y348D01*
X2202Y348D02*
X2210Y348D01*
X2254Y348D02*
X2260Y348D01*
X2355Y348D02*
X2362Y348D01*
X1Y347D02*
X8Y347D01*
X676Y347D02*
X681Y347D01*
X1048Y347D02*
X1059Y347D01*
X1076Y347D02*
X1086Y347D01*
X1186Y347D02*
X1196Y347D01*
X1213Y347D02*
X1224Y347D01*
X1973Y347D02*
X1978Y347D01*
X2094Y347D02*
X2100Y347D01*
X2190Y347D02*
X2196Y347D01*
X2203Y347D02*
X2210Y347D01*
X2254Y347D02*
X2260Y347D01*
X2355Y347D02*
X2362Y347D01*
X1Y346D02*
X8Y346D01*
X676Y346D02*
X681Y346D01*
X1048Y346D02*
X1059Y346D01*
X1076Y346D02*
X1086Y346D01*
X1186Y346D02*
X1196Y346D01*
X1214Y346D02*
X1225Y346D01*
X1974Y346D02*
X1979Y346D01*
X2093Y346D02*
X2099Y346D01*
X2190Y346D02*
X2196Y346D01*
X2204Y346D02*
X2211Y346D01*
X2254Y346D02*
X2260Y346D01*
X2355Y346D02*
X2362Y346D01*
X1Y345D02*
X8Y345D01*
X677Y345D02*
X681Y345D01*
X1047Y345D02*
X1058Y345D01*
X1076Y345D02*
X1086Y345D01*
X1186Y345D02*
X1196Y345D01*
X1215Y345D02*
X1226Y345D01*
X1974Y345D02*
X1980Y345D01*
X2092Y345D02*
X2098Y345D01*
X2190Y345D02*
X2196Y345D01*
X2204Y345D02*
X2211Y345D01*
X2254Y345D02*
X2260Y345D01*
X2355Y345D02*
X2362Y345D01*
X1Y344D02*
X8Y344D01*
X677Y344D02*
X681Y344D01*
X1046Y344D02*
X1057Y344D01*
X1076Y344D02*
X1086Y344D01*
X1186Y344D02*
X1196Y344D01*
X1216Y344D02*
X1226Y344D01*
X1975Y344D02*
X1981Y344D01*
X2092Y344D02*
X2097Y344D01*
X2190Y344D02*
X2196Y344D01*
X2205Y344D02*
X2212Y344D01*
X2254Y344D02*
X2260Y344D01*
X2355Y344D02*
X2362Y344D01*
X1Y343D02*
X8Y343D01*
X677Y343D02*
X681Y343D01*
X1046Y343D02*
X1056Y343D01*
X1076Y343D02*
X1086Y343D01*
X1186Y343D02*
X1196Y343D01*
X1216Y343D02*
X1227Y343D01*
X1976Y343D02*
X1982Y343D01*
X2091Y343D02*
X2096Y343D01*
X2190Y343D02*
X2196Y343D01*
X2205Y343D02*
X2213Y343D01*
X2254Y343D02*
X2260Y343D01*
X2269Y343D02*
X2273Y343D01*
X2355Y343D02*
X2362Y343D01*
X1Y342D02*
X8Y342D01*
X677Y342D02*
X681Y342D01*
X1045Y342D02*
X1056Y342D01*
X1076Y342D02*
X1086Y342D01*
X1186Y342D02*
X1196Y342D01*
X1217Y342D02*
X1227Y342D01*
X1977Y342D02*
X1983Y342D01*
X2090Y342D02*
X2096Y342D01*
X2190Y342D02*
X2196Y342D01*
X2206Y342D02*
X2213Y342D01*
X2254Y342D02*
X2260Y342D01*
X2268Y342D02*
X2273Y342D01*
X2355Y342D02*
X2362Y342D01*
X1Y341D02*
X8Y341D01*
X677Y341D02*
X681Y341D01*
X1045Y341D02*
X1055Y341D01*
X1076Y341D02*
X1086Y341D01*
X1186Y341D02*
X1196Y341D01*
X1218Y341D02*
X1228Y341D01*
X1978Y341D02*
X1984Y341D01*
X2089Y341D02*
X2095Y341D01*
X2190Y341D02*
X2196Y341D01*
X2207Y341D02*
X2214Y341D01*
X2254Y341D02*
X2260Y341D01*
X2268Y341D02*
X2274Y341D01*
X2355Y341D02*
X2362Y341D01*
X1Y340D02*
X8Y340D01*
X677Y340D02*
X681Y340D01*
X1044Y340D02*
X1055Y340D01*
X1076Y340D02*
X1086Y340D01*
X1186Y340D02*
X1196Y340D01*
X1218Y340D02*
X1229Y340D01*
X1979Y340D02*
X1985Y340D01*
X2088Y340D02*
X2094Y340D01*
X2190Y340D02*
X2196Y340D01*
X2207Y340D02*
X2214Y340D01*
X2254Y340D02*
X2260Y340D01*
X2268Y340D02*
X2274Y340D01*
X2355Y340D02*
X2362Y340D01*
X1Y339D02*
X8Y339D01*
X677Y339D02*
X681Y339D01*
X1044Y339D02*
X1054Y339D01*
X1076Y339D02*
X1086Y339D01*
X1186Y339D02*
X1196Y339D01*
X1219Y339D02*
X1229Y339D01*
X1980Y339D02*
X1986Y339D01*
X2087Y339D02*
X2093Y339D01*
X2190Y339D02*
X2196Y339D01*
X2208Y339D02*
X2215Y339D01*
X2254Y339D02*
X2260Y339D01*
X2268Y339D02*
X2274Y339D01*
X2355Y339D02*
X2362Y339D01*
X1Y338D02*
X8Y338D01*
X677Y338D02*
X681Y338D01*
X1043Y338D02*
X1053Y338D01*
X1076Y338D02*
X1086Y338D01*
X1186Y338D02*
X1196Y338D01*
X1219Y338D02*
X1229Y338D01*
X1981Y338D02*
X1987Y338D01*
X2085Y338D02*
X2092Y338D01*
X2190Y338D02*
X2196Y338D01*
X2208Y338D02*
X2216Y338D01*
X2254Y338D02*
X2260Y338D01*
X2268Y338D02*
X2274Y338D01*
X2355Y338D02*
X2362Y338D01*
X1Y337D02*
X8Y337D01*
X677Y337D02*
X681Y337D01*
X1043Y337D02*
X1053Y337D01*
X1076Y337D02*
X1086Y337D01*
X1186Y337D02*
X1196Y337D01*
X1220Y337D02*
X1230Y337D01*
X1982Y337D02*
X1988Y337D01*
X2084Y337D02*
X2091Y337D01*
X2190Y337D02*
X2196Y337D01*
X2209Y337D02*
X2216Y337D01*
X2254Y337D02*
X2260Y337D01*
X2268Y337D02*
X2274Y337D01*
X2355Y337D02*
X2362Y337D01*
X1Y336D02*
X8Y336D01*
X677Y336D02*
X681Y336D01*
X1042Y336D02*
X1052Y336D01*
X1076Y336D02*
X1086Y336D01*
X1186Y336D02*
X1196Y336D01*
X1221Y336D02*
X1230Y336D01*
X1983Y336D02*
X1990Y336D01*
X2083Y336D02*
X2090Y336D01*
X2190Y336D02*
X2196Y336D01*
X2209Y336D02*
X2217Y336D01*
X2254Y336D02*
X2260Y336D01*
X2268Y336D02*
X2274Y336D01*
X2355Y336D02*
X2362Y336D01*
X1Y335D02*
X8Y335D01*
X676Y335D02*
X681Y335D01*
X1042Y335D02*
X1052Y335D01*
X1076Y335D02*
X1086Y335D01*
X1186Y335D02*
X1196Y335D01*
X1221Y335D02*
X1231Y335D01*
X1984Y335D02*
X1991Y335D01*
X2082Y335D02*
X2089Y335D01*
X2190Y335D02*
X2196Y335D01*
X2210Y335D02*
X2217Y335D01*
X2254Y335D02*
X2260Y335D01*
X2268Y335D02*
X2274Y335D01*
X2355Y335D02*
X2362Y335D01*
X1Y334D02*
X8Y334D01*
X676Y334D02*
X681Y334D01*
X1041Y334D02*
X1051Y334D01*
X1076Y334D02*
X1086Y334D01*
X1186Y334D02*
X1196Y334D01*
X1222Y334D02*
X1231Y334D01*
X1985Y334D02*
X1992Y334D01*
X2081Y334D02*
X2088Y334D01*
X2190Y334D02*
X2196Y334D01*
X2211Y334D02*
X2218Y334D01*
X2254Y334D02*
X2260Y334D01*
X2268Y334D02*
X2274Y334D01*
X2355Y334D02*
X2362Y334D01*
X1Y333D02*
X8Y333D01*
X676Y333D02*
X681Y333D01*
X1041Y333D02*
X1051Y333D01*
X1076Y333D02*
X1086Y333D01*
X1186Y333D02*
X1196Y333D01*
X1222Y333D02*
X1232Y333D01*
X1986Y333D02*
X1993Y333D01*
X2079Y333D02*
X2086Y333D01*
X2190Y333D02*
X2196Y333D01*
X2211Y333D02*
X2218Y333D01*
X2254Y333D02*
X2260Y333D01*
X2268Y333D02*
X2274Y333D01*
X2355Y333D02*
X2362Y333D01*
X1Y332D02*
X8Y332D01*
X676Y332D02*
X681Y332D01*
X1040Y332D02*
X1050Y332D01*
X1076Y332D02*
X1086Y332D01*
X1186Y332D02*
X1196Y332D01*
X1222Y332D02*
X1232Y332D01*
X1987Y332D02*
X1995Y332D01*
X2078Y332D02*
X2085Y332D01*
X2190Y332D02*
X2196Y332D01*
X2212Y332D02*
X2219Y332D01*
X2254Y332D02*
X2260Y332D01*
X2268Y332D02*
X2274Y332D01*
X2355Y332D02*
X2362Y332D01*
X1Y331D02*
X8Y331D01*
X676Y331D02*
X681Y331D01*
X1040Y331D02*
X1050Y331D01*
X1076Y331D02*
X1086Y331D01*
X1186Y331D02*
X1196Y331D01*
X1223Y331D02*
X1233Y331D01*
X1989Y331D02*
X1997Y331D01*
X2076Y331D02*
X2084Y331D01*
X2190Y331D02*
X2196Y331D01*
X2212Y331D02*
X2220Y331D01*
X2254Y331D02*
X2260Y331D01*
X2268Y331D02*
X2274Y331D01*
X2355Y331D02*
X2362Y331D01*
X1Y330D02*
X8Y330D01*
X675Y330D02*
X681Y330D01*
X1040Y330D02*
X1049Y330D01*
X1076Y330D02*
X1086Y330D01*
X1186Y330D02*
X1196Y330D01*
X1223Y330D02*
X1233Y330D01*
X1990Y330D02*
X1998Y330D01*
X2075Y330D02*
X2083Y330D01*
X2190Y330D02*
X2196Y330D01*
X2213Y330D02*
X2220Y330D01*
X2254Y330D02*
X2260Y330D01*
X2268Y330D02*
X2274Y330D01*
X2355Y330D02*
X2362Y330D01*
X1Y329D02*
X8Y329D01*
X675Y329D02*
X681Y329D01*
X1039Y329D02*
X1049Y329D01*
X1076Y329D02*
X1086Y329D01*
X1186Y329D02*
X1196Y329D01*
X1224Y329D02*
X1234Y329D01*
X1991Y329D02*
X1999Y329D01*
X2074Y329D02*
X2081Y329D01*
X2190Y329D02*
X2196Y329D01*
X2214Y329D02*
X2221Y329D01*
X2254Y329D02*
X2260Y329D01*
X2268Y329D02*
X2274Y329D01*
X2355Y329D02*
X2362Y329D01*
X1Y328D02*
X8Y328D01*
X675Y328D02*
X681Y328D01*
X1039Y328D02*
X1048Y328D01*
X1076Y328D02*
X1086Y328D01*
X1186Y328D02*
X1196Y328D01*
X1224Y328D02*
X1234Y328D01*
X1993Y328D02*
X1999Y328D01*
X2074Y328D02*
X2080Y328D01*
X2190Y328D02*
X2196Y328D01*
X2214Y328D02*
X2221Y328D01*
X2254Y328D02*
X2260Y328D01*
X2268Y328D02*
X2274Y328D01*
X2355Y328D02*
X2362Y328D01*
X1Y327D02*
X8Y327D01*
X674Y327D02*
X681Y327D01*
X1038Y327D02*
X1048Y327D01*
X1076Y327D02*
X1086Y327D01*
X1186Y327D02*
X1196Y327D01*
X1225Y327D02*
X1234Y327D01*
X1994Y327D02*
X1999Y327D01*
X2074Y327D02*
X2078Y327D01*
X2190Y327D02*
X2196Y327D01*
X2215Y327D02*
X2222Y327D01*
X2254Y327D02*
X2260Y327D01*
X2268Y327D02*
X2274Y327D01*
X2355Y327D02*
X2362Y327D01*
X1Y326D02*
X8Y326D01*
X674Y326D02*
X681Y326D01*
X1038Y326D02*
X1048Y326D01*
X1076Y326D02*
X1086Y326D01*
X1186Y326D02*
X1196Y326D01*
X1225Y326D02*
X1235Y326D01*
X1996Y326D02*
X1999Y326D01*
X2075Y326D02*
X2077Y326D01*
X2190Y326D02*
X2196Y326D01*
X2215Y326D02*
X2223Y326D01*
X2243Y326D02*
X2274Y326D01*
X2355Y326D02*
X2362Y326D01*
X1Y325D02*
X8Y325D01*
X674Y325D02*
X681Y325D01*
X1038Y325D02*
X1047Y325D01*
X1077Y325D02*
X1086Y325D01*
X1187Y325D02*
X1196Y325D01*
X1226Y325D02*
X1235Y325D01*
X1998Y325D02*
X1998Y325D01*
X2190Y325D02*
X2196Y325D01*
X2216Y325D02*
X2223Y325D01*
X2241Y325D02*
X2274Y325D01*
X2355Y325D02*
X2362Y325D01*
X1Y324D02*
X8Y324D01*
X673Y324D02*
X681Y324D01*
X1037Y324D02*
X1047Y324D01*
X1077Y324D02*
X1086Y324D01*
X1187Y324D02*
X1196Y324D01*
X1226Y324D02*
X1235Y324D01*
X2190Y324D02*
X2196Y324D01*
X2216Y324D02*
X2224Y324D01*
X2241Y324D02*
X2274Y324D01*
X2355Y324D02*
X2362Y324D01*
X1Y323D02*
X8Y323D01*
X673Y323D02*
X681Y323D01*
X1037Y323D02*
X1046Y323D01*
X1077Y323D02*
X1085Y323D01*
X1187Y323D02*
X1195Y323D01*
X1226Y323D02*
X1236Y323D01*
X2190Y323D02*
X2196Y323D01*
X2217Y323D02*
X2224Y323D01*
X2240Y323D02*
X2274Y323D01*
X2355Y323D02*
X2362Y323D01*
X1Y322D02*
X8Y322D01*
X672Y322D02*
X681Y322D01*
X1037Y322D02*
X1046Y322D01*
X1078Y322D02*
X1085Y322D01*
X1188Y322D02*
X1195Y322D01*
X1227Y322D02*
X1236Y322D01*
X2190Y322D02*
X2196Y322D01*
X2218Y322D02*
X2224Y322D01*
X2240Y322D02*
X2274Y322D01*
X2355Y322D02*
X2362Y322D01*
X1Y321D02*
X8Y321D01*
X672Y321D02*
X681Y321D01*
X1036Y321D02*
X1046Y321D01*
X1080Y321D02*
X1083Y321D01*
X1190Y321D02*
X1193Y321D01*
X1227Y321D02*
X1236Y321D01*
X2191Y321D02*
X2196Y321D01*
X2218Y321D02*
X2223Y321D01*
X2241Y321D02*
X2273Y321D01*
X2355Y321D02*
X2362Y321D01*
X1Y320D02*
X8Y320D01*
X672Y320D02*
X681Y320D01*
X1036Y320D02*
X1045Y320D01*
X1227Y320D02*
X1237Y320D01*
X2192Y320D02*
X2195Y320D01*
X2219Y320D02*
X2222Y320D01*
X2242Y320D02*
X2272Y320D01*
X2355Y320D02*
X2362Y320D01*
X1Y319D02*
X8Y319D01*
X672Y319D02*
X681Y319D01*
X1036Y319D02*
X1045Y319D01*
X1228Y319D02*
X1237Y319D01*
X2355Y319D02*
X2362Y319D01*
X1Y318D02*
X8Y318D01*
X672Y318D02*
X681Y318D01*
X1035Y318D02*
X1045Y318D01*
X1228Y318D02*
X1237Y318D01*
X2355Y318D02*
X2362Y318D01*
X1Y317D02*
X8Y317D01*
X672Y317D02*
X681Y317D01*
X1035Y317D02*
X1044Y317D01*
X1228Y317D02*
X1238Y317D01*
X2355Y317D02*
X2362Y317D01*
X1Y316D02*
X8Y316D01*
X672Y316D02*
X681Y316D01*
X1035Y316D02*
X1044Y316D01*
X1229Y316D02*
X1238Y316D01*
X2355Y316D02*
X2362Y316D01*
X1Y315D02*
X8Y315D01*
X672Y315D02*
X681Y315D01*
X1035Y315D02*
X1044Y315D01*
X1229Y315D02*
X1238Y315D01*
X2355Y315D02*
X2362Y315D01*
X1Y314D02*
X8Y314D01*
X672Y314D02*
X681Y314D01*
X1034Y314D02*
X1044Y314D01*
X1229Y314D02*
X1238Y314D01*
X2355Y314D02*
X2362Y314D01*
X1Y313D02*
X8Y313D01*
X672Y313D02*
X681Y313D01*
X1034Y313D02*
X1043Y313D01*
X1229Y313D02*
X1238Y313D01*
X2355Y313D02*
X2362Y313D01*
X1Y312D02*
X8Y312D01*
X672Y312D02*
X681Y312D01*
X1034Y312D02*
X1043Y312D01*
X1230Y312D02*
X1239Y312D01*
X2355Y312D02*
X2362Y312D01*
X1Y311D02*
X8Y311D01*
X672Y311D02*
X681Y311D01*
X1034Y311D02*
X1043Y311D01*
X1230Y311D02*
X1239Y311D01*
X2355Y311D02*
X2362Y311D01*
X1Y310D02*
X8Y310D01*
X672Y310D02*
X681Y310D01*
X1034Y310D02*
X1043Y310D01*
X1230Y310D02*
X1239Y310D01*
X2355Y310D02*
X2362Y310D01*
X1Y309D02*
X8Y309D01*
X672Y309D02*
X681Y309D01*
X1033Y309D02*
X1043Y309D01*
X1230Y309D02*
X1239Y309D01*
X2355Y309D02*
X2362Y309D01*
X1Y308D02*
X8Y308D01*
X672Y308D02*
X681Y308D01*
X1033Y308D02*
X1042Y308D01*
X1230Y308D02*
X1239Y308D01*
X2355Y308D02*
X2362Y308D01*
X1Y307D02*
X8Y307D01*
X672Y307D02*
X681Y307D01*
X1033Y307D02*
X1042Y307D01*
X1230Y307D02*
X1240Y307D01*
X2355Y307D02*
X2362Y307D01*
X1Y306D02*
X8Y306D01*
X672Y306D02*
X681Y306D01*
X1033Y306D02*
X1042Y306D01*
X1231Y306D02*
X1240Y306D01*
X2355Y306D02*
X2362Y306D01*
X1Y305D02*
X8Y305D01*
X672Y305D02*
X681Y305D01*
X1033Y305D02*
X1042Y305D01*
X1231Y305D02*
X1240Y305D01*
X2355Y305D02*
X2362Y305D01*
X1Y304D02*
X8Y304D01*
X672Y304D02*
X681Y304D01*
X1033Y304D02*
X1042Y304D01*
X1231Y304D02*
X1240Y304D01*
X2355Y304D02*
X2362Y304D01*
X1Y303D02*
X8Y303D01*
X672Y303D02*
X681Y303D01*
X1033Y303D02*
X1042Y303D01*
X1231Y303D02*
X1240Y303D01*
X2355Y303D02*
X2362Y303D01*
X1Y302D02*
X8Y302D01*
X672Y302D02*
X681Y302D01*
X1032Y302D02*
X1041Y302D01*
X1231Y302D02*
X1240Y302D01*
X2355Y302D02*
X2362Y302D01*
X1Y301D02*
X8Y301D01*
X672Y301D02*
X681Y301D01*
X1032Y301D02*
X1041Y301D01*
X1231Y301D02*
X1240Y301D01*
X2355Y301D02*
X2362Y301D01*
X1Y300D02*
X8Y300D01*
X672Y300D02*
X681Y300D01*
X1032Y300D02*
X1041Y300D01*
X1231Y300D02*
X1240Y300D01*
X2355Y300D02*
X2362Y300D01*
X1Y299D02*
X8Y299D01*
X672Y299D02*
X681Y299D01*
X1032Y299D02*
X1041Y299D01*
X1231Y299D02*
X1240Y299D01*
X2355Y299D02*
X2362Y299D01*
X1Y298D02*
X8Y298D01*
X672Y298D02*
X681Y298D01*
X1032Y298D02*
X1041Y298D01*
X1232Y298D02*
X1241Y298D01*
X2355Y298D02*
X2362Y298D01*
X1Y297D02*
X8Y297D01*
X672Y297D02*
X681Y297D01*
X1032Y297D02*
X1041Y297D01*
X1232Y297D02*
X1241Y297D01*
X2355Y297D02*
X2362Y297D01*
X1Y296D02*
X8Y296D01*
X672Y296D02*
X681Y296D01*
X1032Y296D02*
X1041Y296D01*
X1232Y296D02*
X1241Y296D01*
X2355Y296D02*
X2362Y296D01*
X1Y295D02*
X8Y295D01*
X672Y295D02*
X681Y295D01*
X1032Y295D02*
X1041Y295D01*
X1232Y295D02*
X1241Y295D01*
X2355Y295D02*
X2362Y295D01*
X1Y294D02*
X8Y294D01*
X672Y294D02*
X681Y294D01*
X1032Y294D02*
X1041Y294D01*
X1232Y294D02*
X1241Y294D01*
X2355Y294D02*
X2362Y294D01*
X1Y293D02*
X8Y293D01*
X672Y293D02*
X681Y293D01*
X1032Y293D02*
X1041Y293D01*
X1232Y293D02*
X1241Y293D01*
X2355Y293D02*
X2362Y293D01*
X1Y292D02*
X8Y292D01*
X672Y292D02*
X681Y292D01*
X1032Y292D02*
X1041Y292D01*
X1232Y292D02*
X1241Y292D01*
X2355Y292D02*
X2362Y292D01*
X1Y291D02*
X8Y291D01*
X672Y291D02*
X681Y291D01*
X1032Y291D02*
X1041Y291D01*
X1232Y291D02*
X1241Y291D01*
X2355Y291D02*
X2362Y291D01*
X1Y290D02*
X8Y290D01*
X672Y290D02*
X681Y290D01*
X1032Y290D02*
X1041Y290D01*
X1232Y290D02*
X1241Y290D01*
X2355Y290D02*
X2362Y290D01*
X1Y289D02*
X8Y289D01*
X672Y289D02*
X681Y289D01*
X1032Y289D02*
X1041Y289D01*
X1232Y289D02*
X1241Y289D01*
X2355Y289D02*
X2362Y289D01*
X1Y288D02*
X8Y288D01*
X672Y288D02*
X681Y288D01*
X1032Y288D02*
X1041Y288D01*
X1232Y288D02*
X1241Y288D01*
X2355Y288D02*
X2362Y288D01*
X1Y287D02*
X8Y287D01*
X672Y287D02*
X681Y287D01*
X1032Y287D02*
X1041Y287D01*
X1232Y287D02*
X1241Y287D01*
X2355Y287D02*
X2362Y287D01*
X1Y286D02*
X8Y286D01*
X672Y286D02*
X681Y286D01*
X1032Y286D02*
X1041Y286D01*
X1232Y286D02*
X1241Y286D01*
X2355Y286D02*
X2362Y286D01*
X1Y285D02*
X8Y285D01*
X672Y285D02*
X681Y285D01*
X1032Y285D02*
X1041Y285D01*
X1232Y285D02*
X1241Y285D01*
X2355Y285D02*
X2362Y285D01*
X1Y284D02*
X8Y284D01*
X672Y284D02*
X681Y284D01*
X1032Y284D02*
X1041Y284D01*
X1232Y284D02*
X1241Y284D01*
X2355Y284D02*
X2362Y284D01*
X1Y283D02*
X8Y283D01*
X672Y283D02*
X681Y283D01*
X1032Y283D02*
X1041Y283D01*
X1231Y283D02*
X1240Y283D01*
X2355Y283D02*
X2362Y283D01*
X1Y282D02*
X8Y282D01*
X672Y282D02*
X681Y282D01*
X1032Y282D02*
X1041Y282D01*
X1231Y282D02*
X1240Y282D01*
X2355Y282D02*
X2362Y282D01*
X1Y281D02*
X8Y281D01*
X672Y281D02*
X681Y281D01*
X1032Y281D02*
X1041Y281D01*
X1231Y281D02*
X1240Y281D01*
X2355Y281D02*
X2362Y281D01*
X1Y280D02*
X8Y280D01*
X672Y280D02*
X681Y280D01*
X1032Y280D02*
X1041Y280D01*
X1231Y280D02*
X1240Y280D01*
X2355Y280D02*
X2362Y280D01*
X1Y279D02*
X8Y279D01*
X672Y279D02*
X681Y279D01*
X1033Y279D02*
X1042Y279D01*
X1231Y279D02*
X1240Y279D01*
X2355Y279D02*
X2362Y279D01*
X1Y278D02*
X8Y278D01*
X672Y278D02*
X681Y278D01*
X1033Y278D02*
X1042Y278D01*
X1231Y278D02*
X1240Y278D01*
X2355Y278D02*
X2362Y278D01*
X1Y277D02*
X8Y277D01*
X672Y277D02*
X681Y277D01*
X1033Y277D02*
X1042Y277D01*
X1231Y277D02*
X1240Y277D01*
X2355Y277D02*
X2362Y277D01*
X1Y276D02*
X8Y276D01*
X672Y276D02*
X681Y276D01*
X1033Y276D02*
X1042Y276D01*
X1231Y276D02*
X1240Y276D01*
X2355Y276D02*
X2362Y276D01*
X1Y275D02*
X8Y275D01*
X672Y275D02*
X681Y275D01*
X1033Y275D02*
X1042Y275D01*
X1231Y275D02*
X1240Y275D01*
X2355Y275D02*
X2362Y275D01*
X1Y274D02*
X8Y274D01*
X672Y274D02*
X681Y274D01*
X1033Y274D02*
X1042Y274D01*
X1230Y274D02*
X1239Y274D01*
X2355Y274D02*
X2362Y274D01*
X1Y273D02*
X8Y273D01*
X672Y273D02*
X681Y273D01*
X1033Y273D02*
X1043Y273D01*
X1230Y273D02*
X1239Y273D01*
X2355Y273D02*
X2362Y273D01*
X1Y272D02*
X8Y272D01*
X672Y272D02*
X681Y272D01*
X1034Y272D02*
X1043Y272D01*
X1230Y272D02*
X1239Y272D01*
X2355Y272D02*
X2362Y272D01*
X1Y271D02*
X8Y271D01*
X672Y271D02*
X681Y271D01*
X1034Y271D02*
X1043Y271D01*
X1230Y271D02*
X1239Y271D01*
X2355Y271D02*
X2362Y271D01*
X1Y270D02*
X8Y270D01*
X672Y270D02*
X681Y270D01*
X1034Y270D02*
X1043Y270D01*
X1230Y270D02*
X1239Y270D01*
X2355Y270D02*
X2362Y270D01*
X1Y269D02*
X8Y269D01*
X672Y269D02*
X681Y269D01*
X1034Y269D02*
X1043Y269D01*
X1229Y269D02*
X1238Y269D01*
X2355Y269D02*
X2362Y269D01*
X1Y268D02*
X8Y268D01*
X672Y268D02*
X681Y268D01*
X1034Y268D02*
X1044Y268D01*
X1229Y268D02*
X1238Y268D01*
X2355Y268D02*
X2362Y268D01*
X1Y267D02*
X8Y267D01*
X672Y267D02*
X681Y267D01*
X1035Y267D02*
X1044Y267D01*
X1229Y267D02*
X1238Y267D01*
X2355Y267D02*
X2362Y267D01*
X1Y266D02*
X8Y266D01*
X672Y266D02*
X681Y266D01*
X1035Y266D02*
X1044Y266D01*
X1229Y266D02*
X1238Y266D01*
X2355Y266D02*
X2362Y266D01*
X1Y265D02*
X8Y265D01*
X672Y265D02*
X681Y265D01*
X1035Y265D02*
X1044Y265D01*
X1228Y265D02*
X1238Y265D01*
X2355Y265D02*
X2362Y265D01*
X1Y264D02*
X8Y264D01*
X672Y264D02*
X681Y264D01*
X1035Y264D02*
X1045Y264D01*
X1228Y264D02*
X1237Y264D01*
X2355Y264D02*
X2362Y264D01*
X1Y263D02*
X8Y263D01*
X672Y263D02*
X681Y263D01*
X1036Y263D02*
X1045Y263D01*
X1228Y263D02*
X1237Y263D01*
X2355Y263D02*
X2362Y263D01*
X1Y262D02*
X8Y262D01*
X672Y262D02*
X681Y262D01*
X1036Y262D02*
X1045Y262D01*
X1227Y262D02*
X1237Y262D01*
X2355Y262D02*
X2362Y262D01*
X1Y261D02*
X8Y261D01*
X672Y261D02*
X681Y261D01*
X1036Y261D02*
X1046Y261D01*
X1227Y261D02*
X1236Y261D01*
X2355Y261D02*
X2362Y261D01*
X1Y260D02*
X8Y260D01*
X672Y260D02*
X681Y260D01*
X1037Y260D02*
X1046Y260D01*
X1227Y260D02*
X1236Y260D01*
X2355Y260D02*
X2362Y260D01*
X1Y259D02*
X8Y259D01*
X672Y259D02*
X681Y259D01*
X1037Y259D02*
X1046Y259D01*
X1226Y259D02*
X1236Y259D01*
X2355Y259D02*
X2362Y259D01*
X1Y258D02*
X8Y258D01*
X672Y258D02*
X681Y258D01*
X1037Y258D02*
X1047Y258D01*
X1226Y258D02*
X1235Y258D01*
X2355Y258D02*
X2362Y258D01*
X1Y257D02*
X8Y257D01*
X672Y257D02*
X681Y257D01*
X1038Y257D02*
X1047Y257D01*
X1226Y257D02*
X1235Y257D01*
X2355Y257D02*
X2362Y257D01*
X1Y256D02*
X8Y256D01*
X672Y256D02*
X681Y256D01*
X1038Y256D02*
X1047Y256D01*
X1225Y256D02*
X1235Y256D01*
X2355Y256D02*
X2362Y256D01*
X1Y255D02*
X8Y255D01*
X672Y255D02*
X681Y255D01*
X1038Y255D02*
X1048Y255D01*
X1225Y255D02*
X1234Y255D01*
X2355Y255D02*
X2362Y255D01*
X1Y254D02*
X8Y254D01*
X672Y254D02*
X681Y254D01*
X1039Y254D02*
X1048Y254D01*
X1224Y254D02*
X1234Y254D01*
X2355Y254D02*
X2362Y254D01*
X1Y253D02*
X8Y253D01*
X672Y253D02*
X681Y253D01*
X1039Y253D02*
X1049Y253D01*
X1224Y253D02*
X1234Y253D01*
X2355Y253D02*
X2362Y253D01*
X1Y252D02*
X8Y252D01*
X672Y252D02*
X681Y252D01*
X1039Y252D02*
X1049Y252D01*
X1223Y252D02*
X1233Y252D01*
X2355Y252D02*
X2362Y252D01*
X1Y251D02*
X8Y251D01*
X672Y251D02*
X681Y251D01*
X1040Y251D02*
X1050Y251D01*
X1223Y251D02*
X1233Y251D01*
X2355Y251D02*
X2362Y251D01*
X1Y250D02*
X8Y250D01*
X672Y250D02*
X681Y250D01*
X1040Y250D02*
X1050Y250D01*
X1223Y250D02*
X1232Y250D01*
X2132Y250D02*
X2141Y250D01*
X2355Y250D02*
X2362Y250D01*
X1Y249D02*
X8Y249D01*
X672Y249D02*
X681Y249D01*
X1041Y249D02*
X1051Y249D01*
X1222Y249D02*
X1232Y249D01*
X2132Y249D02*
X2141Y249D01*
X2355Y249D02*
X2362Y249D01*
X1Y248D02*
X8Y248D01*
X672Y248D02*
X681Y248D01*
X1041Y248D02*
X1051Y248D01*
X1222Y248D02*
X1231Y248D01*
X2132Y248D02*
X2141Y248D01*
X2355Y248D02*
X2362Y248D01*
X1Y247D02*
X8Y247D01*
X672Y247D02*
X681Y247D01*
X1042Y247D02*
X1052Y247D01*
X1221Y247D02*
X1231Y247D01*
X2132Y247D02*
X2141Y247D01*
X2355Y247D02*
X2362Y247D01*
X1Y246D02*
X8Y246D01*
X672Y246D02*
X681Y246D01*
X1042Y246D02*
X1052Y246D01*
X1221Y246D02*
X1230Y246D01*
X2132Y246D02*
X2141Y246D01*
X2355Y246D02*
X2362Y246D01*
X1Y245D02*
X8Y245D01*
X672Y245D02*
X681Y245D01*
X1043Y245D02*
X1053Y245D01*
X1220Y245D02*
X1230Y245D01*
X2132Y245D02*
X2141Y245D01*
X2355Y245D02*
X2362Y245D01*
X1Y244D02*
X8Y244D01*
X672Y244D02*
X681Y244D01*
X1043Y244D02*
X1053Y244D01*
X1219Y244D02*
X1230Y244D01*
X2132Y244D02*
X2141Y244D01*
X2355Y244D02*
X2362Y244D01*
X1Y243D02*
X8Y243D01*
X672Y243D02*
X681Y243D01*
X1044Y243D02*
X1054Y243D01*
X1219Y243D02*
X1229Y243D01*
X2132Y243D02*
X2141Y243D01*
X2355Y243D02*
X2362Y243D01*
X1Y242D02*
X8Y242D01*
X672Y242D02*
X681Y242D01*
X1044Y242D02*
X1055Y242D01*
X1218Y242D02*
X1229Y242D01*
X2132Y242D02*
X2141Y242D01*
X2355Y242D02*
X2362Y242D01*
X1Y241D02*
X8Y241D01*
X672Y241D02*
X681Y241D01*
X1045Y241D02*
X1055Y241D01*
X1218Y241D02*
X1228Y241D01*
X2132Y241D02*
X2141Y241D01*
X2355Y241D02*
X2362Y241D01*
X1Y240D02*
X8Y240D01*
X672Y240D02*
X681Y240D01*
X1045Y240D02*
X1056Y240D01*
X1217Y240D02*
X1227Y240D01*
X2132Y240D02*
X2141Y240D01*
X2355Y240D02*
X2362Y240D01*
X1Y239D02*
X8Y239D01*
X672Y239D02*
X681Y239D01*
X1046Y239D02*
X1056Y239D01*
X1216Y239D02*
X1227Y239D01*
X2132Y239D02*
X2141Y239D01*
X2355Y239D02*
X2362Y239D01*
X1Y238D02*
X8Y238D01*
X672Y238D02*
X681Y238D01*
X1046Y238D02*
X1057Y238D01*
X1216Y238D02*
X1226Y238D01*
X2132Y238D02*
X2141Y238D01*
X2355Y238D02*
X2362Y238D01*
X1Y237D02*
X8Y237D01*
X672Y237D02*
X681Y237D01*
X1047Y237D02*
X1058Y237D01*
X1215Y237D02*
X1226Y237D01*
X2132Y237D02*
X2141Y237D01*
X2355Y237D02*
X2362Y237D01*
X1Y236D02*
X8Y236D01*
X672Y236D02*
X681Y236D01*
X1048Y236D02*
X1058Y236D01*
X1214Y236D02*
X1225Y236D01*
X2132Y236D02*
X2141Y236D01*
X2355Y236D02*
X2362Y236D01*
X1Y235D02*
X8Y235D01*
X672Y235D02*
X681Y235D01*
X1048Y235D02*
X1059Y235D01*
X1213Y235D02*
X1224Y235D01*
X2132Y235D02*
X2141Y235D01*
X2355Y235D02*
X2362Y235D01*
X1Y234D02*
X8Y234D01*
X672Y234D02*
X681Y234D01*
X1049Y234D02*
X1060Y234D01*
X1213Y234D02*
X1224Y234D01*
X2132Y234D02*
X2141Y234D01*
X2355Y234D02*
X2362Y234D01*
X1Y233D02*
X8Y233D01*
X672Y233D02*
X681Y233D01*
X1049Y233D02*
X1061Y233D01*
X1212Y233D02*
X1223Y233D01*
X2132Y233D02*
X2141Y233D01*
X2355Y233D02*
X2362Y233D01*
X1Y232D02*
X8Y232D01*
X672Y232D02*
X681Y232D01*
X1050Y232D02*
X1061Y232D01*
X1211Y232D02*
X1223Y232D01*
X2132Y232D02*
X2141Y232D01*
X2355Y232D02*
X2362Y232D01*
X1Y231D02*
X8Y231D01*
X672Y231D02*
X681Y231D01*
X1051Y231D02*
X1062Y231D01*
X1210Y231D02*
X1222Y231D01*
X2132Y231D02*
X2141Y231D01*
X2355Y231D02*
X2362Y231D01*
X1Y230D02*
X8Y230D01*
X672Y230D02*
X681Y230D01*
X1052Y230D02*
X1063Y230D01*
X1210Y230D02*
X1221Y230D01*
X2132Y230D02*
X2141Y230D01*
X2355Y230D02*
X2362Y230D01*
X1Y229D02*
X8Y229D01*
X672Y229D02*
X681Y229D01*
X1052Y229D02*
X1064Y229D01*
X1209Y229D02*
X1220Y229D01*
X2132Y229D02*
X2141Y229D01*
X2355Y229D02*
X2362Y229D01*
X1Y228D02*
X8Y228D01*
X672Y228D02*
X681Y228D01*
X1053Y228D02*
X1065Y228D01*
X1208Y228D02*
X1220Y228D01*
X2132Y228D02*
X2141Y228D01*
X2355Y228D02*
X2362Y228D01*
X1Y227D02*
X8Y227D01*
X672Y227D02*
X681Y227D01*
X1054Y227D02*
X1066Y227D01*
X1207Y227D02*
X1219Y227D01*
X2132Y227D02*
X2141Y227D01*
X2355Y227D02*
X2362Y227D01*
X1Y226D02*
X8Y226D01*
X672Y226D02*
X681Y226D01*
X1055Y226D02*
X1067Y226D01*
X1206Y226D02*
X1218Y226D01*
X2132Y226D02*
X2141Y226D01*
X2355Y226D02*
X2362Y226D01*
X1Y225D02*
X8Y225D01*
X672Y225D02*
X681Y225D01*
X1055Y225D02*
X1068Y225D01*
X1205Y225D02*
X1217Y225D01*
X2132Y225D02*
X2141Y225D01*
X2355Y225D02*
X2362Y225D01*
X1Y224D02*
X8Y224D01*
X672Y224D02*
X681Y224D01*
X1056Y224D02*
X1069Y224D01*
X1204Y224D02*
X1217Y224D01*
X2132Y224D02*
X2141Y224D01*
X2355Y224D02*
X2362Y224D01*
X1Y223D02*
X8Y223D01*
X672Y223D02*
X681Y223D01*
X1057Y223D02*
X1070Y223D01*
X1203Y223D02*
X1216Y223D01*
X2132Y223D02*
X2141Y223D01*
X2355Y223D02*
X2362Y223D01*
X1Y222D02*
X8Y222D01*
X672Y222D02*
X681Y222D01*
X1058Y222D02*
X1071Y222D01*
X1202Y222D02*
X1215Y222D01*
X2132Y222D02*
X2141Y222D01*
X2355Y222D02*
X2362Y222D01*
X1Y221D02*
X8Y221D01*
X672Y221D02*
X681Y221D01*
X1059Y221D02*
X1072Y221D01*
X1201Y221D02*
X1214Y221D01*
X2132Y221D02*
X2141Y221D01*
X2355Y221D02*
X2362Y221D01*
X1Y220D02*
X8Y220D01*
X672Y220D02*
X681Y220D01*
X1060Y220D02*
X1073Y220D01*
X1200Y220D02*
X1213Y220D01*
X2132Y220D02*
X2141Y220D01*
X2355Y220D02*
X2362Y220D01*
X1Y219D02*
X8Y219D01*
X672Y219D02*
X681Y219D01*
X1061Y219D02*
X1074Y219D01*
X1199Y219D02*
X1212Y219D01*
X2132Y219D02*
X2141Y219D01*
X2355Y219D02*
X2362Y219D01*
X1Y218D02*
X8Y218D01*
X672Y218D02*
X681Y218D01*
X1062Y218D02*
X1075Y218D01*
X1198Y218D02*
X1211Y218D01*
X2132Y218D02*
X2141Y218D01*
X2355Y218D02*
X2362Y218D01*
X1Y217D02*
X8Y217D01*
X672Y217D02*
X681Y217D01*
X1062Y217D02*
X1076Y217D01*
X1196Y217D02*
X1210Y217D01*
X2132Y217D02*
X2141Y217D01*
X2355Y217D02*
X2362Y217D01*
X1Y216D02*
X8Y216D01*
X672Y216D02*
X681Y216D01*
X1064Y216D02*
X1078Y216D01*
X1195Y216D02*
X1209Y216D01*
X2132Y216D02*
X2141Y216D01*
X2355Y216D02*
X2362Y216D01*
X1Y215D02*
X8Y215D01*
X672Y215D02*
X681Y215D01*
X1065Y215D02*
X1079Y215D01*
X1194Y215D02*
X1208Y215D01*
X2132Y215D02*
X2141Y215D01*
X2355Y215D02*
X2362Y215D01*
X1Y214D02*
X8Y214D01*
X672Y214D02*
X681Y214D01*
X1066Y214D02*
X1080Y214D01*
X1192Y214D02*
X1207Y214D01*
X2132Y214D02*
X2141Y214D01*
X2355Y214D02*
X2362Y214D01*
X1Y213D02*
X8Y213D01*
X672Y213D02*
X681Y213D01*
X1067Y213D02*
X1082Y213D01*
X1191Y213D02*
X1206Y213D01*
X2132Y213D02*
X2141Y213D01*
X2355Y213D02*
X2362Y213D01*
X1Y212D02*
X8Y212D01*
X672Y212D02*
X681Y212D01*
X1068Y212D02*
X1083Y212D01*
X1190Y212D02*
X1205Y212D01*
X2132Y212D02*
X2141Y212D01*
X2355Y212D02*
X2362Y212D01*
X1Y211D02*
X8Y211D01*
X672Y211D02*
X681Y211D01*
X1069Y211D02*
X1085Y211D01*
X1188Y211D02*
X1204Y211D01*
X2132Y211D02*
X2141Y211D01*
X2355Y211D02*
X2362Y211D01*
X1Y210D02*
X8Y210D01*
X672Y210D02*
X681Y210D01*
X1070Y210D02*
X1086Y210D01*
X1186Y210D02*
X1203Y210D01*
X2132Y210D02*
X2141Y210D01*
X2355Y210D02*
X2362Y210D01*
X1Y209D02*
X8Y209D01*
X672Y209D02*
X681Y209D01*
X1072Y209D02*
X1088Y209D01*
X1185Y209D02*
X1201Y209D01*
X2132Y209D02*
X2141Y209D01*
X2355Y209D02*
X2362Y209D01*
X1Y208D02*
X8Y208D01*
X672Y208D02*
X681Y208D01*
X1073Y208D02*
X1090Y208D01*
X1183Y208D02*
X1200Y208D01*
X2132Y208D02*
X2141Y208D01*
X2355Y208D02*
X2362Y208D01*
X1Y207D02*
X8Y207D01*
X672Y207D02*
X681Y207D01*
X1074Y207D02*
X1092Y207D01*
X1181Y207D02*
X1198Y207D01*
X2132Y207D02*
X2141Y207D01*
X2355Y207D02*
X2362Y207D01*
X1Y206D02*
X8Y206D01*
X672Y206D02*
X681Y206D01*
X1076Y206D02*
X1094Y206D01*
X1179Y206D02*
X1197Y206D01*
X2132Y206D02*
X2141Y206D01*
X2355Y206D02*
X2362Y206D01*
X1Y205D02*
X8Y205D01*
X672Y205D02*
X681Y205D01*
X1077Y205D02*
X1096Y205D01*
X1177Y205D02*
X1196Y205D01*
X2132Y205D02*
X2141Y205D01*
X2355Y205D02*
X2362Y205D01*
X1Y204D02*
X8Y204D01*
X672Y204D02*
X681Y204D01*
X1078Y204D02*
X1098Y204D01*
X1175Y204D02*
X1194Y204D01*
X2132Y204D02*
X2141Y204D01*
X2355Y204D02*
X2362Y204D01*
X1Y203D02*
X8Y203D01*
X672Y203D02*
X681Y203D01*
X1080Y203D02*
X1100Y203D01*
X1173Y203D02*
X1193Y203D01*
X2132Y203D02*
X2141Y203D01*
X2355Y203D02*
X2362Y203D01*
X1Y202D02*
X8Y202D01*
X672Y202D02*
X681Y202D01*
X1082Y202D02*
X1103Y202D01*
X1170Y202D02*
X1191Y202D01*
X2132Y202D02*
X2141Y202D01*
X2355Y202D02*
X2362Y202D01*
X1Y201D02*
X8Y201D01*
X672Y201D02*
X681Y201D01*
X1083Y201D02*
X1106Y201D01*
X1167Y201D02*
X1189Y201D01*
X2132Y201D02*
X2141Y201D01*
X2355Y201D02*
X2362Y201D01*
X1Y200D02*
X8Y200D01*
X672Y200D02*
X681Y200D01*
X1085Y200D02*
X1109Y200D01*
X1164Y200D02*
X1188Y200D01*
X2132Y200D02*
X2141Y200D01*
X2355Y200D02*
X2362Y200D01*
X1Y199D02*
X8Y199D01*
X672Y199D02*
X681Y199D01*
X1087Y199D02*
X1112Y199D01*
X1161Y199D02*
X1186Y199D01*
X2132Y199D02*
X2141Y199D01*
X2355Y199D02*
X2362Y199D01*
X1Y198D02*
X8Y198D01*
X672Y198D02*
X681Y198D01*
X1089Y198D02*
X1117Y198D01*
X1156Y198D02*
X1184Y198D01*
X2132Y198D02*
X2141Y198D01*
X2355Y198D02*
X2362Y198D01*
X1Y197D02*
X8Y197D01*
X672Y197D02*
X681Y197D01*
X1091Y197D02*
X1123Y197D01*
X1150Y197D02*
X1182Y197D01*
X2132Y197D02*
X2141Y197D01*
X2355Y197D02*
X2362Y197D01*
X1Y196D02*
X8Y196D01*
X672Y196D02*
X681Y196D01*
X1093Y196D02*
X1180Y196D01*
X2132Y196D02*
X2141Y196D01*
X2355Y196D02*
X2362Y196D01*
X1Y195D02*
X8Y195D01*
X672Y195D02*
X681Y195D01*
X1095Y195D02*
X1178Y195D01*
X2132Y195D02*
X2141Y195D01*
X2355Y195D02*
X2362Y195D01*
X1Y194D02*
X8Y194D01*
X672Y194D02*
X681Y194D01*
X1097Y194D02*
X1176Y194D01*
X2132Y194D02*
X2141Y194D01*
X2355Y194D02*
X2362Y194D01*
X1Y193D02*
X8Y193D01*
X672Y193D02*
X681Y193D01*
X1100Y193D02*
X1173Y193D01*
X2132Y193D02*
X2141Y193D01*
X2355Y193D02*
X2362Y193D01*
X1Y192D02*
X8Y192D01*
X672Y192D02*
X681Y192D01*
X1102Y192D02*
X1170Y192D01*
X1853Y192D02*
X1853Y192D01*
X2132Y192D02*
X2141Y192D01*
X2355Y192D02*
X2362Y192D01*
X1Y191D02*
X8Y191D01*
X672Y191D02*
X681Y191D01*
X1105Y191D02*
X1167Y191D01*
X1852Y191D02*
X1854Y191D01*
X2132Y191D02*
X2141Y191D01*
X2355Y191D02*
X2362Y191D01*
X1Y190D02*
X8Y190D01*
X672Y190D02*
X681Y190D01*
X1109Y190D02*
X1164Y190D01*
X1851Y190D02*
X1855Y190D01*
X2132Y190D02*
X2141Y190D01*
X2355Y190D02*
X2362Y190D01*
X1Y189D02*
X8Y189D01*
X672Y189D02*
X681Y189D01*
X1113Y189D02*
X1160Y189D01*
X1850Y189D02*
X1856Y189D01*
X2132Y189D02*
X2141Y189D01*
X2355Y189D02*
X2362Y189D01*
X1Y188D02*
X8Y188D01*
X672Y188D02*
X681Y188D01*
X1117Y188D02*
X1155Y188D01*
X1851Y188D02*
X1857Y188D01*
X2132Y188D02*
X2141Y188D01*
X2355Y188D02*
X2362Y188D01*
X1Y187D02*
X8Y187D01*
X672Y187D02*
X681Y187D01*
X1124Y187D02*
X1149Y187D01*
X1852Y187D02*
X1858Y187D01*
X2132Y187D02*
X2141Y187D01*
X2355Y187D02*
X2362Y187D01*
X1Y186D02*
X8Y186D01*
X672Y186D02*
X681Y186D01*
X1853Y186D02*
X1859Y186D01*
X2132Y186D02*
X2141Y186D01*
X2355Y186D02*
X2362Y186D01*
X1Y185D02*
X8Y185D01*
X672Y185D02*
X681Y185D01*
X1854Y185D02*
X1860Y185D01*
X2132Y185D02*
X2141Y185D01*
X2355Y185D02*
X2362Y185D01*
X1Y184D02*
X8Y184D01*
X672Y184D02*
X681Y184D01*
X1855Y184D02*
X1861Y184D01*
X2132Y184D02*
X2141Y184D01*
X2355Y184D02*
X2362Y184D01*
X1Y183D02*
X8Y183D01*
X672Y183D02*
X681Y183D01*
X1856Y183D02*
X1862Y183D01*
X2355Y183D02*
X2362Y183D01*
X1Y182D02*
X8Y182D01*
X672Y182D02*
X681Y182D01*
X1857Y182D02*
X1863Y182D01*
X2355Y182D02*
X2362Y182D01*
X1Y181D02*
X8Y181D01*
X672Y181D02*
X681Y181D01*
X1858Y181D02*
X1864Y181D01*
X2355Y181D02*
X2362Y181D01*
X1Y180D02*
X8Y180D01*
X672Y180D02*
X681Y180D01*
X1859Y180D02*
X1865Y180D01*
X2355Y180D02*
X2362Y180D01*
X1Y179D02*
X8Y179D01*
X672Y179D02*
X681Y179D01*
X1860Y179D02*
X1866Y179D01*
X2355Y179D02*
X2362Y179D01*
X1Y178D02*
X8Y178D01*
X672Y178D02*
X681Y178D01*
X1861Y178D02*
X1867Y178D01*
X2355Y178D02*
X2362Y178D01*
X1Y177D02*
X8Y177D01*
X672Y177D02*
X681Y177D01*
X1862Y177D02*
X1868Y177D01*
X2355Y177D02*
X2362Y177D01*
X1Y176D02*
X8Y176D01*
X672Y176D02*
X681Y176D01*
X1863Y176D02*
X1869Y176D01*
X2355Y176D02*
X2362Y176D01*
X1Y175D02*
X8Y175D01*
X672Y175D02*
X681Y175D01*
X1865Y175D02*
X1870Y175D01*
X2355Y175D02*
X2362Y175D01*
X1Y174D02*
X8Y174D01*
X672Y174D02*
X681Y174D01*
X1866Y174D02*
X1871Y174D01*
X2355Y174D02*
X2362Y174D01*
X1Y173D02*
X8Y173D01*
X672Y173D02*
X681Y173D01*
X1867Y173D02*
X1872Y173D01*
X2355Y173D02*
X2362Y173D01*
X1Y172D02*
X8Y172D01*
X672Y172D02*
X681Y172D01*
X1868Y172D02*
X1873Y172D01*
X2355Y172D02*
X2362Y172D01*
X1Y171D02*
X8Y171D01*
X672Y171D02*
X681Y171D01*
X1869Y171D02*
X1874Y171D01*
X2355Y171D02*
X2362Y171D01*
X1Y170D02*
X8Y170D01*
X672Y170D02*
X681Y170D01*
X1870Y170D02*
X1875Y170D01*
X2355Y170D02*
X2362Y170D01*
X1Y169D02*
X8Y169D01*
X672Y169D02*
X681Y169D01*
X1871Y169D02*
X1876Y169D01*
X2355Y169D02*
X2362Y169D01*
X1Y168D02*
X8Y168D01*
X672Y168D02*
X681Y168D01*
X1872Y168D02*
X1877Y168D01*
X2355Y168D02*
X2362Y168D01*
X1Y167D02*
X8Y167D01*
X672Y167D02*
X681Y167D01*
X1112Y167D02*
X1127Y167D01*
X1148Y167D02*
X1166Y167D01*
X1872Y167D02*
X1878Y167D01*
X2355Y167D02*
X2362Y167D01*
X1Y166D02*
X216Y166D01*
X672Y166D02*
X681Y166D01*
X1109Y166D02*
X1129Y166D01*
X1147Y166D02*
X1166Y166D01*
X1873Y166D02*
X1879Y166D01*
X2355Y166D02*
X2362Y166D01*
X1Y165D02*
X216Y165D01*
X672Y165D02*
X681Y165D01*
X1108Y165D02*
X1129Y165D01*
X1146Y165D02*
X1166Y165D01*
X1874Y165D02*
X1880Y165D01*
X2355Y165D02*
X2362Y165D01*
X1Y164D02*
X216Y164D01*
X672Y164D02*
X681Y164D01*
X1106Y164D02*
X1130Y164D01*
X1146Y164D02*
X1166Y164D01*
X1875Y164D02*
X1881Y164D01*
X2355Y164D02*
X2362Y164D01*
X1Y163D02*
X216Y163D01*
X672Y163D02*
X681Y163D01*
X1106Y163D02*
X1129Y163D01*
X1146Y163D02*
X1166Y163D01*
X1876Y163D02*
X1882Y163D01*
X2355Y163D02*
X2362Y163D01*
X1Y162D02*
X216Y162D01*
X672Y162D02*
X681Y162D01*
X1105Y162D02*
X1129Y162D01*
X1147Y162D02*
X1166Y162D01*
X1877Y162D02*
X1883Y162D01*
X2355Y162D02*
X2362Y162D01*
X1Y161D02*
X216Y161D01*
X672Y161D02*
X681Y161D01*
X1104Y161D02*
X1128Y161D01*
X1148Y161D02*
X1166Y161D01*
X1878Y161D02*
X1884Y161D01*
X2355Y161D02*
X2362Y161D01*
X1Y160D02*
X216Y160D01*
X672Y160D02*
X681Y160D01*
X1104Y160D02*
X1112Y160D01*
X1160Y160D02*
X1166Y160D01*
X1879Y160D02*
X1885Y160D01*
X2355Y160D02*
X2362Y160D01*
X1Y159D02*
X216Y159D01*
X672Y159D02*
X681Y159D01*
X1103Y159D02*
X1111Y159D01*
X1160Y159D02*
X1166Y159D01*
X1880Y159D02*
X1886Y159D01*
X2355Y159D02*
X2362Y159D01*
X1Y158D02*
X216Y158D01*
X672Y158D02*
X681Y158D01*
X1103Y158D02*
X1110Y158D01*
X1160Y158D02*
X1166Y158D01*
X1881Y158D02*
X1887Y158D01*
X2355Y158D02*
X2362Y158D01*
X1Y157D02*
X216Y157D01*
X672Y157D02*
X681Y157D01*
X1102Y157D02*
X1109Y157D01*
X1160Y157D02*
X1166Y157D01*
X1882Y157D02*
X1887Y157D01*
X2355Y157D02*
X2362Y157D01*
X1Y156D02*
X8Y156D01*
X672Y156D02*
X681Y156D01*
X1102Y156D02*
X1109Y156D01*
X1160Y156D02*
X1166Y156D01*
X1883Y156D02*
X1886Y156D01*
X2355Y156D02*
X2362Y156D01*
X1Y155D02*
X8Y155D01*
X672Y155D02*
X681Y155D01*
X1101Y155D02*
X1108Y155D01*
X1160Y155D02*
X1166Y155D01*
X1884Y155D02*
X1885Y155D01*
X2355Y155D02*
X2362Y155D01*
X1Y154D02*
X8Y154D01*
X672Y154D02*
X681Y154D01*
X1101Y154D02*
X1108Y154D01*
X1160Y154D02*
X1166Y154D01*
X2355Y154D02*
X2362Y154D01*
X1Y153D02*
X8Y153D01*
X672Y153D02*
X681Y153D01*
X1101Y153D02*
X1107Y153D01*
X1160Y153D02*
X1166Y153D01*
X2355Y153D02*
X2362Y153D01*
X1Y152D02*
X8Y152D01*
X672Y152D02*
X681Y152D01*
X1100Y152D02*
X1107Y152D01*
X1160Y152D02*
X1166Y152D01*
X2355Y152D02*
X2362Y152D01*
X1Y151D02*
X8Y151D01*
X672Y151D02*
X681Y151D01*
X1100Y151D02*
X1106Y151D01*
X1160Y151D02*
X1166Y151D01*
X2355Y151D02*
X2362Y151D01*
X1Y150D02*
X8Y150D01*
X672Y150D02*
X681Y150D01*
X1099Y150D02*
X1106Y150D01*
X1160Y150D02*
X1166Y150D01*
X2355Y150D02*
X2362Y150D01*
X1Y149D02*
X8Y149D01*
X672Y149D02*
X681Y149D01*
X1099Y149D02*
X1105Y149D01*
X1160Y149D02*
X1166Y149D01*
X2355Y149D02*
X2362Y149D01*
X1Y148D02*
X8Y148D01*
X672Y148D02*
X681Y148D01*
X1098Y148D02*
X1105Y148D01*
X1160Y148D02*
X1166Y148D01*
X2355Y148D02*
X2362Y148D01*
X1Y147D02*
X8Y147D01*
X672Y147D02*
X681Y147D01*
X1098Y147D02*
X1104Y147D01*
X1160Y147D02*
X1166Y147D01*
X2355Y147D02*
X2362Y147D01*
X1Y146D02*
X8Y146D01*
X672Y146D02*
X681Y146D01*
X1097Y146D02*
X1104Y146D01*
X1160Y146D02*
X1166Y146D01*
X2355Y146D02*
X2362Y146D01*
X1Y145D02*
X8Y145D01*
X672Y145D02*
X681Y145D01*
X1097Y145D02*
X1103Y145D01*
X1160Y145D02*
X1166Y145D01*
X2355Y145D02*
X2362Y145D01*
X1Y144D02*
X8Y144D01*
X672Y144D02*
X681Y144D01*
X1097Y144D02*
X1103Y144D01*
X1160Y144D02*
X1166Y144D01*
X2355Y144D02*
X2362Y144D01*
X1Y143D02*
X8Y143D01*
X672Y143D02*
X681Y143D01*
X1096Y143D02*
X1103Y143D01*
X1160Y143D02*
X1166Y143D01*
X2355Y143D02*
X2362Y143D01*
X1Y142D02*
X8Y142D01*
X672Y142D02*
X681Y142D01*
X1096Y142D02*
X1102Y142D01*
X1160Y142D02*
X1166Y142D01*
X2355Y142D02*
X2362Y142D01*
X1Y141D02*
X8Y141D01*
X1096Y141D02*
X1102Y141D01*
X1160Y141D02*
X1166Y141D01*
X2355Y141D02*
X2362Y141D01*
X1Y140D02*
X8Y140D01*
X1096Y140D02*
X1102Y140D01*
X1160Y140D02*
X1166Y140D01*
X2355Y140D02*
X2362Y140D01*
X1Y139D02*
X8Y139D01*
X1096Y139D02*
X1102Y139D01*
X1160Y139D02*
X1166Y139D01*
X2355Y139D02*
X2362Y139D01*
X1Y138D02*
X8Y138D01*
X1096Y138D02*
X1102Y138D01*
X1160Y138D02*
X1166Y138D01*
X2355Y138D02*
X2362Y138D01*
X1Y137D02*
X8Y137D01*
X1096Y137D02*
X1103Y137D01*
X1160Y137D02*
X1166Y137D01*
X1175Y137D02*
X1178Y137D01*
X2355Y137D02*
X2362Y137D01*
X1Y136D02*
X8Y136D01*
X1097Y136D02*
X1103Y136D01*
X1160Y136D02*
X1166Y136D01*
X1174Y136D02*
X1179Y136D01*
X2355Y136D02*
X2362Y136D01*
X1Y135D02*
X8Y135D01*
X1097Y135D02*
X1104Y135D01*
X1160Y135D02*
X1166Y135D01*
X1174Y135D02*
X1180Y135D01*
X2355Y135D02*
X2362Y135D01*
X1Y134D02*
X8Y134D01*
X1097Y134D02*
X1104Y134D01*
X1160Y134D02*
X1166Y134D01*
X1174Y134D02*
X1180Y134D01*
X2355Y134D02*
X2362Y134D01*
X1Y133D02*
X8Y133D01*
X1098Y133D02*
X1105Y133D01*
X1160Y133D02*
X1166Y133D01*
X1174Y133D02*
X1180Y133D01*
X2355Y133D02*
X2362Y133D01*
X1Y132D02*
X8Y132D01*
X1098Y132D02*
X1105Y132D01*
X1160Y132D02*
X1166Y132D01*
X1174Y132D02*
X1180Y132D01*
X2355Y132D02*
X2362Y132D01*
X1Y131D02*
X8Y131D01*
X1099Y131D02*
X1106Y131D01*
X1160Y131D02*
X1166Y131D01*
X1174Y131D02*
X1180Y131D01*
X2355Y131D02*
X2362Y131D01*
X1Y130D02*
X8Y130D01*
X1099Y130D02*
X1106Y130D01*
X1160Y130D02*
X1166Y130D01*
X1174Y130D02*
X1180Y130D01*
X2355Y130D02*
X2362Y130D01*
X1Y129D02*
X8Y129D01*
X1100Y129D02*
X1107Y129D01*
X1160Y129D02*
X1166Y129D01*
X1174Y129D02*
X1180Y129D01*
X2355Y129D02*
X2362Y129D01*
X1Y128D02*
X8Y128D01*
X1100Y128D02*
X1107Y128D01*
X1160Y128D02*
X1166Y128D01*
X1174Y128D02*
X1180Y128D01*
X2355Y128D02*
X2362Y128D01*
X1Y127D02*
X8Y127D01*
X1101Y127D02*
X1108Y127D01*
X1160Y127D02*
X1166Y127D01*
X1174Y127D02*
X1180Y127D01*
X2355Y127D02*
X2362Y127D01*
X1Y126D02*
X8Y126D01*
X1101Y126D02*
X1108Y126D01*
X1160Y126D02*
X1166Y126D01*
X1174Y126D02*
X1180Y126D01*
X2355Y126D02*
X2362Y126D01*
X1Y125D02*
X8Y125D01*
X1102Y125D02*
X1109Y125D01*
X1160Y125D02*
X1166Y125D01*
X1174Y125D02*
X1180Y125D01*
X2355Y125D02*
X2362Y125D01*
X1Y124D02*
X8Y124D01*
X1102Y124D02*
X1109Y124D01*
X1160Y124D02*
X1166Y124D01*
X1174Y124D02*
X1180Y124D01*
X2355Y124D02*
X2362Y124D01*
X1Y123D02*
X8Y123D01*
X1103Y123D02*
X1110Y123D01*
X1160Y123D02*
X1166Y123D01*
X1174Y123D02*
X1180Y123D01*
X2355Y123D02*
X2362Y123D01*
X1Y122D02*
X8Y122D01*
X1103Y122D02*
X1110Y122D01*
X1160Y122D02*
X1166Y122D01*
X1174Y122D02*
X1180Y122D01*
X2355Y122D02*
X2362Y122D01*
X1Y121D02*
X8Y121D01*
X1104Y121D02*
X1111Y121D01*
X1160Y121D02*
X1166Y121D01*
X1174Y121D02*
X1180Y121D01*
X2355Y121D02*
X2362Y121D01*
X1Y120D02*
X8Y120D01*
X1104Y120D02*
X1127Y120D01*
X1148Y120D02*
X1180Y120D01*
X2355Y120D02*
X2362Y120D01*
X1Y119D02*
X8Y119D01*
X1105Y119D02*
X1129Y119D01*
X1147Y119D02*
X1180Y119D01*
X2355Y119D02*
X2362Y119D01*
X1Y118D02*
X8Y118D01*
X1106Y118D02*
X1129Y118D01*
X1146Y118D02*
X1180Y118D01*
X2355Y118D02*
X2362Y118D01*
X1Y117D02*
X8Y117D01*
X1106Y117D02*
X1130Y117D01*
X1146Y117D02*
X1180Y117D01*
X2355Y117D02*
X2362Y117D01*
X1Y116D02*
X8Y116D01*
X725Y116D02*
X729Y116D01*
X753Y116D02*
X756Y116D01*
X775Y116D02*
X794Y116D01*
X1107Y116D02*
X1130Y116D01*
X1146Y116D02*
X1180Y116D01*
X2355Y116D02*
X2362Y116D01*
X1Y115D02*
X8Y115D01*
X725Y115D02*
X729Y115D01*
X752Y115D02*
X757Y115D01*
X775Y115D02*
X794Y115D01*
X1108Y115D02*
X1129Y115D01*
X1147Y115D02*
X1179Y115D01*
X2355Y115D02*
X2362Y115D01*
X1Y114D02*
X8Y114D01*
X724Y114D02*
X730Y114D01*
X752Y114D02*
X757Y114D01*
X774Y114D02*
X794Y114D01*
X1110Y114D02*
X1128Y114D01*
X1147Y114D02*
X1178Y114D01*
X2355Y114D02*
X2362Y114D01*
X1Y113D02*
X8Y113D01*
X724Y113D02*
X730Y113D01*
X752Y113D02*
X758Y113D01*
X774Y113D02*
X794Y113D01*
X2355Y113D02*
X2362Y113D01*
X1Y112D02*
X8Y112D01*
X724Y112D02*
X730Y112D01*
X752Y112D02*
X758Y112D01*
X774Y112D02*
X794Y112D01*
X2355Y112D02*
X2362Y112D01*
X1Y111D02*
X8Y111D01*
X724Y111D02*
X730Y111D01*
X752Y111D02*
X758Y111D01*
X775Y111D02*
X794Y111D01*
X2355Y111D02*
X2362Y111D01*
X1Y110D02*
X8Y110D01*
X724Y110D02*
X730Y110D01*
X752Y110D02*
X758Y110D01*
X776Y110D02*
X794Y110D01*
X2355Y110D02*
X2362Y110D01*
X1Y109D02*
X8Y109D01*
X724Y109D02*
X730Y109D01*
X752Y109D02*
X758Y109D01*
X788Y109D02*
X794Y109D01*
X2355Y109D02*
X2362Y109D01*
X1Y108D02*
X8Y108D01*
X724Y108D02*
X730Y108D01*
X752Y108D02*
X758Y108D01*
X788Y108D02*
X794Y108D01*
X2355Y108D02*
X2362Y108D01*
X1Y107D02*
X8Y107D01*
X724Y107D02*
X730Y107D01*
X752Y107D02*
X758Y107D01*
X788Y107D02*
X794Y107D01*
X2355Y107D02*
X2362Y107D01*
X1Y106D02*
X8Y106D01*
X724Y106D02*
X730Y106D01*
X752Y106D02*
X758Y106D01*
X788Y106D02*
X794Y106D01*
X2355Y106D02*
X2362Y106D01*
X1Y105D02*
X8Y105D01*
X724Y105D02*
X730Y105D01*
X752Y105D02*
X758Y105D01*
X788Y105D02*
X794Y105D01*
X2355Y105D02*
X2362Y105D01*
X1Y104D02*
X8Y104D01*
X724Y104D02*
X730Y104D01*
X752Y104D02*
X758Y104D01*
X788Y104D02*
X794Y104D01*
X2355Y104D02*
X2362Y104D01*
X1Y103D02*
X8Y103D01*
X724Y103D02*
X730Y103D01*
X752Y103D02*
X758Y103D01*
X788Y103D02*
X794Y103D01*
X2355Y103D02*
X2362Y103D01*
X1Y102D02*
X8Y102D01*
X724Y102D02*
X730Y102D01*
X752Y102D02*
X758Y102D01*
X788Y102D02*
X794Y102D01*
X2355Y102D02*
X2362Y102D01*
X1Y101D02*
X8Y101D01*
X724Y101D02*
X730Y101D01*
X752Y101D02*
X758Y101D01*
X788Y101D02*
X794Y101D01*
X2355Y101D02*
X2362Y101D01*
X1Y100D02*
X8Y100D01*
X724Y100D02*
X730Y100D01*
X752Y100D02*
X758Y100D01*
X788Y100D02*
X794Y100D01*
X2355Y100D02*
X2362Y100D01*
X1Y99D02*
X8Y99D01*
X724Y99D02*
X730Y99D01*
X752Y99D02*
X758Y99D01*
X788Y99D02*
X794Y99D01*
X2355Y99D02*
X2362Y99D01*
X1Y98D02*
X8Y98D01*
X724Y98D02*
X730Y98D01*
X752Y98D02*
X758Y98D01*
X788Y98D02*
X794Y98D01*
X2355Y98D02*
X2362Y98D01*
X1Y97D02*
X8Y97D01*
X724Y97D02*
X730Y97D01*
X752Y97D02*
X758Y97D01*
X788Y97D02*
X794Y97D01*
X2355Y97D02*
X2362Y97D01*
X1Y96D02*
X8Y96D01*
X724Y96D02*
X730Y96D01*
X752Y96D02*
X758Y96D01*
X788Y96D02*
X794Y96D01*
X2355Y96D02*
X2362Y96D01*
X1Y95D02*
X8Y95D01*
X724Y95D02*
X730Y95D01*
X752Y95D02*
X758Y95D01*
X788Y95D02*
X794Y95D01*
X2355Y95D02*
X2362Y95D01*
X1Y94D02*
X8Y94D01*
X724Y94D02*
X730Y94D01*
X752Y94D02*
X758Y94D01*
X788Y94D02*
X794Y94D01*
X2355Y94D02*
X2362Y94D01*
X1Y93D02*
X8Y93D01*
X724Y93D02*
X730Y93D01*
X752Y93D02*
X758Y93D01*
X788Y93D02*
X794Y93D01*
X2355Y93D02*
X2362Y93D01*
X1Y92D02*
X8Y92D01*
X724Y92D02*
X730Y92D01*
X752Y92D02*
X758Y92D01*
X788Y92D02*
X794Y92D01*
X2355Y92D02*
X2362Y92D01*
X1Y91D02*
X8Y91D01*
X724Y91D02*
X730Y91D01*
X752Y91D02*
X758Y91D01*
X788Y91D02*
X794Y91D01*
X2355Y91D02*
X2362Y91D01*
X1Y90D02*
X8Y90D01*
X724Y90D02*
X730Y90D01*
X752Y90D02*
X758Y90D01*
X788Y90D02*
X794Y90D01*
X2355Y90D02*
X2362Y90D01*
X1Y89D02*
X8Y89D01*
X724Y89D02*
X730Y89D01*
X752Y89D02*
X758Y89D01*
X788Y89D02*
X794Y89D01*
X2355Y89D02*
X2362Y89D01*
X1Y88D02*
X8Y88D01*
X724Y88D02*
X730Y88D01*
X752Y88D02*
X758Y88D01*
X788Y88D02*
X794Y88D01*
X2355Y88D02*
X2362Y88D01*
X1Y87D02*
X8Y87D01*
X724Y87D02*
X730Y87D01*
X752Y87D02*
X758Y87D01*
X788Y87D02*
X794Y87D01*
X804Y87D02*
X805Y87D01*
X2355Y87D02*
X2362Y87D01*
X1Y86D02*
X8Y86D01*
X724Y86D02*
X730Y86D01*
X752Y86D02*
X758Y86D01*
X788Y86D02*
X794Y86D01*
X802Y86D02*
X807Y86D01*
X2355Y86D02*
X2362Y86D01*
X1Y85D02*
X8Y85D01*
X724Y85D02*
X730Y85D01*
X752Y85D02*
X758Y85D01*
X788Y85D02*
X794Y85D01*
X802Y85D02*
X807Y85D01*
X2355Y85D02*
X2362Y85D01*
X1Y84D02*
X8Y84D01*
X724Y84D02*
X730Y84D01*
X752Y84D02*
X758Y84D01*
X788Y84D02*
X794Y84D01*
X802Y84D02*
X808Y84D01*
X2355Y84D02*
X2362Y84D01*
X1Y83D02*
X8Y83D01*
X724Y83D02*
X730Y83D01*
X752Y83D02*
X758Y83D01*
X788Y83D02*
X794Y83D01*
X802Y83D02*
X808Y83D01*
X2355Y83D02*
X2362Y83D01*
X1Y82D02*
X8Y82D01*
X724Y82D02*
X730Y82D01*
X752Y82D02*
X758Y82D01*
X788Y82D02*
X794Y82D01*
X802Y82D02*
X808Y82D01*
X2355Y82D02*
X2362Y82D01*
X1Y81D02*
X8Y81D01*
X724Y81D02*
X730Y81D01*
X752Y81D02*
X758Y81D01*
X788Y81D02*
X794Y81D01*
X802Y81D02*
X808Y81D01*
X2355Y81D02*
X2362Y81D01*
X1Y80D02*
X8Y80D01*
X724Y80D02*
X730Y80D01*
X752Y80D02*
X758Y80D01*
X788Y80D02*
X794Y80D01*
X802Y80D02*
X808Y80D01*
X2355Y80D02*
X2362Y80D01*
X1Y79D02*
X8Y79D01*
X724Y79D02*
X730Y79D01*
X752Y79D02*
X758Y79D01*
X788Y79D02*
X794Y79D01*
X802Y79D02*
X808Y79D01*
X2355Y79D02*
X2362Y79D01*
X1Y78D02*
X8Y78D01*
X724Y78D02*
X730Y78D01*
X752Y78D02*
X758Y78D01*
X788Y78D02*
X794Y78D01*
X802Y78D02*
X808Y78D01*
X2355Y78D02*
X2362Y78D01*
X1Y77D02*
X8Y77D01*
X724Y77D02*
X730Y77D01*
X752Y77D02*
X758Y77D01*
X788Y77D02*
X794Y77D01*
X802Y77D02*
X808Y77D01*
X2355Y77D02*
X2362Y77D01*
X1Y76D02*
X8Y76D01*
X724Y76D02*
X730Y76D01*
X752Y76D02*
X758Y76D01*
X788Y76D02*
X794Y76D01*
X802Y76D02*
X808Y76D01*
X2355Y76D02*
X2362Y76D01*
X1Y75D02*
X8Y75D01*
X724Y75D02*
X730Y75D01*
X752Y75D02*
X758Y75D01*
X788Y75D02*
X794Y75D01*
X802Y75D02*
X808Y75D01*
X2355Y75D02*
X2362Y75D01*
X1Y74D02*
X8Y74D01*
X724Y74D02*
X730Y74D01*
X752Y74D02*
X758Y74D01*
X788Y74D02*
X794Y74D01*
X802Y74D02*
X808Y74D01*
X2355Y74D02*
X2362Y74D01*
X1Y73D02*
X8Y73D01*
X724Y73D02*
X730Y73D01*
X752Y73D02*
X758Y73D01*
X788Y73D02*
X794Y73D01*
X802Y73D02*
X808Y73D01*
X2355Y73D02*
X2362Y73D01*
X1Y72D02*
X8Y72D01*
X724Y72D02*
X730Y72D01*
X751Y72D02*
X757Y72D01*
X788Y72D02*
X794Y72D01*
X802Y72D02*
X808Y72D01*
X2355Y72D02*
X2362Y72D01*
X1Y71D02*
X8Y71D01*
X724Y71D02*
X731Y71D01*
X751Y71D02*
X757Y71D01*
X788Y71D02*
X794Y71D01*
X802Y71D02*
X808Y71D01*
X2355Y71D02*
X2362Y71D01*
X1Y70D02*
X8Y70D01*
X724Y70D02*
X732Y70D01*
X749Y70D02*
X757Y70D01*
X788Y70D02*
X794Y70D01*
X801Y70D02*
X808Y70D01*
X2355Y70D02*
X2362Y70D01*
X1Y69D02*
X8Y69D01*
X725Y69D02*
X757Y69D01*
X776Y69D02*
X808Y69D01*
X2355Y69D02*
X2362Y69D01*
X1Y68D02*
X8Y68D01*
X725Y68D02*
X756Y68D01*
X775Y68D02*
X808Y68D01*
X2355Y68D02*
X2362Y68D01*
X1Y67D02*
X8Y67D01*
X726Y67D02*
X756Y67D01*
X774Y67D02*
X808Y67D01*
X2355Y67D02*
X2362Y67D01*
X1Y66D02*
X8Y66D01*
X727Y66D02*
X755Y66D01*
X774Y66D02*
X808Y66D01*
X2355Y66D02*
X2362Y66D01*
X1Y65D02*
X8Y65D01*
X728Y65D02*
X754Y65D01*
X774Y65D02*
X807Y65D01*
X2355Y65D02*
X2362Y65D01*
X1Y64D02*
X8Y64D01*
X729Y64D02*
X752Y64D01*
X775Y64D02*
X807Y64D01*
X2355Y64D02*
X2362Y64D01*
X1Y63D02*
X8Y63D01*
X732Y63D02*
X750Y63D01*
X776Y63D02*
X805Y63D01*
X2355Y63D02*
X2362Y63D01*
X1Y62D02*
X8Y62D01*
X2355Y62D02*
X2362Y62D01*
X1Y61D02*
X8Y61D01*
X2355Y61D02*
X2362Y61D01*
X1Y60D02*
X8Y60D01*
X2355Y60D02*
X2362Y60D01*
X1Y59D02*
X8Y59D01*
X2355Y59D02*
X2362Y59D01*
X1Y58D02*
X8Y58D01*
X2355Y58D02*
X2362Y58D01*
X1Y57D02*
X8Y57D01*
X2355Y57D02*
X2362Y57D01*
X1Y56D02*
X8Y56D01*
X2355Y56D02*
X2362Y56D01*
X1Y55D02*
X8Y55D01*
X2355Y55D02*
X2362Y55D01*
X1Y54D02*
X8Y54D01*
X2355Y54D02*
X2362Y54D01*
X1Y53D02*
X8Y53D01*
X2355Y53D02*
X2362Y53D01*
X1Y52D02*
X8Y52D01*
X2355Y52D02*
X2362Y52D01*
X1Y51D02*
X8Y51D01*
X2355Y51D02*
X2362Y51D01*
X1Y50D02*
X8Y50D01*
X2355Y50D02*
X2362Y50D01*
X1Y49D02*
X8Y49D01*
X2355Y49D02*
X2362Y49D01*
X1Y48D02*
X8Y48D01*
X2355Y48D02*
X2362Y48D01*
X1Y47D02*
X8Y47D01*
X2355Y47D02*
X2362Y47D01*
X1Y46D02*
X8Y46D01*
X2355Y46D02*
X2362Y46D01*
X1Y45D02*
X8Y45D01*
X2355Y45D02*
X2362Y45D01*
X1Y44D02*
X8Y44D01*
X2355Y44D02*
X2362Y44D01*
X1Y43D02*
X8Y43D01*
X2355Y43D02*
X2362Y43D01*
X1Y42D02*
X8Y42D01*
X2355Y42D02*
X2362Y42D01*
X1Y41D02*
X8Y41D01*
X2355Y41D02*
X2362Y41D01*
X1Y40D02*
X8Y40D01*
X2355Y40D02*
X2362Y40D01*
X1Y39D02*
X8Y39D01*
X2355Y39D02*
X2362Y39D01*
X1Y38D02*
X8Y38D01*
X2355Y38D02*
X2362Y38D01*
X1Y37D02*
X8Y37D01*
X2355Y37D02*
X2362Y37D01*
X1Y36D02*
X8Y36D01*
X2355Y36D02*
X2362Y36D01*
X1Y35D02*
X8Y35D01*
X2355Y35D02*
X2362Y35D01*
X1Y34D02*
X8Y34D01*
X2355Y34D02*
X2362Y34D01*
X1Y33D02*
X8Y33D01*
X2355Y33D02*
X2362Y33D01*
X1Y32D02*
X8Y32D01*
X2355Y32D02*
X2362Y32D01*
X1Y31D02*
X8Y31D01*
X2355Y31D02*
X2362Y31D01*
X1Y30D02*
X8Y30D01*
X2355Y30D02*
X2362Y30D01*
X1Y29D02*
X8Y29D01*
X2355Y29D02*
X2362Y29D01*
X1Y28D02*
X8Y28D01*
X2355Y28D02*
X2362Y28D01*
X1Y27D02*
X8Y27D01*
X2355Y27D02*
X2362Y27D01*
X1Y26D02*
X8Y26D01*
X2355Y26D02*
X2362Y26D01*
X1Y25D02*
X8Y25D01*
X2355Y25D02*
X2362Y25D01*
X1Y24D02*
X8Y24D01*
X2355Y24D02*
X2362Y24D01*
X1Y23D02*
X8Y23D01*
X2355Y23D02*
X2362Y23D01*
X1Y22D02*
X8Y22D01*
X2355Y22D02*
X2362Y22D01*
X1Y21D02*
X8Y21D01*
X2355Y21D02*
X2362Y21D01*
X1Y20D02*
X8Y20D01*
X2355Y20D02*
X2362Y20D01*
X1Y19D02*
X8Y19D01*
X2355Y19D02*
X2362Y19D01*
X1Y18D02*
X8Y18D01*
X2355Y18D02*
X2362Y18D01*
X1Y17D02*
X8Y17D01*
X2355Y17D02*
X2362Y17D01*
X1Y16D02*
X8Y16D01*
X2355Y16D02*
X2362Y16D01*
X1Y15D02*
X8Y15D01*
X2355Y15D02*
X2362Y15D01*
X1Y14D02*
X8Y14D01*
X2355Y14D02*
X2362Y14D01*
X1Y13D02*
X8Y13D01*
X2355Y13D02*
X2362Y13D01*
X1Y12D02*
X8Y12D01*
X2355Y12D02*
X2362Y12D01*
X1Y11D02*
X8Y11D01*
X2355Y11D02*
X2362Y11D01*
X1Y10D02*
X8Y10D01*
X2355Y10D02*
X2362Y10D01*
X1Y9D02*
X8Y9D01*
X2355Y9D02*
X2362Y9D01*
X1Y8D02*
X2362Y8D01*
X1Y7D02*
X2362Y7D01*
X1Y6D02*
X2362Y6D01*
X1Y5D02*
X2362Y5D01*
X1Y4D02*
X2362Y4D01*
X1Y3D02*
X2362Y3D01*
X1Y2D02*
X2362Y2D01*
X1Y1D02*
X2362Y1D01*
D02*
G04 End of Silk1*
M02*