G04 MADE WITH FRITZING*
G04 WWW.FRITZING.ORG*
G04 DOUBLE SIDED*
G04 HOLES PLATED*
G04 CONTOUR ON CENTER OF CONTOUR VECTOR*
%ASAXBY*%
%FSLAX23Y23*%
%MOIN*%
%OFA0B0*%
%SFA1.0B1.0*%
%ADD10C,0.088000*%
%ADD11C,0.092000*%
%ADD12C,0.150000*%
%ADD13C,0.080000*%
%ADD14C,0.072992*%
%ADD15C,0.085000*%
%ADD16R,0.092000X0.092000*%
%ADD17R,0.072992X0.072992*%
%ADD18R,0.085000X0.085000*%
%LNMASK0*%
G90*
G70*
G54D10*
X1336Y541D03*
X1336Y441D03*
X1336Y341D03*
X1436Y541D03*
X1436Y441D03*
X1436Y341D03*
X1536Y541D03*
X1536Y441D03*
X1536Y341D03*
X1636Y541D03*
X1636Y441D03*
X1636Y341D03*
X1736Y541D03*
X1736Y441D03*
X1736Y341D03*
X1836Y541D03*
X1836Y441D03*
X1836Y341D03*
G54D11*
X736Y441D03*
X736Y341D03*
X736Y241D03*
G54D12*
X456Y331D03*
X216Y331D03*
X336Y141D03*
G54D10*
X1836Y141D03*
X1736Y141D03*
X1636Y141D03*
X1536Y141D03*
X1436Y141D03*
X1336Y141D03*
G54D13*
X636Y441D03*
X636Y341D03*
G54D14*
X2036Y341D03*
X2036Y439D03*
G54D15*
X2136Y141D03*
X2136Y541D03*
X1136Y341D03*
X1136Y241D03*
G54D16*
X736Y441D03*
G54D17*
X2036Y341D03*
G54D18*
X1136Y341D03*
G04 End of Mask0*
M02*