G04 MADE WITH FRITZING*
G04 WWW.FRITZING.ORG*
G04 DOUBLE SIDED*
G04 HOLES PLATED*
G04 CONTOUR ON CENTER OF CONTOUR VECTOR*
%ASAXBY*%
%FSLAX23Y23*%
%MOIN*%
%OFA0B0*%
%SFA1.0B1.0*%
%ADD10C,0.078000*%
%ADD11C,0.082000*%
%ADD12C,0.140000*%
%ADD13C,0.070000*%
%ADD14C,0.062992*%
%ADD15C,0.075000*%
%ADD16R,0.082000X0.082000*%
%ADD17R,0.062992X0.062992*%
%ADD18R,0.075000X0.075000*%
%ADD19C,0.024000*%
%LNCOPPER0*%
G90*
G70*
G54D10*
X1336Y541D03*
X1336Y441D03*
X1336Y341D03*
X1436Y541D03*
X1436Y441D03*
X1436Y341D03*
X1536Y541D03*
X1536Y441D03*
X1536Y341D03*
X1636Y541D03*
X1636Y441D03*
X1636Y341D03*
X1736Y541D03*
X1736Y441D03*
X1736Y341D03*
X1836Y541D03*
X1836Y441D03*
X1836Y341D03*
G54D11*
X736Y441D03*
X736Y341D03*
X736Y241D03*
G54D12*
X456Y331D03*
X216Y331D03*
X336Y141D03*
G54D10*
X1836Y141D03*
X1736Y141D03*
X1636Y141D03*
X1536Y141D03*
X1436Y141D03*
X1336Y141D03*
G54D13*
X636Y441D03*
X636Y341D03*
G54D14*
X2036Y341D03*
X2036Y439D03*
G54D15*
X2136Y141D03*
X2136Y541D03*
X1136Y341D03*
X1136Y241D03*
G54D16*
X736Y441D03*
G54D17*
X2036Y341D03*
G54D18*
X1136Y341D03*
G54D19*
X406Y331D02*
X266Y331D01*
D02*
X1355Y541D02*
X1417Y541D01*
D02*
X1455Y541D02*
X1517Y541D01*
D02*
X1555Y541D02*
X1617Y541D01*
D02*
X1655Y541D02*
X1717Y541D01*
D02*
X1755Y541D02*
X1817Y541D01*
D02*
X1755Y441D02*
X1817Y441D01*
D02*
X1655Y441D02*
X1717Y441D01*
D02*
X1555Y441D02*
X1617Y441D01*
D02*
X1455Y441D02*
X1517Y441D01*
D02*
X1355Y441D02*
X1417Y441D01*
D02*
X1336Y160D02*
X1336Y322D01*
D02*
X1436Y160D02*
X1436Y322D01*
D02*
X1536Y160D02*
X1536Y322D01*
D02*
X1636Y160D02*
X1636Y322D01*
D02*
X1736Y160D02*
X1736Y322D01*
D02*
X1836Y160D02*
X1836Y322D01*
D02*
X2038Y543D02*
X2036Y455D01*
D02*
X1855Y541D02*
X2038Y543D01*
D02*
X1937Y140D02*
X1937Y442D01*
D02*
X1937Y442D02*
X1855Y441D01*
D02*
X2118Y141D02*
X1937Y140D01*
D02*
X2137Y343D02*
X2136Y523D01*
D02*
X2052Y341D02*
X2137Y343D01*
D02*
X1136Y539D02*
X1317Y541D01*
D02*
X1136Y358D02*
X1136Y539D01*
D02*
X1234Y441D02*
X1234Y240D01*
D02*
X1234Y240D02*
X1153Y241D01*
D02*
X1317Y441D02*
X1234Y441D01*
D02*
X1118Y241D02*
X757Y241D01*
D02*
X651Y341D02*
X1118Y341D01*
D02*
X651Y341D02*
X715Y341D01*
D02*
X715Y441D02*
X651Y441D01*
D02*
X485Y441D02*
X469Y379D01*
D02*
X621Y441D02*
X485Y441D01*
D02*
X635Y141D02*
X636Y326D01*
D02*
X386Y141D02*
X635Y141D01*
G04 End of Copper0*
M02*