; NON-PLATED HOLES START AT T1
; THROUGH (PLATED) HOLES START AT T100
M48
INCH
T100C0.042000
T101C0.035000
T102C0.038000
T103C0.030000
T104C0.100000
T105C0.031497
%
T100
X007359Y002408
X007359Y003408
X007359Y004408
T101
X011359Y002408
X021359Y005408
X011359Y003408
X021359Y001408
T102
X013359Y003408
X015359Y003408
X013359Y005408
X013359Y004408
X018359Y004408
X017359Y005408
X017359Y004408
X018359Y001408
X018359Y003408
X015359Y005408
X017359Y001408
X014359Y004408
X016359Y001408
X015359Y001408
X016359Y003408
X017359Y003408
X015359Y004408
X013359Y001408
X018359Y005408
X016359Y005408
X014359Y003408
X016359Y004408
X014359Y001408
X014359Y005408
T103
X006359Y004410
X006359Y003408
T104
X002159Y003308
X003359Y001408
X004559Y003308
T105
X020359Y003408
X020359Y004393
T00
M30
